<?xml version="1.0" encoding="utf-8"?>
<!-- Generator: Adobe Illustrator 17.0.0, SVG Export Plug-In . SVG Version: 6.00 Build 0)  -->
<!DOCTYPE svg PUBLIC "-//W3C//DTD SVG 1.1//EN" "http://www.w3.org/Graphics/SVG/1.1/DTD/svg11.dtd">
<svg version="1.1" id="Layer_1" xmlns="http://www.w3.org/2000/svg" xmlns:xlink="http://www.w3.org/1999/xlink" x="0px" y="0px"
	 width="480px" height="480px" viewBox="0 0 480 480" enable-background="new 0 0 480 480" xml:space="preserve">
<g>
	<defs>
		<rect id="SVGID_1_" width="480" height="480"/>
	</defs>
	<clipPath id="SVGID_2_">
		<use xlink:href="#SVGID_1_"  overflow="visible"/>
	</clipPath>
	<path clip-path="url(#SVGID_2_)" fill="#A2722B" d="M440,32h-48v-8c0-13.254-10.745-24-24-24c-13.255,0-24,10.746-24,24v8h-80v-8
		c0-13.254-10.745-24-24-24s-24,10.746-24,24v8h-80v-8c0-13.254-10.745-24-24-24S88,10.746,88,24v8H40
		C17.919,32.025,0.025,49.919,0,72v368c0.025,22.082,17.919,39.976,40,40h400c22.081-0.024,39.976-17.918,40-40V72
		C479.976,49.919,462.081,32.025,440,32 M360,24c0-4.418,3.582-8,8-8s8,3.582,8,8v48c0,4.419-3.582,8-8,8s-8-3.581-8-8V24z M232,24
		c0-4.418,3.582-8,8-8s8,3.582,8,8v48c0,4.419-3.582,8-8,8s-8-3.581-8-8V24z M104,24c0-4.418,3.582-8,8-8s8,3.582,8,8v48
		c0,4.419-3.582,8-8,8s-8-3.581-8-8V24z M40,48h48v24c0,13.255,10.745,24,24,24s24-10.745,24-24V48h80v24c0,13.255,10.745,24,24,24
		s24-10.745,24-24V48h80v24c0,13.255,10.745,24,24,24c13.255,0,24-10.745,24-24V48h48c13.248,0.016,23.984,10.752,24,24v56H16V72
		C16.016,58.752,26.751,48.016,40,48 M440,464H40c-13.249-0.015-23.984-10.751-24-24V144h448v296
		C463.984,453.249,453.248,463.984,440,464"/>
	<path clip-path="url(#SVGID_2_)" fill="#A2722B" d="M424,200h-32c-4.418,0-8,3.582-8,8v32c0,4.418,3.582,8,8,8h32
		c4.418,0,8-3.582,8-8v-32C432,203.582,428.418,200,424,200 M416,232h-16v-16h16V232z"/>
	<path clip-path="url(#SVGID_2_)" fill="#A2722B" d="M264,360h-32c-4.418,0-8,3.582-8,8v32c0,4.418,3.582,8,8,8h32
		c4.418,0,8-3.582,8-8v-32C272,363.582,268.418,360,264,360 M256,392h-16v-16h16V392z"/>
	<path clip-path="url(#SVGID_2_)" fill="#A2722B" d="M184,200h-32c-4.418,0-8,3.582-8,8v32c0,4.418,3.582,8,8,8h32
		c4.418,0,8-3.582,8-8v-32C192,203.582,188.418,200,184,200 M176,232h-16v-16h16V232z"/>
	<path clip-path="url(#SVGID_2_)" fill="#A2722B" d="M104,280H72c-4.418,0-8,3.582-8,8v32c0,4.418,3.582,8,8,8h32
		c4.418,0,8-3.582,8-8v-32C112,283.582,108.418,280,104,280 M96,312H80v-16h16V312z"/>
	<path clip-path="url(#SVGID_2_)" fill="#A2722B" d="M184,280h-32c-4.418,0-8,3.582-8,8v32c0,4.418,3.582,8,8,8h32
		c4.418,0,8-3.582,8-8v-32C192,283.582,188.418,280,184,280 M176,312h-16v-16h16V312z"/>
	<path clip-path="url(#SVGID_2_)" fill="#A2722B" d="M104,360H72c-4.418,0-8,3.582-8,8v32c0,4.418,3.582,8,8,8h32
		c4.418,0,8-3.582,8-8v-32C112,363.582,108.418,360,104,360 M96,392H80v-16h16V392z"/>
	<path clip-path="url(#SVGID_2_)" fill="#A2722B" d="M184,360h-32c-4.418,0-8,3.582-8,8v32c0,4.418,3.582,8,8,8h32
		c4.418,0,8-3.582,8-8v-32C192,363.582,188.418,360,184,360 M176,392h-16v-16h16V392z"/>
	<path clip-path="url(#SVGID_2_)" fill="#A2722B" d="M353.208,232.983l-40-6.112L295.242,188.6c-1.877-4-6.642-5.72-10.642-3.843
		c-1.689,0.793-3.049,2.153-3.843,3.843l-17.958,38.271l-40,6.112c-4.367,0.665-7.369,4.745-6.705,9.113
		c0.252,1.655,1.017,3.19,2.188,4.387l29.18,29.907l-6.899,42.326c-0.704,4.362,2.262,8.468,6.623,9.172
		c1.761,0.284,3.567-0.028,5.13-0.889L288,307.276l35.683,19.723c3.867,2.138,8.735,0.737,10.872-3.13
		c0.868-1.571,1.183-3.387,0.895-5.158l-6.901-42.326l29.181-29.907c3.088-3.16,3.03-8.225-0.13-11.313
		c-1.198-1.17-2.732-1.935-4.388-2.187L353.208,232.983z M314.274,268.1c-1.773,1.817-2.579,4.369-2.171,6.875l4.9,30.051
		l-25.135-13.9c-2.408-1.332-5.332-1.332-7.74,0l-25.136,13.9l4.899-30.051c0.409-2.506-0.396-5.058-2.17-6.875L240.6,246.448
		l28.832-4.4c2.638-0.403,4.901-2.094,6.033-4.509L288,210.828l12.535,26.706c1.133,2.415,3.395,4.106,6.033,4.509l28.833,4.4
		L314.274,268.1z"/>
	<path clip-path="url(#SVGID_2_)" fill="#A2722B" d="M424,280h-32c-4.418,0-8,3.582-8,8v32c0,4.418,3.582,8,8,8h32
		c4.418,0,8-3.582,8-8v-32C432,283.582,428.418,280,424,280 M416,312h-16v-16h16V312z"/>
	<path clip-path="url(#SVGID_2_)" fill="#A2722B" d="M424,360h-32c-4.418,0-8,3.582-8,8v32c0,4.418,3.582,8,8,8h32
		c4.418,0,8-3.582,8-8v-32C432,363.582,428.418,360,424,360 M416,392h-16v-16h16V392z"/>
	<path clip-path="url(#SVGID_2_)" fill="#A2722B" d="M344,360h-32c-4.418,0-8,3.582-8,8v32c0,4.418,3.582,8,8,8h32
		c4.418,0,8-3.582,8-8v-32C352,363.582,348.418,360,344,360 M336,392h-16v-16h16V392z"/>
</g>
</svg>
