<?xml version="1.0" encoding="utf-8"?>
<!-- Generator: Adobe Illustrator 17.0.0, SVG Export Plug-In . SVG Version: 6.00 Build 0)  -->
<!DOCTYPE svg PUBLIC "-//W3C//DTD SVG 1.1//EN" "http://www.w3.org/Graphics/SVG/1.1/DTD/svg11.dtd">
<svg version="1.1" id="Layer_1" xmlns="http://www.w3.org/2000/svg" xmlns:xlink="http://www.w3.org/1999/xlink" x="0px" y="0px"
	 width="512px" height="512px" viewBox="0 0 512 512" enable-background="new 0 0 512 512" xml:space="preserve">
<g>
	<defs>
		<rect id="SVGID_1_" y="0" width="512" height="512"/>
	</defs>
	<clipPath id="SVGID_2_">
		<use xlink:href="#SVGID_1_"  overflow="visible"/>
	</clipPath>
	<path clip-path="url(#SVGID_2_)" fill="#A2722B" d="M435.2,392.533c-23.526,0-42.667,19.141-42.667,42.667
		c0,23.528,19.14,42.667,42.667,42.667c23.525,0,42.667-19.139,42.667-42.667C477.867,411.674,458.725,392.533,435.2,392.533
		 M435.2,460.801c-14.114,0-25.601-11.486-25.601-25.601c0-14.113,11.487-25.599,25.601-25.599c14.114,0,25.6,11.486,25.6,25.599
		C460.8,449.315,449.314,460.801,435.2,460.801"/>
	<path clip-path="url(#SVGID_2_)" fill="#A2722B" d="M494.932,387.029V102.4c0-9.412-7.653-17.067-17.066-17.067h-85.333
		c-9.412,0-17.067,7.654-17.067,17.067v230.4c0,4.71,3.814,8.532,8.533,8.532h17.067c4.719,0,8.532-3.822,8.532-8.532
		c0-4.71-3.813-8.533-8.532-8.533h-8.533V307.2h8.533c4.719,0,8.532-3.823,8.532-8.533c0-4.711-3.813-8.533-8.532-8.533h-8.533
		v-17.067h25.6c4.718,0,8.533-3.823,8.533-8.533c0-4.71-3.815-8.534-8.533-8.534h-25.6v-17.067h8.533
		c4.719,0,8.532-3.823,8.532-8.533c0-4.71-3.813-8.533-8.532-8.533h-8.533V204.8h8.533c4.719,0,8.532-3.823,8.532-8.533
		c0-4.71-3.813-8.533-8.532-8.533h-8.533v-17.067h8.533c4.719,0,8.532-3.823,8.532-8.533c0-4.71-3.813-8.533-8.532-8.533h-8.533
		v-17.067h25.6c4.718,0,8.533-3.823,8.533-8.533c0-4.71-3.815-8.533-8.533-8.533h-25.6V102.4h85.333v268.988
		c-12.22-8.201-26.88-12.988-42.667-12.988c-42.352,0-76.8,34.458-76.8,76.8c0,15.778,4.796,30.455,12.979,42.667H136.533v-85.333
		H153.6v25.6c0,4.71,3.823,8.533,8.533,8.533c4.71,0,8.533-3.823,8.533-8.533v-25.6h17.067v8.533c0,4.71,3.823,8.533,8.533,8.533
		c4.71,0,8.533-3.823,8.533-8.533v-8.533h17.067v8.533c0,4.71,3.823,8.533,8.533,8.533c4.71,0,8.533-3.823,8.533-8.533v-8.533H256
		v8.533c0,4.71,3.823,8.533,8.533,8.533c4.719,0,8.533-3.823,8.533-8.533v-8.533h17.067v25.6c0,4.71,3.814,8.533,8.533,8.533
		c4.719,0,8.533-3.823,8.533-8.533v-25.6h17.066v8.533c0,4.71,3.815,8.533,8.534,8.533c4.718,0,8.533-3.823,8.533-8.533v-17.068
		c0-4.71-3.815-8.532-8.533-8.532H136.533c-9.89,0-17.067,7.177-17.067,17.067v85.333c0,9.89,7.177,17.067,17.067,17.067h250.496
		c13.184,10.649,29.935,17.065,48.171,17.065c42.351,0,76.8-34.457,76.8-76.799C512,416.964,505.583,400.222,494.932,387.029
		 M435.2,494.933c-32.931,0-59.733-26.795-59.733-59.733s26.802-59.733,59.733-59.733c32.93,0,59.732,26.795,59.732,59.733
		S468.13,494.933,435.2,494.933"/>
	<path clip-path="url(#SVGID_2_)" fill="#A2722B" d="M443.733,59.733c0-4.71-3.814-8.533-8.533-8.533H102.4
		C102.4,22.963,79.437,0,51.2,0S0,22.963,0,51.2v409.601C0,489.037,22.963,512,51.2,512h42.667c4.71,0,8.533-3.822,8.533-8.532
		c0-4.71-3.823-8.534-8.533-8.534H51.2c-18.825,0-34.133-15.308-34.133-34.132c0-18.825,15.309-34.133,34.133-34.133
		s34.133,15.308,34.133,34.133c0,4.71,3.823,8.533,8.533,8.533s8.533-3.823,8.533-8.533V68.267h332.8
		C439.919,68.267,443.733,64.444,443.733,59.733 M85.333,422.741C76.262,414.601,64.324,409.6,51.2,409.6
		s-25.062,5.001-34.133,13.141V51.2c0-18.825,15.309-34.133,34.133-34.133S85.333,32.375,85.333,51.2V422.741z"/>
	<path clip-path="url(#SVGID_2_)" fill="#A2722B" d="M326.767,116.966c1.664,1.664,3.85,2.5,6.033,2.5
		c2.186,0,4.369-0.836,6.033-2.5c3.337-3.337,3.337-8.73,0-12.066l-17.057-17.058c-0.795-0.794-1.733-1.417-2.782-1.852
		c-2.082-0.862-4.438-0.862-6.52,0c-1.05,0.435-1.987,1.058-2.781,1.852L292.634,104.9c-3.337,3.337-3.337,8.73,0,12.066
		c3.337,3.336,8.731,3.336,12.067,0l2.5-2.5V312.2l-2.5-2.5c-3.337-3.336-8.731-3.336-12.067,0c-3.337,3.337-3.337,8.73,0,12.066
		l17.059,17.058c0.794,0.794,1.731,1.417,2.781,1.852c1.041,0.435,2.15,0.658,3.261,0.658c1.108,0,2.219-0.223,3.26-0.658
		c1.049-0.435,1.988-1.058,2.782-1.852l17.057-17.058c3.337-3.337,3.337-8.73,0-12.066c-3.336-3.336-8.729-3.336-12.066,0l-2.5,2.5
		V114.466L326.767,116.966z"/>
</g>
</svg>
