<?xml version="1.0" encoding="utf-8"?>
<!-- Generator: Adobe Illustrator 17.0.0, SVG Export Plug-In . SVG Version: 6.00 Build 0)  -->
<!DOCTYPE svg PUBLIC "-//W3C//DTD SVG 1.1//EN" "http://www.w3.org/Graphics/SVG/1.1/DTD/svg11.dtd">
<svg version="1.1" id="Layer_1" xmlns="http://www.w3.org/2000/svg" xmlns:xlink="http://www.w3.org/1999/xlink" x="0px" y="0px"
	 width="342.482px" height="304.493px" viewBox="0 0 342.482 304.493" enable-background="new 0 0 342.482 304.493"
	 xml:space="preserve">
<g>
	<defs>
		<rect id="SVGID_1_" width="342.482" height="304.493"/>
	</defs>
	<clipPath id="SVGID_2_">
		<use xlink:href="#SVGID_1_"  overflow="visible"/>
	</clipPath>
	<path clip-path="url(#SVGID_2_)" fill="#A2722B" d="M340.101,137.223l-39.289-87.558c-4.416-9.844-13.853-15.959-24.629-15.959
		c-11.446,0-21.404,6.929-25.368,17.653l-32.361,87.559c-3.063,8.286-1.876,17.561,3.173,24.81
		c5.05,7.249,13.338,11.577,22.173,11.577h28.326v27.337h-18.571c-4.143,0-7.5,3.357-7.5,7.5v61.04
		c0,18.367,14.943,33.311,33.311,33.311h0.521c18.367,0,33.311-14.943,33.311-33.311v-61.04c0-4.143-3.357-7.5-7.5-7.5h-18.571
		v-27.337h28.321c9.202,0,17.683-4.612,22.684-12.337C343.131,155.243,343.867,145.619,340.101,137.223 M298.197,271.181
		c0,10.097-8.214,18.311-18.311,18.311h-0.521c-10.097,0-18.311-8.214-18.311-18.311v-53.54h37.143V271.181z M325.539,154.816
		c-2.259,3.488-5.937,5.488-10.092,5.488H243.8c-3.99,0-7.585-1.877-9.865-5.15c-2.278-3.272-2.793-7.296-1.41-11.037l32.361-87.558
		c2.14-5.791,7.239-7.854,11.298-7.854c4.858,0,8.949,2.653,10.944,7.1l39.287,87.559
		C328.116,147.154,327.796,151.329,325.539,154.816"/>
	<path clip-path="url(#SVGID_2_)" fill="#A2722B" d="M229.92,217.641c4.144,0,7.5-3.357,7.5-7.5c0-4.144-3.356-7.5-7.5-7.5H116.197
		c-4.143,0-7.5,3.356-7.5,7.5v79.688c0,4.143,3.357,7.5,7.5,7.5H229.92c4.144,0,7.5-3.357,7.5-7.5s-3.356-7.5-7.5-7.5H123.697
		v-64.688H229.92z"/>
	<path clip-path="url(#SVGID_2_)" fill="#A2722B" d="M229.92,181.008h-39.162V116.32h28.577c4.143,0,7.5-3.357,7.5-7.5
		c0-4.144-3.357-7.5-7.5-7.5h-36.077c-4.143,0-7.5,3.356-7.5,7.5v79.688c0,4.143,3.357,7.5,7.5,7.5h46.662
		c4.144,0,7.5-3.357,7.5-7.5C237.42,184.364,234.064,181.008,229.92,181.008"/>
	<path clip-path="url(#SVGID_2_)" fill="#A2722B" d="M116.197,94.687h104.468c4.143,0,7.5-3.357,7.5-7.5c0-4.143-3.357-7.5-7.5-7.5
		h-96.968V15h191.275v46.154c0,4.143,3.357,7.5,7.5,7.5c4.143,0,7.5-3.357,7.5-7.5V7.5c0-4.143-3.357-7.5-7.5-7.5H116.197
		c-4.143,0-7.5,3.357-7.5,7.5v79.688C108.697,91.33,112.055,94.687,116.197,94.687"/>
	<path clip-path="url(#SVGID_2_)" fill="#A2722B" d="M168.546,188.508V108.82c0-4.143-3.357-7.5-7.5-7.5H7.5
		c-4.143,0-7.5,3.357-7.5,7.5v79.688c0,4.143,3.357,7.5,7.5,7.5h153.546C165.188,196.008,168.546,192.651,168.546,188.508
		 M153.546,181.008H15V116.32h138.546V181.008z"/>
</g>
</svg>
