<?xml version="1.0" encoding="utf-8"?>
<!-- Generator: Adobe Illustrator 17.0.0, SVG Export Plug-In . SVG Version: 6.00 Build 0)  -->
<!DOCTYPE svg PUBLIC "-//W3C//DTD SVG 1.1//EN" "http://www.w3.org/Graphics/SVG/1.1/DTD/svg11.dtd">
<svg version="1.1" id="Layer_1" xmlns="http://www.w3.org/2000/svg" xmlns:xlink="http://www.w3.org/1999/xlink" x="0px" y="0px"
	 width="512.001px" height="479.855px" viewBox="0 0 512.001 479.855" enable-background="new 0 0 512.001 479.855"
	 xml:space="preserve">
<g>
	<defs>
		<rect id="SVGID_1_" width="512.001" height="479.855"/>
	</defs>
	<clipPath id="SVGID_2_">
		<use xlink:href="#SVGID_1_"  overflow="visible"/>
	</clipPath>
	<path clip-path="url(#SVGID_2_)" fill="#A2722B" d="M166.285,409.986H447.93c4.143,0,7.5-3.358,7.5-7.5s-3.357-7.5-7.5-7.5H166.285
		c-4.143,0-7.5,3.358-7.5,7.5C158.785,406.629,162.143,409.986,166.285,409.986"/>
	<path clip-path="url(#SVGID_2_)" fill="#A2722B" d="M166.285,158.43h24.679c4.143,0,7.5-3.358,7.5-7.5c0-4.142-3.357-7.5-7.5-7.5
		h-24.679c-4.143,0-7.5,3.358-7.5,7.5C158.785,155.073,162.143,158.43,166.285,158.43"/>
	<path clip-path="url(#SVGID_2_)" fill="#A2722B" d="M166.285,221.319h24.679c4.143,0,7.5-3.358,7.5-7.5c0-4.142-3.357-7.5-7.5-7.5
		h-24.679c-4.143,0-7.5,3.358-7.5,7.5C158.785,217.962,162.143,221.319,166.285,221.319"/>
	<path clip-path="url(#SVGID_2_)" fill="#A2722B" d="M166.285,284.209h24.679c4.143,0,7.5-3.357,7.5-7.5c0-4.142-3.357-7.5-7.5-7.5
		h-24.679c-4.143,0-7.5,3.358-7.5,7.5C158.785,280.851,162.143,284.209,166.285,284.209"/>
	<path clip-path="url(#SVGID_2_)" fill="#A2722B" d="M166.285,347.098h24.679c4.143,0,7.5-3.358,7.5-7.5c0-4.143-3.357-7.5-7.5-7.5
		h-24.679c-4.143,0-7.5,3.357-7.5,7.5C158.785,343.74,162.143,347.098,166.285,347.098"/>
	<path clip-path="url(#SVGID_2_)" fill="#A2722B" d="M255.034,347.098h156.922c7.786,0,14.12-6.334,14.12-14.121V215.519h9.371
		c4.261,0,7.979-2.734,9.25-6.803c1.272-4.071-0.228-8.438-3.732-10.866l-101.953-70.643c-3.256-2.257-7.776-2.257-11.035,0
		L226.025,197.85c-3.504,2.429-5.004,6.796-3.73,10.867c1.271,4.068,4.988,6.801,9.249,6.801h9.371v117.459
		C240.914,340.764,247.248,347.098,255.034,347.098 M351.793,332.098h-36.596v-63.406h36.596V332.098z M411.077,332.098h-0.001
		h-44.283v-64.62c0-7.601-6.184-13.785-13.785-13.785h-39.025c-7.602,0-13.785,6.184-13.785,13.785v64.621h-44.283v-116.58h155.162
		V332.098z M333.495,141.633l84.983,58.886H248.511L333.495,141.633z"/>
	<path clip-path="url(#SVGID_2_)" fill="#A2722B" d="M504.501,121.795c4.143,0,7.5-3.358,7.5-7.5V86.911
		c0-14.943-12.135-27.1-27.05-27.1H118.689v-0.334C118.689,26.682,92.068,0,59.345,0S0.001,26.682,0.001,59.477V294.1
		c0,4.142,3.357,7.5,7.5,7.5s7.5-3.358,7.5-7.5V59.477C15.001,34.953,34.894,15,59.345,15c24.451,0,44.344,19.952,44.344,44.477
		v7.834v313.544c-1.031-1.157-2.112-2.281-3.242-3.369c-10.331-9.946-23.547-15.68-37.674-16.474
		c-0.291-0.017-0.586-0.02-0.878-0.032c-0.74-0.031-1.48-0.058-2.224-0.061c-0.109-0.001-0.216-0.009-0.326-0.009
		c-0.316,0-0.627,0.021-0.943,0.026c-0.454,0.007-0.906,0.001-1.362,0.018c-0.183,0.007-0.362,0.025-0.545,0.034
		c-0.402,0.018-0.801,0.048-1.202,0.075c-0.629,0.043-1.256,0.092-1.88,0.154c-0.418,0.043-0.834,0.09-1.25,0.141
		c-0.581,0.071-1.158,0.15-1.734,0.239c-0.455,0.069-0.909,0.14-1.36,0.219c-0.497,0.088-0.991,0.187-1.484,0.287
		c-0.52,0.105-1.039,0.209-1.554,0.328c-0.344,0.08-0.683,0.171-1.025,0.256c-11.777,2.941-22.181,9.396-30.006,18.214v-56.384
		c0-4.142-3.357-7.5-7.5-7.5s-7.5,3.358-7.5,7.5v95.864c0,0.094,0.01,0.184,0.014,0.276c0.061,15.402,5.904,29.884,16.626,41.018
		c11.287,11.724,26.453,18.18,42.704,18.18h425.607c14.915,0,27.05-12.157,27.05-27.101V145.535c0-4.142-3.357-7.5-7.5-7.5
		c-4.143,0-7.5,3.358-7.5,7.5v307.218c0,6.672-5.405,12.101-12.05,12.101H59.345c-12.137,0-23.465-4.824-31.899-13.583
		c-8.332-8.654-12.722-20.02-12.415-32.057c0.007-0.253,0.008-0.508,0.019-0.762c0.018-0.436,0.05-0.869,0.081-1.302
		c0.022-0.308,0.042-0.616,0.07-0.921c0.038-0.414,0.088-0.825,0.137-1.236c0.037-0.309,0.074-0.618,0.118-0.925
		c0.06-0.423,0.13-0.844,0.202-1.264c0.048-0.278,0.096-0.557,0.149-0.835c0.087-0.453,0.183-0.904,0.284-1.353
		c0.051-0.226,0.102-0.452,0.156-0.677c0.121-0.5,0.25-0.996,0.388-1.49c0.044-0.157,0.088-0.314,0.133-0.47
		c0.162-0.557,0.333-1.109,0.516-1.656l0.078-0.232c4.214-12.364,13.747-22.331,25.817-27.109c0.058-0.023,0.116-0.046,0.175-0.069
		c0.537-0.21,1.081-0.408,1.628-0.596c0.154-0.053,0.308-0.106,0.463-0.158c0.47-0.157,0.944-0.304,1.42-0.446
		c0.24-0.07,0.481-0.139,0.723-0.207c0.408-0.112,0.819-0.22,1.232-0.322c0.317-0.078,0.636-0.151,0.956-0.222
		c0.355-0.08,0.711-0.155,1.069-0.226c0.38-0.074,0.762-0.141,1.145-0.206c0.315-0.053,0.631-0.107,0.948-0.153
		c0.422-0.061,0.846-0.113,1.271-0.163c0.295-0.033,0.59-0.07,0.887-0.098c0.434-0.042,0.871-0.071,1.308-0.1
		c0.304-0.02,0.606-0.043,0.912-0.057c0.401-0.018,0.804-0.023,1.208-0.031c0.358-0.007,0.717-0.016,1.074-0.015
		c0.44,0.003,0.877,0.018,1.313,0.033c0.302,0.01,0.604,0.016,0.905,0.033c0.542,0.029,1.081,0.073,1.618,0.124
		c0.181,0.016,0.364,0.028,0.544,0.047c0.701,0.073,1.398,0.161,2.089,0.267c0.009,0.001,0.017,0.002,0.026,0.003
		c19.779,3.042,35.294,19.239,37.36,39.375c0.153,1.514,0.231,3.043,0.231,4.588c0,0.058,0.011,0.112,0.013,0.167
		c0.006,0.266,0.026,0.527,0.059,0.785c0.015,0.116,0.033,0.231,0.053,0.344c0.045,0.257,0.102,0.508,0.172,0.754
		c0.02,0.069,0.035,0.14,0.057,0.209c0.089,0.282,0.199,0.556,0.32,0.822c0.043,0.097,0.09,0.191,0.137,0.285
		c0.115,0.228,0.24,0.45,0.377,0.664c0.043,0.067,0.083,0.134,0.127,0.201c0.16,0.234,0.337,0.455,0.522,0.669
		c0.073,0.084,0.147,0.165,0.224,0.246c0.18,0.189,0.368,0.371,0.566,0.541c0.063,0.054,0.126,0.107,0.191,0.16
		c0.219,0.176,0.45,0.337,0.689,0.487c0.081,0.052,0.161,0.101,0.244,0.149c0.277,0.161,0.562,0.308,0.86,0.433
		c0.008,0.003,0.015,0.009,0.023,0.013c0.028,0.012,0.057,0.017,0.085,0.027c0.275,0.111,0.559,0.202,0.85,0.28
		c0.081,0.02,0.161,0.043,0.242,0.061c0.311,0.073,0.627,0.131,0.952,0.162c0.05,0.006,0.099,0.004,0.149,0.008
		c0.196,0.016,0.393,0.029,0.594,0.029c0.081,0,0.159-0.009,0.239-0.011c0.094-0.003,0.187-0.008,0.281-0.014
		c0.305-0.021,0.607-0.057,0.901-0.112c0.017-0.003,0.035-0.004,0.052-0.008c0.329-0.066,0.648-0.158,0.96-0.266
		c0.061-0.02,0.12-0.043,0.18-0.065c0.294-0.109,0.581-0.233,0.856-0.377c0.02-0.011,0.041-0.02,0.061-0.029
		c0.292-0.157,0.569-0.334,0.836-0.527c0.06-0.043,0.119-0.088,0.178-0.133c0.265-0.203,0.522-0.416,0.757-0.651
		c0.001-0.001,0.002-0.002,0.003-0.004c0.018-0.017,0.033-0.037,0.051-0.056c0.153-0.157,0.301-0.317,0.44-0.487
		c0.045-0.054,0.083-0.112,0.126-0.169c0.107-0.137,0.214-0.274,0.311-0.42c0.034-0.05,0.062-0.104,0.095-0.155
		c0.099-0.156,0.197-0.312,0.284-0.475c0.019-0.037,0.035-0.075,0.053-0.111c0.094-0.181,0.183-0.365,0.262-0.555
		c0.01-0.023,0.017-0.048,0.027-0.074c0.081-0.201,0.157-0.405,0.221-0.615c0.008-0.027,0.013-0.055,0.021-0.081
		c0.06-0.206,0.115-0.415,0.158-0.628c0.013-0.063,0.018-0.128,0.029-0.192c0.031-0.177,0.062-0.354,0.08-0.536
		c0.025-0.249,0.038-0.499,0.038-0.75V74.81h366.261c6.645,0,12.05,5.428,12.05,12.1v27.384
		C497.001,118.438,500.358,121.795,504.501,121.795"/>
</g>
</svg>
