<?xml version="1.0" encoding="utf-8"?>
<!-- Generator: Adobe Illustrator 23.0.1, SVG Export Plug-In . SVG Version: 6.00 Build 0)  -->
<svg version="1.1" id="Layer_1" xmlns="http://www.w3.org/2000/svg" xmlns:xlink="http://www.w3.org/1999/xlink" x="0px" y="0px"
	 viewBox="0 0 116.1 116.2" style="enable-background:new 0 0 116.1 116.2;" xml:space="preserve">
<style type="text/css">
	.st0{clip-path:url(#SVGID_2_);fill:#CE0025;}
</style>
<g>
	<defs>
		<rect id="SVGID_1_" y="0" width="116.1" height="116.2"/>
	</defs>
	<clipPath id="SVGID_2_">
		<use xlink:href="#SVGID_1_"  style="overflow:visible;"/>
	</clipPath>
	<path class="st0" d="M42.5,93c0.2-0.1,0.4-0.1,0.5-0.3c0.2-0.4,0.4-0.8,0.6-1.2c0-0.3,0.1-0.5-0.1-0.7c-0.2-0.1-0.6-0.1-0.7,0.1
		c-0.4,0.5-0.7,1-0.8,1.6C41.9,92.8,42.3,93.1,42.5,93 M39.7,97.4c0.1-0.7,0.4-1.3,0.9-1.8c0.1-0.1,0.4-0.1,0.6-0.1
		c0.2,0,0.4,0.3,0.3,0.4c-0.2,0.6-0.4,1.2-0.8,1.6c-0.1,0.1-0.3,0.2-0.6,0.3C39.9,97.7,39.7,97.5,39.7,97.4 M90.6,97.5
		c0.4-0.5,0.7-1,0.8-1.6c0-0.2-0.1-0.4-0.4-0.4c-0.3,0-0.6,0-0.7,0.3c-0.3,0.5-0.5,1-0.7,1.5c-0.1,0.2,0.2,0.6,0.6,0.5
		C90.2,97.7,90.4,97.6,90.6,97.5 M92.1,93c-0.2,0-0.4-0.2-0.4-0.4c0.1-0.6,0.4-1.2,0.8-1.6c0.1-0.1,0.4-0.2,0.5-0.2
		c0.2,0,0.4,0.2,0.4,0.8c0,0.2-0.2,0.8-0.8,1.3C92.6,93,92.3,93,92.1,93 M16.5,97.7c1.4-3,2.8-5.9,4.2-8.9c0.1-0.3,0.3-0.6,0.5-0.9
		c0.4-0.6,1-1,1.7-1c0.5,0,1,0,1.5,0c1.7,0,3.5,0,5.2,0c0.5,0,1,0,1.5,0c0.3,0,0.6-0.2,0.7-0.4c0.7-1.4,1.3-2.8,2-4.2
		c0.1-0.2-0.1-0.4-0.3-0.5c-0.3,0-0.7-0.1-1-0.1c-1.7,0-3.4,0-5,0c-2.2,0-4.3,0-6.5,0c-1.7,0-2.7,0.5-3.4,2.1
		c-2.5,5.4-5.1,10.8-7.7,16.3c-0.2,0.5-0.5,1-0.6,1.5c-0.7,1.9,0.4,4.2,2.5,4.8c0.5,0.1,1.1,0.2,1.7,0.2c2,0,3.9,0,5.9,0H22
		c0.2-0.2,0.4-0.4,0.5-0.5c0.6-1.2,1.1-2.4,1.7-3.6c0-0.1,0-0.1,0.1-0.2c0.1-0.3-0.1-0.6-0.3-0.6c-0.5,0-1-0.1-1.5-0.1
		c-1.3,0-2.5,0-3.8,0c-0.5,0-1-0.1-1.4-0.3c-1-0.4-1.5-1.6-1.2-2.6C16.2,98.4,16.3,98.1,16.5,97.7 M100.6,95.5
		c0,0.2,0.1,0.3,0.1,0.4c-0.1,0.3-0.2,0.7-0.4,1c-1.4,3-2.8,5.9-4.2,8.9c-0.1,0.2-0.3,0.5-0.3,0.6c-0.4,0.3-0.7,0.3-0.9,0.3
		c-0.5,0-1,0-1.5,0c-21.6,0-43.3,0-64.9,0c-0.7,0-1.4,0-2.1-0.1c-0.1,0-0.2-0.2-0.2-0.3c0-0.1,0-0.3,0.1-0.4
		c1.5-3.3,3.1-6.6,4.6-9.8c0.1-0.2,0.3-0.3,0.4-0.5c1.6-0.2,3.2-0.1,4.8,0c0.3,0,0.5,0.3,0.3,0.6c-0.3,0.7-0.6,1.4-0.9,2.1
		c-0.2,0.5-0.5,1-0.7,1.5c-0.3,0.9,0.2,1.7,1.1,1.9c0.1,0,0.3,0.1,0.4,0.1c1.4,0,2.8,0,4.2,0c0.1,0,0.3,0,0.4,0
		c1.1-0.2,2-0.7,2.5-1.7c0.5-1.1,1-2.1,1.5-3.2c0.2-0.3,0.3-0.6,0.5-0.9c0.1-0.3,0.6-0.4,0.9-0.3c0.1,0,0.2,0.2,0.2,0.3
		c0,0.2-0.1,0.4-0.2,0.6c-0.6,1.2-1.1,2.4-1.7,3.6c-0.1,0.3-0.3,0.6-0.4,1c-0.1,0.2,0.1,0.6,0.4,0.6c0.7,0,1.4,0,2.1,0
		c0.5,0,0.8-0.2,1-0.6c0.6-1.3,1.2-2.5,1.8-3.8c0.1-0.2,0.3-0.5,0.4-0.7c0,0,0.1-0.1,0.2-0.1c0,0,0.1,0,0.1,0.1
		c0.1,0.8,0.3,1.6,0.4,2.5c0.1,0.6,0.1,1.3,0.1,1.9c0,0.4,0.4,0.7,0.8,0.8c0.1,0,0.1,0,0.2,0c2.8,0,2.4,0.2,3.5-2
		c0.6-1.2,1.2-2.5,1.8-3.8c0.1-0.3,0.5-0.4,0.9-0.3c0.1,0,0.3,0.2,0.3,0.3c0,0.3-0.1,0.6-0.2,0.8c-0.6,1.3-1.2,2.5-1.8,3.8
		c-0.1,0.2-0.2,0.5-0.3,0.8c0,0.1,0.2,0.5,0.4,0.5c0.9,0,1.8,0,2.7,0c0.3,0,0.5-0.2,0.7-0.5c0.4-0.7,0.8-1.5,1.1-2.2
		c0.5-1,1-2,1.5-3c0.2-0.5,0.5-0.5,1.3-0.2c-0.2,0.8-0.6,1.5-1,2.3c-0.4,1-0.9,2-1.4,3.1c-0.1,0.2,0.1,0.5,0.3,0.5
		c0.1,0,0.1,0.1,0.2,0.1c0.1,0,0.3,0,0.4,0c2.5,0,2.1,0.2,3.2-1.9c0.5-1.1,1-2.1,1.5-3.2c0-0.1,0.2-0.1,0.4-0.1c0,0,0.1,0.1,0.1,0.1
		c0.1,0.6,0.1,1.1,0.1,1.7c0,0.3,0,0.7,0.1,1c0.3,2.5,0,2.4,2.8,2.4c0.6,0,1-0.3,1.3-0.8c0.7-1.5,1.4-2.9,2.1-4.3
		c0.1-0.3,0.2-0.5,0.4-0.7c0.2-0.2,0.4-0.3,0.7-0.3c0.2,0,0.4,0.2,0.4,0.4c-0.3,0.8-0.7,1.5-1,2.3c-0.2,0.6-0.5,1.1-0.7,1.7
		c-0.2,0.6,0.1,1.3,0.8,1.5c0.3,0.1,0.7,0.2,1,0.2c1.6,0,3.2,0,4.8,0c0.3,0,0.6,0,0.8-0.1c0.9-0.2,1.6-0.6,2-1.4
		c0.6-1.1,1.1-2.3,1.6-3.4c0.1-0.2-0.1-0.6-0.4-0.6c-0.6,0-1.3,0-1.9-0.1c-0.7,0-1.2,0.2-1.5,0.9c-0.1,0.2-0.4,0.4-0.6,0.6
		c-0.3,0.2-0.7,0.3-1,0.1c-0.3-0.1-0.5-0.6-0.4-0.9c0.1-0.5,0.3-0.9,0.7-1.3c1.6-0.2,4.9-0.2,6.7,0c0,0.2,0.1,0.4,0,0.6
		c-0.4,1-0.9,2-1.4,3.1c-0.1,0.3-0.2,0.7-0.3,1c-0.1,0.4,0.2,1,0.7,1.2c0.3,0.1,0.7,0.3,1,0.3c1.4,0,2.8,0,4.2,0
		c0.3,0,0.7-0.1,1-0.2c0.7-0.2,1.3-0.6,1.6-1.2c0.3-0.6,0.6-1.2,0.9-1.9c0.5-0.9,0.9-1.9,1.3-2.8c0.3-0.1,0.5-0.2,0.7-0.2
		c1.3,0,2.7,0,4,0C100.2,95.4,100.4,95.5,100.6,95.5 M104.6,81.8c-21.4,0-42.9,0-64.3,0c-0.6,0-1.1,0-1.7,0c-0.2,0-0.4,0-0.6,0.1
		c-0.2,0.1-0.4,0.2-0.5,0.3c-0.2,0.3-0.4,0.6-0.5,0.9c-1.4,2.9-2.8,5.8-4.1,8.7c-0.1,0.3-0.3,0.6-0.4,0.9c0.2,0.3,0.4,0.4,0.7,0.4
		c1,0,2,0,2.9,0c1.7,0,1.7,0,2.4-1.5c0.5-1,0.9-2,1.4-3c0.5-1.1,1.4-1.7,2.6-1.7c1.5,0,3.1,0,4.6,0c0.2,0,0.4,0,0.6,0.1
		c0.5,0.1,1,0.8,0.9,1.3c-0.1,0.3-0.2,0.7-0.3,1c-0.4,1-0.9,2-1.4,3c-0.1,0.3,0,0.6,0.2,0.7c0.2,0.1,0.7-0.1,0.8-0.2
		c0.2-0.3,0.3-0.6,0.5-0.9c0.6-1.3,1.2-2.5,1.8-3.8c0.4-0.9,1-1.2,2-1.2c0.6,0.1,1.1,0,1.7,0.1c0.2,0,0.5,0.3,0.5,0.6
		c0.1,0.8,0.1,1.5,0.2,2.3c0.1,0.7,0,1.4,0.3,2c0,0,0.1,0.1,0.1,0.1c0.1,0,0.2,0,0.2-0.1c0.2-0.2,0.3-0.5,0.4-0.7
		c0.6-1.2,1.1-2.4,1.7-3.6c0.2-0.4,0.5-0.7,1-0.7c0.7,0,1.4,0,2.1,0c0.1,0,0.1,0,0.2,0.1c0.2,0,0.3,0.3,0.3,0.5
		c-0.5,1-0.9,2-1.4,3.1c-0.3,0.6-0.6,1.3-0.8,1.9C58.7,92.6,58.9,93,59,93c0.2,0,0.4,0,0.6-0.1c0.2-0.1,0.3-0.3,0.4-0.5
		c0.5-1,1-2,1.5-3c0.3-0.7,0.7-1.4,1-2.1c0.1-0.3,0.4-0.4,0.7-0.4c0.9,0,1.8,0,2.7,0c0.3,0,0.5,0.3,0.3,0.6c-0.5,1.1-1,2.2-1.5,3.2
		c-0.3,0.6-0.5,1.1-0.8,1.7c0,0.1,0,0.3,0.1,0.4c0.1,0.1,0.4,0.2,0.6,0.1c0.3-0.1,0.5-0.3,0.6-0.5c0.6-1.1,1.1-2.3,1.6-3.4
		c1.3-2.5,0.7-2.2,3.6-2.2c0.1,0,0.3,0,0.4,0c0.3,0,0.5,0.2,0.6,0.5c0.1,0.9,0.2,1.8,0.3,2.7c0.1,0.6,0.1,1.1,0.2,1.7
		c0,0,0.1,0.1,0.1,0.1c0.1,0,0.3,0,0.4-0.1c0.5-0.9,0.9-1.9,1.4-2.8c0.3-0.7,0.6-1.4,1.1-2c0.9-0.1,1.9-0.2,2.9,0
		c0.1,0,0.2,0.2,0.2,0.3c0,0.2,0,0.4-0.1,0.6c-0.4,1-0.9,1.9-1.3,2.8c-0.3,0.6-0.5,1.1-0.8,1.7c-0.1,0.2,0,0.5,0.2,0.5
		c0.2,0,0.4,0.1,0.6,0c0.2-0.1,0.4-0.2,0.4-0.4c0.3-0.6,0.6-1.2,0.9-1.9c0.4-0.8,0.8-1.6,1.2-2.4c0.5-0.8,1.2-1.3,2.2-1.3
		c2,0,3.9,0,5.9,0c0.1,0,0.1,0,0.2,0c0.7,0.1,1.4,0.8,1.1,1.7c-0.2,0.6-0.5,1.2-0.8,1.7c-1.1,2.3-0.8,2.1-3.5,2
		c-0.1,0-0.3,0-0.4-0.1c-0.2,0-0.3-0.2-0.4-0.4c-0.1-0.2-0.1-0.4-0.1-0.6c-0.1-0.3-0.5-0.6-0.8-0.5c-0.4,0-0.8,0.2-1.1,0.5
		c-0.2,0.4-0.4,0.9-0.6,1.3c-0.1,0.2,0.1,0.4,0.3,0.4c0.5,0,1,0.1,1.5,0.1c1.5,0,2.9,0,4.4,0c0.5,0,0.8-0.2,1-0.6
		c0.2-0.4,0.4-0.9,0.6-1.3c0.5-0.9,0.9-1.9,1.4-2.8c0.5-0.9,1.3-1.4,2.4-1.5c1.6,0,3.2,0,4.8,0c0.1,0,0.3,0,0.4,0.1
		c0.6,0.1,1.1,0.8,1,1.4c-0.1,0.3-0.1,0.5-0.2,0.8c-0.4,0.8-0.8,1.6-1.2,2.5c-0.1,0.3-0.2,0.5-0.3,0.8C96.8,92.7,97,93,97.3,93
		c0.1,0,0.1,0.1,0.2,0.1c1.3,0,2.7,0,4,0c0.4,0,0.7-0.2,0.9-0.5c0.1-0.2,0.3-0.5,0.4-0.7c1.4-2.9,2.7-5.8,4.1-8.7
		c0.1-0.3,0.3-0.6,0.4-1c-0.2-0.1-0.4-0.3-0.5-0.3C106,81.8,105.3,81.8,104.6,81.8 M48.8,18.6c0-0.1-0.1-0.2-0.1-0.4
		c0-0.1,0-0.1,0.1-0.2c1-1.4,2-2.8,3-4.1c0.6-0.3,1.2-0.2,1.7-0.2c2.9,0,5.9,0,8.8,0c2,0,1.8,0.1,2.8-1.6c0.3-0.5,0.5-1.1,1.1-1.5
		c0.6,0,1,0.4,1.5,0.7c1,0.7,2.2,1.2,3.1,2.1c0,0,0,0.1,0.1,0.3c-0.9,1.5-1.8,3.1-2.7,4.7c-0.1,0.1-0.2,0.2-0.3,0.3
		C66.1,18.7,50.7,18.7,48.8,18.6 M42.6,26.9C43,27,43.5,27,43.9,27c9.5,0,19,0,28.5,0c0.6,0,1.1,0,1.6,0c0.8-1.1,4-6.7,4.8-8.5
		c-0.2-0.2-0.3-0.4-0.6-0.5c-2.3-1.6-3.1-2-4.2-2.4c-0.2,0.3-0.4,0.6-0.6,0.9c-0.7,1.2-1.4,2.4-2.1,3.6c-1.2,2.2-0.9,1.9-3.4,2
		c-6.6,0-13.3,0-19.9,0c-0.6,0-1.3,0-1.9,0c-0.4,0-0.7,0.2-0.9,0.5c-0.9,1.3-1.9,2.6-2.8,3.9c0,0.1-0.1,0.1-0.1,0.2
		C42.5,26.7,42.6,26.9,42.6,26.9 M36.3,35c0-0.1,0-0.1,0.1-0.2c1-1.5,2.1-3,3.2-4.3c0.9-0.2,1.8-0.1,2.6-0.1c10.5,0,21.1,0,31.6,0
		c0.7,0,1.4,0,2.1,0c0.4,0,0.7-0.2,0.9-0.5c0.3-0.5,0.6-1,0.8-1.4c1.3-2.2,2.5-4.5,3.8-6.8c0.2-0.3,0.4-0.6,0.6-0.8
		c0.1-0.1,0.2-0.1,0.4-0.1c0.1,0,0.1,0,0.2,0.1c1.3,0.8,2.6,1.6,3.9,2.5c0.2,0.2,0.3,0.5,0.2,0.7c-0.7,1.3-1.4,2.6-2.1,3.8
		c-1.1,2-2.2,4-3.4,6c-0.3,0.5-0.6,1-0.9,1.6c-0.7,0-1.3,0-1.8,0c-13.5,0-27,0-40.4,0c-0.5,0-1,0-1.5-0.1
		C36.4,35.4,36.4,35.2,36.3,35 M32.4,43.8c17.2,0,34.5,0,51.7,0c0.4,0,0.8,0,1.3,0c0.3,0,0.7,0.1,1.1-0.2c0.1-0.1,0.2-0.3,0.3-0.4
		c2.6-4.7,5.2-9.4,7.9-14.1c0.1-0.1,0.1-0.3,0.1-0.5c-0.2-0.2-0.3-0.4-0.6-0.5c-0.8-0.5-1.6-1.1-2.5-1.6c-1.8-1.1-1.6-1.1-2.6,0.7
		c-2,3.5-3.9,7.1-5.9,10.6c-0.4,0.7-0.8,1.1-1.6,1c-0.6,0-1.3,0-1.9,0H44.3c-2.9,0-5.9,0-8.8,0c-0.7,0-1.4-0.1-2.1,0.2
		c-1.1,1.3-2.1,2.7-3.1,4.2c-0.1,0.1-0.1,0.3-0.1,0.4c0,0.1,0.1,0.1,0.1,0.3C31,43.8,31.7,43.8,32.4,43.8 M24.1,51.7
		c1-1.4,2-2.7,3-4.1c0.2-0.2,0.4-0.3,0.7-0.4c0.7,0,1.4,0,2.1,0c18.8,0,37.6,0,56.4,0c0.8,0,1.7,0.1,2.6-0.2c0.3-0.5,0.6-1,0.9-1.5
		c2.1-3.8,4.2-7.5,6.3-11.3c0.5-0.9,1-1.8,1.6-2.7c0.4-0.7,0.7-0.7,1.4-0.3c0.5,0.3,1.1,0.7,1.6,1c2.7,1.8,2.5,1.1,1,3.9
		c-2.7,4.8-5.4,9.6-8.1,14.4c-0.3,0.5-0.6,1.1-1,1.7c-0.4,0-0.7,0.1-1,0.1c-0.5,0-1,0-1.5,0c-21.2,0-42.5,0-63.7,0
		c-0.7,0-1.4,0-2.1-0.1C24,52.1,23.9,51.8,24.1,51.7 M110.6,47c-0.2,0.3-0.3,0.6-0.5,0.9c-2.6,4.7-5.3,9.4-7.9,14.1
		c-0.3,0.5-0.5,1-0.8,1.4c-0.2,0.4-0.6,0.6-1.1,0.6c-0.7,0-1.4,0-2.1,0H51.1c-11.2,0-22.4,0-33.5,0c-0.8,0-1.7-0.1-2.6,0.1
		c-1.1,1.4-2.2,2.8-3.2,4.4c-0.1,0.2,0,0.5,0.2,0.5c0.6,0,1.1,0.1,1.7,0.1c3.8,0,7.7,0,11.5,0h76.9h2.6c0.4-0.6,0.7-1.1,0.9-1.6
		c1.4-2.5,2.8-5,4.2-7.5c0.2-0.3,0.4-0.6,0.6-0.9c0,0,0.1-0.1,0.2-0.1c0.1,0,0.3,0.1,0.3,0.2c0.1,0.1,0.1,0.3,0.1,0.4
		c0,1.7,0,3.4,0,5c0,0.5-0.1,1-0.3,1.4c-1.1,1.9-2.2,3.9-3.3,5.8c-0.2,0.3-0.5,0.5-0.9,0.5c-0.8,0-1.5,0-2.3,0
		c-30.9,0-61.8,0-92.6,0c-0.9,0-1.8-0.1-2.6,0.1c-0.7,0.4-1,1.1-1.4,1.6c-0.6,0.8-1.3,1.7-1.9,2.5c-0.1,0.1-0.2,0.1-0.4,0.2
		c-0.1,0-0.3-0.2-0.3-0.5c0-0.2,0-0.4,0-0.6c0-0.5,0-1,0-1.5C5,52.1,5,30,5,8c0-0.7,0-1.4,0-2.1c0-0.5,0.3-0.7,0.8-0.8
		c0.5,0,1,0,1.5,0c16.2,0,32.4,0,48.6,0c0.4,0,0.8,0,1.3,0.1c0.4,0,0.5,0.5,0.3,0.8c-0.6,0.9-1.3,1.8-1.9,2.7
		C55.3,9,55,9.4,54.8,9.8c0,0.1,0.1,0.2,0.1,0.4c1.8,0,3.6,0,5.4,0c1.5,0,1.4,0.1,2.2-1.4c0.2-0.4,0.1-0.7-0.2-0.9
		c-1.2-0.8-2.3-1.5-3.5-2.3c0,0-0.1-0.1-0.1-0.2c0.1-0.1,0.1-0.2,0.2-0.3c0.1-0.1,0.3-0.1,0.4-0.1c0.5,0,1,0,1.5,0h47.4
		c0.4,0,0.8,0,1.3,0c1.4,0,1.5,0.2,1.6,1.6c0,0.5,0,1,0,1.5c0,9.2,0,18.4,0,27.6c0,0.6,0,1.3,0,1.9c0,0.7-0.4,0.9-0.9,0.5
		c-1.1-0.7-2.2-1.4-3.4-2.1c-0.4-0.3-0.8-0.2-1,0.3c0,0.1-0.1,0.1-0.1,0.2c-0.1,0.1-0.1,0.2-0.2,0.4c-3.2,5.7-6.4,11.4-9.6,17.2
		c-0.2,0.4-0.4,0.7-0.7,1.1c-0.2,0.2-0.5,0.4-0.7,0.4c-0.8,0.1-1.5,0.1-2.3,0.1c-19.8,0-39.7,0-59.5,0c-3.3,0-6.6,0-9.9,0
		c-0.5,0-1,0-1.4,0.1c-0.2,0.1-0.3,0.2-0.4,0.3c-1,1.3-2,2.7-3,4.1c-0.2,0.2,0,0.5,0.3,0.6c0.2,0,0.4,0,0.6,0c0.4,0,0.8,0,1.3,0
		c25.4,0,50.7,0,76.1,0c0.8,0,1.5,0,2.2,0c0.6-0.4,0.8-0.9,1-1.4c2.3-4.1,4.6-8.3,7-12.4c1.2-2.1,2.4-4.3,3.6-6.4
		c0.1-0.2,0.3-0.4,0.5-0.6c0,0,0.1,0,0.2,0c0.1,0,0.2,0,0.2,0.1c0.1,0.2,0.1,0.4,0.1,0.6c0,1.6,0,3.2,0,4.8
		C111.1,45.8,110.9,46.4,110.6,47 M111.1,109.3c0,0.3,0,0.7-0.1,1c0,0.3-0.3,0.5-0.5,0.6c-0.2,0-0.4,0.1-0.6,0.1c-0.7,0-1.4,0-2.1,0
		H57.9c-16.6,0-33.2,0-49.9,0c-3.5,0-3,0.4-3-3C5,98.7,5,89.3,5,80c0-2.9-0.2-2.6,2.5-2.6c33.7,0,67.3,0,101,0c0.6,0,1.3,0,1.9,0.1
		c0.3,0,0.5,0.3,0.6,0.5c0,0.1,0.1,0.3,0.1,0.4c0,0.3,0,0.6,0,0.8C111.1,89.2,111.1,99.3,111.1,109.3 M116.1,0.7
		c0-0.4-0.3-0.7-0.6-0.7c-0.8,0-1.5,0-2.3,0C94.9,0,76.5,0,58.2,0h-43C11,0,6.7,0,2.5,0C1.9,0,1.2,0,0.6,0.1c-0.2,0-0.5,0.3-0.5,0.6
		C0,1.4,0,2.2,0,2.9c0,14.6,0,29.2,0,43.8C0,68.8,0,91,0,113.1c0,0.8,0,1.5,0,2.3c0,0.4,0.3,0.7,0.7,0.7c0.8,0,1.5,0.1,2.3,0.1
		c36.7,0,73.4,0,110,0c0.6,0,1.3,0,1.9,0c0.2,0,0.4,0,0.6-0.1c0.3,0,0.5-0.3,0.5-0.6c0-0.6,0-1.3,0-1.9c0-37,0-74,0-111
		C116.1,2,116.1,1.4,116.1,0.7"/>
</g>
</svg>
