<?xml version="1.0" encoding="utf-8"?>
<!-- Generator: Adobe Illustrator 23.0.1, SVG Export Plug-In . SVG Version: 6.00 Build 0)  -->
<svg version="1.1" id="Layer_1" xmlns="http://www.w3.org/2000/svg" xmlns:xlink="http://www.w3.org/1999/xlink" x="0px" y="0px"
	 viewBox="0 0 109.7 123.6" style="enable-background:new 0 0 109.7 123.6;" xml:space="preserve">
<style type="text/css">
	.st0{fill:#DF712D;}
	.st1{fill:#1D9947;}
	.st2{clip-path:url(#SVGID_2_);fill:#99602B;}
	.st3{clip-path:url(#SVGID_2_);fill:#FFFFFF;}
	.st4{clip-path:url(#SVGID_4_);fill:url(#SVGID_5_);}
	.st5{clip-path:url(#SVGID_7_);fill:#DF702D;}
	.st6{clip-path:url(#SVGID_9_);fill:url(#SVGID_10_);}
	.st7{clip-path:url(#SVGID_12_);fill:url(#SVGID_13_);}
	.st8{clip-path:url(#SVGID_15_);fill:#1B9948;}
	.st9{clip-path:url(#SVGID_15_);fill:#DF702D;}
	.st10{clip-path:url(#SVGID_15_);fill:#DA782E;}
	.st11{clip-path:url(#SVGID_15_);fill:#FFFFFF;}
	.st12{clip-path:url(#SVGID_15_);fill:#D52628;}
	.st13{clip-path:url(#SVGID_15_);fill:#CE4A2A;}
</style>
<rect x="8.7" y="90.6" class="st0" width="91.9" height="30.3"/>
<polygon class="st1" points="71.2,79.9 71.1,79.8 63.7,56 60.1,67.5 64.9,82.9 "/>
<polygon class="st1" points="55.8,81.3 55.8,81.3 55.9,81.3 55.9,81.1 49.2,59.9 46.1,70.1 50.3,83.9 "/>
<polygon class="st1" points="45.7,90.6 58.8,90.6 56.2,82.3 44.8,87.7 "/>
<polygon class="st1" points="63.9,83.3 59.5,69.3 56.4,79.4 58.4,85.9 "/>
<polygon class="st1" points="59.9,90.6 74.5,90.6 71.5,80.9 58.8,86.9 "/>
<polygon class="st1" points="88.1,78.6 79.8,52.1 75.8,64.9 81.1,81.9 "/>
<polygon class="st1" points="80.1,82.4 75.2,66.6 71.7,78.1 73.9,85.3 "/>
<polygon class="st1" points="75.6,90.6 91.8,90.6 88.4,79.6 74.2,86.3 "/>
<polygon class="st1" points="31.8,90.6 30,84.9 17.8,90.6 "/>
<polygon class="st1" points="29.7,83.9 24.6,67.8 22.3,75.3 25.6,85.9 "/>
<polygon class="st1" points="49.4,84.3 45.5,71.9 42.7,81 44.4,86.7 "/>
<polygon class="st1" points="21.7,77 17.8,89.5 24.6,86.3 "/>
<polygon class="st1" points="32.8,90.6 44.6,90.6 42.4,83.6 32.2,88.4 "/>
<polygon class="st1" points="36.3,85.3 32.9,74.4 30.4,82.7 31.8,87.4 "/>
<polygon class="st1" points="42.1,82.6 36.3,63.8 33.5,72.7 37.3,84.9 "/>
<g>
	<defs>
		<rect id="SVGID_1_" y="0" width="109.7" height="123.6"/>
	</defs>
	<clipPath id="SVGID_2_">
		<use xlink:href="#SVGID_1_"  style="overflow:visible;"/>
	</clipPath>
	<path class="st2" d="M38.3,92.9c-5.9-8-14.3-7.2-20.4-5c-0.1,0.1-0.2,0.2-0.3,0.3l-7,7l0.5,8.9l9.4,1.9c0,0,3.5-6.9,8.7-10.7
		C32.4,92.9,35.7,91.9,38.3,92.9"/>
	<path class="st3" d="M6.6,123.6V89.1H12C4.2,79.4,0,67.4,0,54.9C0,24.6,24.6,0,54.9,0c30.2,0,54.8,24.6,54.8,54.9
		c0,12.5-4.2,24.5-12,34.2h5.4v34.5H6.6z"/>
</g>
<g>
	<defs>
		<path id="SVGID_3_" d="M2,54.9c0,14,5.5,26.7,14.4,36.2l8.2-26.4l5.2,16.8l6.5-20.7l5.9,19l7.1-23L56.1,78l7.9-25.3l7.5,24
			l8.7-27.9l13.2,42.2c8.9-9.5,14.3-22.2,14.3-36.2C107.7,25.7,84,2,54.9,2C25.7,2,2,25.7,2,54.9"/>
	</defs>
	<clipPath id="SVGID_4_">
		<use xlink:href="#SVGID_3_"  style="overflow:visible;"/>
	</clipPath>
	
		<radialGradient id="SVGID_5_" cx="0" cy="123.587" r="1" gradientTransform="matrix(52.8666 0 0 52.8666 54.6898 -6478.8257)" gradientUnits="userSpaceOnUse">
		<stop  offset="0" style="stop-color:#E1DFE0"/>
		<stop  offset="0.3827" style="stop-color:#DFDEE0"/>
		<stop  offset="0.5209" style="stop-color:#D8DADE"/>
		<stop  offset="0.6195" style="stop-color:#CCD4DB"/>
		<stop  offset="0.6993" style="stop-color:#BCCBD6"/>
		<stop  offset="0.7677" style="stop-color:#A6C0D1"/>
		<stop  offset="0.8282" style="stop-color:#8AB1C9"/>
		<stop  offset="0.8829" style="stop-color:#6AA0C1"/>
		<stop  offset="0.9316" style="stop-color:#468DB8"/>
		<stop  offset="0.9765" style="stop-color:#1C78AD"/>
		<stop  offset="0.98" style="stop-color:#1976AC"/>
		<stop  offset="1" style="stop-color:#1976AC"/>
	</radialGradient>
	<rect x="2" y="2" class="st4" width="105.6" height="89"/>
</g>
<g>
	<defs>
		<rect id="SVGID_6_" y="0" width="109.7" height="123.6"/>
	</defs>
	<clipPath id="SVGID_7_">
		<use xlink:href="#SVGID_6_"  style="overflow:visible;"/>
	</clipPath>
	<rect x="8.6" y="91.1" class="st5" width="92.4" height="30.5"/>
</g>
<g>
	<defs>
		<polygon id="SVGID_8_" points="56,81.7 56.1,81.7 56.1,81.5 		"/>
	</defs>
	<clipPath id="SVGID_9_">
		<use xlink:href="#SVGID_8_"  style="overflow:visible;"/>
	</clipPath>
	
		<radialGradient id="SVGID_10_" cx="0" cy="123.587" r="1" gradientTransform="matrix(67.0174 0 0 67.0174 54.5661 -8234.8467)" gradientUnits="userSpaceOnUse">
		<stop  offset="0" style="stop-color:#E1DFE0"/>
		<stop  offset="0.3827" style="stop-color:#DFDEE0"/>
		<stop  offset="0.5209" style="stop-color:#D8DADE"/>
		<stop  offset="0.6195" style="stop-color:#CCD4DB"/>
		<stop  offset="0.6993" style="stop-color:#BCCBD6"/>
		<stop  offset="0.7677" style="stop-color:#A6C0D1"/>
		<stop  offset="0.8282" style="stop-color:#8AB1C9"/>
		<stop  offset="0.8829" style="stop-color:#6AA0C1"/>
		<stop  offset="0.9316" style="stop-color:#468DB8"/>
		<stop  offset="0.9765" style="stop-color:#1C78AD"/>
		<stop  offset="0.98" style="stop-color:#1976AC"/>
		<stop  offset="1" style="stop-color:#1976AC"/>
	</radialGradient>
	<rect x="56" y="81.5" class="st6" width="0.1" height="0.3"/>
</g>
<g>
	<defs>
		<polygon id="SVGID_11_" points="71.4,80.4 71.5,80.4 71.4,80.2 		"/>
	</defs>
	<clipPath id="SVGID_12_">
		<use xlink:href="#SVGID_11_"  style="overflow:visible;"/>
	</clipPath>
	
		<radialGradient id="SVGID_13_" cx="0" cy="123.587" r="1" gradientTransform="matrix(54.2749 0 0 54.2749 52.7031 -6652.4648)" gradientUnits="userSpaceOnUse">
		<stop  offset="0" style="stop-color:#E1DFE0"/>
		<stop  offset="0.3827" style="stop-color:#DFDEE0"/>
		<stop  offset="0.5209" style="stop-color:#D8DADE"/>
		<stop  offset="0.6195" style="stop-color:#CCD4DB"/>
		<stop  offset="0.6993" style="stop-color:#BCCBD6"/>
		<stop  offset="0.7677" style="stop-color:#A6C0D1"/>
		<stop  offset="0.8282" style="stop-color:#8AB1C9"/>
		<stop  offset="0.8829" style="stop-color:#6AA0C1"/>
		<stop  offset="0.9316" style="stop-color:#468DB8"/>
		<stop  offset="0.9765" style="stop-color:#1C78AD"/>
		<stop  offset="0.98" style="stop-color:#1976AC"/>
		<stop  offset="1" style="stop-color:#1976AC"/>
	</radialGradient>
	<rect x="71.4" y="80.2" class="st7" width="0.1" height="0.2"/>
</g>
<g>
	<defs>
		<rect id="SVGID_14_" y="0" width="109.7" height="123.6"/>
	</defs>
	<clipPath id="SVGID_15_">
		<use xlink:href="#SVGID_14_"  style="overflow:visible;"/>
	</clipPath>
	<polygon class="st8" points="71.5,80.4 71.4,80.2 63.9,56.3 60.3,67.9 65.1,83.3 	"/>
	<polygon class="st8" points="56,81.7 56,81.7 56.1,81.7 56.1,81.5 49.4,60.2 46.2,70.5 50.5,84.3 	"/>
	<polygon class="st8" points="45.8,91.1 59,91.1 56.4,82.7 44.9,88.1 	"/>
	<polygon class="st8" points="64.2,83.8 59.8,69.6 56.6,79.8 58.6,86.4 	"/>
	<polygon class="st8" points="60.1,91.1 74.8,91.1 71.8,81.4 59,87.4 	"/>
	<polygon class="st8" points="88.5,79 80.1,52.3 76.1,65.3 81.4,82.3 	"/>
	<polygon class="st8" points="80.5,82.8 75.5,67 72,78.5 74.2,85.7 	"/>
	<polygon class="st8" points="75.9,91.1 92.2,91.1 88.8,80 74.5,86.7 	"/>
	<polygon class="st8" points="31.8,91.1 30,85.4 17.8,91.1 	"/>
	<polygon class="st8" points="29.7,84.4 24.6,68.1 22.3,75.7 25.6,86.3 	"/>
	<polygon class="st8" points="49.6,84.8 45.6,72.2 42.8,81.4 44.6,87.1 	"/>
	<polygon class="st8" points="21.7,77.4 17.8,89.9 24.6,86.8 	"/>
	<polygon class="st8" points="32.9,91.1 44.7,91.1 42.5,84 32.2,88.9 	"/>
	<polygon class="st8" points="36.4,85.8 33,74.8 30.4,83.1 31.9,87.9 	"/>
	<polygon class="st8" points="42.2,83 36.3,64.1 33.5,73.1 37.4,85.3 	"/>
	<path class="st9" d="M42.3,79.7l7.1-23l3.1,9.9V4.1C47.4,4.4,42.4,5.4,37.8,7v58.2L42.3,79.7z"/>
	<path class="st9" d="M63.9,52.8l7.5,24l0.5-1.7V7c-4.6-1.7-9.6-2.7-14.7-2.9v70.2L63.9,52.8z"/>
	<polygon class="st10" points="71.5,80.4 71.4,80.2 71.4,80.4 	"/>
	<rect x="10.9" y="93.6" class="st11" width="87.8" height="25.4"/>
	<path class="st11" d="M21.9,108.2c-0.3,0-0.6-0.2-0.8-0.4l-2.6-4v3.4c0,0.5-0.4,1-1,1h-3.1c-0.5,0-1-0.4-1-1V95.7
		c0-0.5,0.4-0.9,1-0.9h3.1c0.5,0,1,0.4,1,0.9v3.4l2.7-3.9c0.2-0.3,0.5-0.4,0.8-0.4h3.7c0.4,0,0.7,0.2,0.8,0.5c0.2,0.3,0.1,0.7-0.1,1
		l-3.7,5.2l3.6,5.3c0.2,0.3,0.2,0.7,0.1,1c-0.2,0.3-0.5,0.5-0.8,0.5H21.9z"/>
	<path class="st11" d="M26.7,108.2c-0.5,0-0.9-0.4-0.9-0.9V95.7c0-0.5,0.4-0.9,0.9-0.9h3c0.5,0,1,0.4,1,0.9v11.6
		c0,0.5-0.4,0.9-1,0.9H26.7z"/>
	<path class="st11" d="M41.4,108.2c-0.5,0-0.9-0.4-0.9-1v-1.4c-0.2,0.3-0.5,0.5-0.8,0.7c-0.4,0.2-0.8,0.3-1.2,0.3
		c-0.4,0-0.8-0.1-1.2-0.3c-0.4-0.2-0.7-0.5-0.9-0.8v1.5c0,0.5-0.4,1-0.9,1h-3c-0.5,0-0.9-0.4-0.9-1V96.8c0-0.5,0.2-1,0.6-1.4
		c0.3-0.3,0.8-0.6,1.3-0.7c0.2,0,0.4,0,0.5,0c0.3,0,0.7,0,1.1,0.1c0.1,0,0.1,0,0.1,0c0.5,0.2,0.9,0.5,1.2,0.9c0,0,0,0,0,0l2.1,3.8
		l2.1-3.7c0.3-0.5,0.7-0.8,1.2-1c0,0,0.1,0,0.1,0c0.4-0.1,0.8-0.1,1.1-0.1c0.2,0,0.4,0,0.6,0.1c0.5,0.1,1,0.3,1.3,0.7
		c0.4,0.4,0.6,0.9,0.6,1.4v10.4c0,0.5-0.4,1-1,1H41.4z"/>
	<path class="st11" d="M53.2,108.3c-2.6,0-5.7-1.2-5.7-6.8c0-5.6,3.1-6.8,5.7-6.8h2.1c2.6,0,5.8,1.2,5.8,6.8c0,5.6-3.1,6.8-5.8,6.8
		H53.2z M54.1,99c-1.2,0-1.7,0.5-1.7,1.8v1.4c0,1.2,0.5,1.7,1.7,1.7h0.2c1.3,0,1.7-0.5,1.7-1.7v-1.4c0-1.3-0.5-1.7-1.7-1.8H54.1z"/>
	<path class="st11" d="M69,108.2c-0.4,0-0.7-0.2-0.9-0.6l-0.5-1.2h-3.2l-0.5,1.1c-0.2,0.3-0.5,0.6-0.9,0.6h-3
		c-0.3,0-0.6-0.2-0.8-0.4c-0.2-0.3-0.2-0.6-0.1-0.9L63.8,96c0,0,0,0,0-0.1c0.2-0.4,0.5-0.7,0.9-0.9c0.4-0.2,0.8-0.3,1.2-0.3
		c0.4,0,0.8,0.1,1.2,0.3c0.4,0.2,0.7,0.6,0.9,0.9c0,0,0,0,0,0l4.8,10.9c0.1,0.3,0.1,0.6-0.1,0.9c-0.2,0.3-0.5,0.4-0.8,0.4H69z"/>
	<path class="st11" d="M81.6,108.3c-0.2,0-0.5,0-0.7-0.1c-0.5-0.1-0.9-0.4-1.2-0.8l-3-3.7v3.5c0,0.5-0.4,0.9-0.9,0.9h-3
		c-0.5,0-0.9-0.4-0.9-0.9V96.8c0-0.5,0.2-1,0.5-1.4c0.3-0.4,0.7-0.6,1.2-0.8c0.2-0.1,0.5-0.1,0.7-0.1c0.2,0,0.5,0,0.7,0.1
		c0.5,0.1,0.9,0.4,1.2,0.8l3,3.7v-3.4c0-0.5,0.4-0.9,0.9-0.9h3c0.5,0,0.9,0.4,0.9,0.9v10.4c0,0.5-0.2,1-0.5,1.4
		c-0.3,0.4-0.7,0.6-1.2,0.8C82.1,108.3,81.8,108.3,81.6,108.3"/>
	<path class="st11" d="M92.3,108.2c-0.5,0-0.9-0.4-0.9-0.9v-3.6h-1.8v3.6c0,0.5-0.4,0.9-1,0.9h-3c-0.5,0-0.9-0.4-0.9-0.9V95.7
		c0-0.5,0.4-0.9,0.9-0.9h3c0.5,0,1,0.4,1,0.9v3.7h1.8v-3.7c0-0.5,0.4-0.9,0.9-0.9h3c0.5,0,0.9,0.4,0.9,0.9v11.6
		c0,0.5-0.4,0.9-0.9,0.9H92.3z"/>
	<path class="st12" d="M14.4,95.7h3.1v11.6h-3.1V95.7z M21.9,107.2h3.7l-4-5.8l4.1-5.8H22l-3.4,5c-0.1,0.2-0.2,0.5-0.2,0.8
		c0,0.3,0.1,0.5,0.2,0.7L21.9,107.2z"/>
	<rect x="26.7" y="95.7" class="st12" width="3" height="11.6"/>
	<path class="st12" d="M43.2,95.7c0.3,0.1,0.6,0.2,0.8,0.4c0.2,0.2,0.3,0.5,0.3,0.8v10.4h-3V102l-1.7,3.3c-0.1,0.2-0.3,0.4-0.5,0.5
		c-0.2,0.1-0.5,0.2-0.8,0.2c-0.3,0-0.5-0.1-0.8-0.2c-0.2-0.1-0.4-0.3-0.5-0.5l-1.8-3.3v5.3h-3V96.8c0-0.3,0.1-0.5,0.3-0.7
		c0.2-0.2,0.5-0.4,0.8-0.4c0.3-0.1,0.7,0,1.3,0.1c0.3,0.1,0.5,0.3,0.7,0.5l2.9,5.3l2.9-5.2c0.2-0.2,0.4-0.4,0.7-0.6
		C42.5,95.6,42.9,95.6,43.2,95.7"/>
	<path class="st12" d="M55.3,95.6c3.2,0,4.8,2,4.8,5.9c0,3.9-1.6,5.9-4.8,5.9h-2.1c-3.2,0-4.8-2-4.8-5.9c0-3.9,1.6-5.9,4.8-5.9H55.3
		z M54.4,98.1h-0.3c-1.7,0-2.6,0.9-2.6,2.7v1.4c0,1.8,0.9,2.7,2.7,2.7h0.2c1.8,0,2.7-0.9,2.7-2.7v-1.4C57,99,56.1,98.1,54.4,98.1"/>
	<path class="st12" d="M63.8,105.5l-0.8,1.7h-3l4.7-10.9c0.1-0.2,0.3-0.4,0.5-0.5c0.2-0.1,0.5-0.2,0.8-0.2c0.3,0,0.5,0.1,0.8,0.2
		c0.2,0.1,0.4,0.3,0.5,0.5l4.8,10.9H69l-0.8-1.7H63.8z M67.1,103l-1.1-2.4l-1.1,2.4H67.1z"/>
	<path class="st12" d="M83.1,95.7v10.4c0,0.3-0.1,0.5-0.3,0.8c-0.2,0.2-0.4,0.4-0.7,0.5c-0.3,0.1-0.6,0.1-0.9,0
		c-0.3-0.1-0.6-0.2-0.7-0.5l-4.7-5.7v6.2h-3V96.8c0-0.3,0.1-0.5,0.3-0.8c0.2-0.2,0.4-0.4,0.8-0.5c0.3-0.1,0.6-0.1,0.9,0
		c0.3,0.1,0.6,0.2,0.8,0.5l4.7,5.7v-6.1H83.1z"/>
	<polygon class="st12" points="88.5,102.8 88.5,107.3 85.5,107.3 85.5,95.7 88.5,95.7 88.5,100.3 92.3,100.3 92.3,95.7 95.3,95.7 
		95.3,107.3 92.3,107.3 92.3,102.8 	"/>
	<path class="st13" d="M52.5,46c0,0.6-0.5,1.1-1.1,1.1H38.8c-0.6,0-1.1-0.5-1.1-1.1v-0.5c0-0.6,0.5-1.1,1.1-1.1h12.6
		c0.6,0,1.1,0.5,1.1,1.1V46z"/>
	<path class="st8" d="M52.5,46c0,0.6-0.5,1.1-1.1,1.1H38.8c-0.6,0-1.1-0.5-1.1-1.1v-0.5c0-0.6,0.5-1.1,1.1-1.1h12.6
		c0.6,0,1.1,0.5,1.1,1.1V46z"/>
	<path class="st11" d="M51.4,47.6H38.8c-0.9,0-1.7-0.7-1.7-1.7v-0.5c0-0.9,0.7-1.7,1.7-1.7h12.6c0.9,0,1.7,0.8,1.7,1.7V46
		C53.1,46.9,52.4,47.6,51.4,47.6 M38.8,45c-0.3,0-0.5,0.2-0.5,0.5V46c0,0.3,0.2,0.5,0.5,0.5h12.6c0.3,0,0.5-0.2,0.5-0.5v-0.5
		c0-0.3-0.2-0.5-0.5-0.5H38.8z"/>
	<path class="st9" d="M52.5,46c0,0.6-0.5,1.1-1.1,1.1H38.8c-0.6,0-1.1-0.5-1.1-1.1v-0.5c0-0.6,0.5-1.1,1.1-1.1h12.6
		c0.6,0,1.1,0.5,1.1,1.1V46z"/>
	<path class="st11" d="M37.7,50.4c-2.6,0-7.1-1.5-11.8-4l-1.6-0.8l1.7-0.4c2.7-0.6,5.6-0.9,8.1-0.9c3.4,0,5.5,0.6,6.5,1.7
		c0.5,0.6,0.7,1.2,0.5,2C41,49,40.3,50.4,37.7,50.4"/>
	<path class="st11" d="M37.5,45.2c-4.5,0-11-9.9-12.9-12.9l-1-1.6l1.7,0.6c4.6,1.7,13.8,5.9,15,10c0.3,1,0.1,1.9-0.5,2.7
		C39.2,44.8,38.4,45.2,37.5,45.2"/>
	<path class="st11" d="M42.9,46.2c-0.2,0-0.3,0-0.5,0c-0.8-0.2-1.5-0.7-1.9-1.4c-1.7-3.4,2-11.8,3.2-14.3l0.8-1.7l0.4,1.8
		c0.8,3.9,1.9,12.1-0.3,14.7C44.2,45.9,43.5,46.2,42.9,46.2"/>
	<path class="st8" d="M40.5,48c0.6-3.7-8.4-3.4-14.4-2.1C32.1,49,39.9,51.7,40.5,48"/>
	<path class="st8" d="M39.3,43.7c2.8-3.6-7-9.2-14.2-11.8C29.7,39.3,36.5,47.3,39.3,43.7"/>
	<path class="st8" d="M42.5,45.5c3.6,0.7,3.2-8.5,1.8-14.8C41.3,36.8,38.9,44.8,42.5,45.5"/>
	<path class="st13" d="M71.9,36.4c0,0.6-0.5,1.1-1.1,1.1H58.3c-0.6,0-1.1-0.5-1.1-1.1V36c0-0.6,0.5-1.1,1.1-1.1h12.6
		c0.6,0,1.1,0.5,1.1,1.1V36.4z"/>
	<path class="st8" d="M71.9,36.4c0,0.6-0.5,1.1-1.1,1.1H58.3c-0.6,0-1.1-0.5-1.1-1.1V36c0-0.6,0.5-1.1,1.1-1.1h12.6
		c0.6,0,1.1,0.5,1.1,1.1V36.4z"/>
	<path class="st11" d="M70.8,38.1H58.3c-0.9,0-1.7-0.7-1.7-1.7V36c0-0.9,0.8-1.7,1.7-1.7h12.6c0.9,0,1.7,0.7,1.7,1.7v0.5
		C72.5,37.4,71.8,38.1,70.8,38.1 M58.3,35.5c-0.3,0-0.5,0.2-0.5,0.5v0.5c0,0.3,0.2,0.5,0.5,0.5h12.6c0.3,0,0.5-0.2,0.5-0.5V36
		c0-0.3-0.2-0.5-0.5-0.5H58.3z"/>
	<path class="st9" d="M71.9,36.4c0,0.6-0.5,1.1-1.1,1.1H58.3c-0.6,0-1.1-0.5-1.1-1.1V36c0-0.6,0.5-1.1,1.1-1.1h12.6
		c0.6,0,1.1,0.5,1.1,1.1V36.4z"/>
	<path class="st11" d="M71.3,37.6c-0.8,0-1.5-0.4-1.8-1.1c-0.3-0.6-0.2-1.1,0.1-1.7c1.2-1.9,6.1-2.7,8.8-2.8l1.7-0.1l-1.3,1.2
		C77.7,34.2,73.8,37.6,71.3,37.6"/>
	<path class="st11" d="M71,34.4c-0.4,0-0.9-0.2-1.2-0.5c-0.6-0.4-0.9-1-0.8-1.7c0.1-2.8,4.9-6.9,7.5-8.7l1.5-1l-0.5,1.7
		C76.4,27.3,74,34.4,71,34.4"/>
	<path class="st11" d="M68,35.8c-3.1,0-3.6-9-3.6-9.4l-0.1-1.8l1.2,1.4c1.1,1.3,4.8,5.8,4.3,8.3c-0.1,0.6-0.5,1-1,1.3
		C68.5,35.8,68.3,35.8,68,35.8"/>
	<path class="st8" d="M70.1,36.3c-1-2.2,4.5-3.4,8.3-3.6C75.3,35.5,71.1,38.4,70.1,36.3"/>
	<path class="st8" d="M70.1,33.5c-2.3-1.7,2.7-6.7,6.6-9.4C75.2,29.3,72.4,35.2,70.1,33.5"/>
	<path class="st8" d="M68.5,35.1c-2.1,1-3.3-4.7-3.5-8.6C67.8,29.7,70.6,34.1,68.5,35.1"/>
	<path class="st12" d="M39.2,114.2H43c0,0.9,0,1.5-0.1,1.7c-0.1,0.3-0.2,0.5-0.3,0.7c-0.1,0.2-0.3,0.3-0.6,0.4
		c-0.3,0.1-1.1,0.2-2.3,0.2c-1.1,0-1.9,0-2.4-0.1c-0.4-0.1-0.7-0.2-0.9-0.5c-0.2-0.3-0.3-1-0.3-2.2c0-0.8,0.1-1.4,0.2-1.8
		c0.1-0.4,0.4-0.7,0.8-0.8c0.4-0.1,1.2-0.2,2.4-0.2c0.4,0,0.8,0,1.3,0c0.5,0,0.8,0,1,0.1c0.4,0,0.7,0.2,0.9,0.4
		c0.1,0.1,0.2,0.3,0.3,0.5c0.1,0.2,0.1,0.5,0.1,0.8h-0.9c0-0.4-0.1-0.7-0.2-0.8c-0.1-0.1-0.2-0.1-0.3-0.1c-0.1,0-0.3-0.1-0.6-0.1
		c-0.4,0-0.9,0-1.5,0c-0.8,0-1.3,0-1.6,0.1c-0.3,0-0.5,0.1-0.6,0.2c-0.1,0.1-0.2,0.3-0.2,0.5c0,0.2-0.1,0.6-0.1,1.2
		c0,0.8,0,1.4,0.1,1.6c0,0.1,0.1,0.3,0.2,0.3c0.1,0.1,0.2,0.1,0.4,0.1c0.4,0.1,1.2,0.1,2.4,0.1c0.7,0,1.2,0,1.5-0.1
		c0.3,0,0.4-0.1,0.5-0.3c0.1-0.2,0.1-0.5,0.1-1h-2.9V114.2z"/>
	<path class="st12" d="M44,117.1v-5.6h3.5c0.9,0,1.5,0,1.8,0.1c0.5,0.1,0.8,0.3,1,0.6c0.1,0.2,0.2,0.6,0.2,1c0,0.3,0,0.6,0,0.7
		c0,0.2-0.1,0.3-0.2,0.4c-0.2,0.2-0.3,0.3-0.5,0.3c0.1,0,0.2,0.1,0.4,0.3c0.1,0.1,0.2,0.3,0.2,0.4c0,0.2,0.1,0.5,0.1,0.9v0.8h-0.9
		v-0.6c0-0.4,0-0.8,0-0.9c-0.1-0.3-0.2-0.5-0.5-0.6c-0.1,0-0.3,0-0.4,0h-1.1h-2.7v2.1H44z M44.8,114.3h2.7c0.7,0,1.2,0,1.4,0
		c0.2,0,0.4-0.1,0.5-0.2c0.2-0.1,0.3-0.4,0.3-0.9c0-0.4-0.1-0.7-0.2-0.8c-0.1-0.1-0.3-0.1-0.5-0.2c-0.2,0-0.7,0-1.3,0h-2.7V114.3z"
		/>
	<path class="st12" d="M55.1,111.5c0.9,0,1.6,0,2,0.1c0.4,0.1,0.7,0.2,0.9,0.4c0.1,0.1,0.2,0.3,0.3,0.4c0.1,0.2,0.1,0.4,0.1,0.7
		c0,0.3,0.1,0.8,0.1,1.3c0,0.7,0,1.2-0.1,1.5c-0.1,0.4-0.2,0.6-0.3,0.8c-0.2,0.2-0.4,0.3-0.8,0.4c-0.4,0.1-1,0.1-1.8,0.1
		c-0.4,0-0.9,0-1.4,0c-0.5,0-0.8,0-1,0c-0.3,0-0.5-0.1-0.7-0.1c-0.2-0.1-0.3-0.2-0.4-0.3c-0.2-0.2-0.3-0.4-0.3-0.8
		c-0.1-0.3-0.1-0.8-0.1-1.6c0-0.9,0.1-1.5,0.2-1.9c0.2-0.5,0.5-0.7,1.1-0.8C53.1,111.5,53.9,111.5,55.1,111.5 M54.7,112.2
		c-0.8,0-1.3,0-1.7,0.1c-0.2,0-0.3,0.1-0.4,0.2c-0.1,0.1-0.1,0.2-0.2,0.4c-0.1,0.3-0.1,0.8-0.1,1.4c0,0.6,0,1.1,0,1.3
		c0,0.3,0.1,0.5,0.2,0.6c0.1,0.1,0.1,0.1,0.3,0.1c0.1,0,0.3,0.1,0.6,0.1c0.5,0,1,0.1,1.6,0.1c0.9,0,1.5,0,1.9-0.1
		c0.3-0.1,0.5-0.2,0.5-0.5c0.1-0.3,0.1-0.8,0.1-1.4c0-0.7,0-1.2-0.1-1.5c-0.1-0.3-0.2-0.5-0.6-0.5c-0.2,0-0.5,0-0.7-0.1
		C55.9,112.2,55.4,112.2,54.7,112.2"/>
	<path class="st12" d="M59.4,111.5h0.9v2.8c0,0.8,0,1.3,0,1.4c0,0.2,0.1,0.3,0.2,0.4c0.1,0.1,0.2,0.1,0.5,0.2c0.4,0,0.9,0.1,1.6,0.1
		c1,0,1.7,0,2-0.1c0.2,0,0.3-0.1,0.4-0.2c0.1-0.1,0.1-0.3,0.1-0.5c0-0.2,0-0.7,0-1.4v-2.8h0.9v2.8c0,0.7,0,1.2,0,1.5
		c-0.1,0.5-0.2,0.9-0.6,1c-0.2,0.1-0.4,0.2-0.7,0.2c-0.3,0-0.9,0.1-2,0.1c-0.9,0-1.5,0-1.7,0c-0.2,0-0.4,0-0.6-0.1
		c-0.4-0.1-0.7-0.3-0.9-0.7c-0.1-0.2-0.1-0.4-0.2-0.6c0-0.2,0-0.7,0-1.5V111.5z"/>
	<path class="st12" d="M67.2,117.1v-5.6h3.6c0.9,0,1.5,0,1.7,0.1c0.2,0,0.4,0.1,0.5,0.2c0.2,0.1,0.3,0.2,0.3,0.4
		c0.1,0.3,0.2,0.6,0.2,1.1c0,0.4,0,0.7-0.1,0.9c-0.1,0.2-0.2,0.4-0.3,0.5c-0.2,0.1-0.3,0.2-0.5,0.3c-0.2,0-0.4,0.1-0.8,0.1h-1h-2.7
		v2.1H67.2z M68.1,114.3h2.7c0.7,0,1.1,0,1.2,0c0.2,0,0.3-0.1,0.4-0.2c0.1-0.1,0.1-0.2,0.2-0.3c0-0.1,0-0.3,0-0.6c0-0.3,0-0.5,0-0.6
		c0-0.1-0.1-0.2-0.2-0.3c-0.1-0.1-0.2-0.1-0.4-0.1c-0.2,0-0.6,0-1.3-0.1h-2.7V114.3z"/>
</g>
</svg>
