<?xml version="1.0" encoding="utf-8"?>
<!-- Generator: Adobe Illustrator 23.0.1, SVG Export Plug-In . SVG Version: 6.00 Build 0)  -->
<svg version="1.1" id="Layer_1" xmlns="http://www.w3.org/2000/svg" xmlns:xlink="http://www.w3.org/1999/xlink" x="0px" y="0px"
	 viewBox="0 0 120.6 119.7" style="enable-background:new 0 0 120.6 119.7;" xml:space="preserve">
<style type="text/css">
	.st0{clip-path:url(#SVGID_2_);fill:#0C87C1;}
</style>
<g>
	<defs>
		<rect id="SVGID_1_" y="0" width="120.6" height="119.7"/>
	</defs>
	<clipPath id="SVGID_2_">
		<use xlink:href="#SVGID_1_"  style="overflow:visible;"/>
	</clipPath>
	<path class="st0" d="M89.9,99.8l8.1,13v-10.4c0-1-0.9-0.9-0.9-0.9h-1.2v-1.8h6.2v1.8h-1.5v18.2h-1.7l-8.3-13.1v9.6
		c0,0.8,0.7,0.8,0.7,0.8h2v2.1h-7v-2.1h2v-14.6c0-0.9-1-0.9-1-0.9h-1.7v-1.8H89.9z M77.4,99.8H85v1.8h-1.8v15.2c0,0,0,0.3,0.6,0.3
		h1.8v2.1h-7.9v-2.1h2v-14.9c0,0,0.1-0.6-0.5-0.6h-1.9V99.8z M73.7,111.9c-0.1-4.5-5.3-5.1-5.3-5.1h-4.8v10.2c0,0,0.5,0.2,3,0.2
		C70.7,117.4,73.7,115,73.7,111.9 M63.6,104.8h3.8c1,0,2.1-0.3,2.1-1.7c0-1.5-2-1.5-2-1.5h-3.9V104.8z M77.1,112
		c-0.4,6.9-9.1,7.2-9.1,7.2h-9.7l0-2.1h2.1v-14.9c0-0.7-0.3-0.7-0.3-0.7h-2v-1.8c0,0,8.4,0,9.8,0c3.4,0,5,1.4,5,3.2
		c0,1.8-1.3,2.6-1.3,2.6C75.8,106.8,77,110,77.1,112 M46.5,105.7l0.4-1l0.5,1H46.5z M56.1,117.1c-0.7,0-1-1-1-1l-7.6-17.5h-1.1
		l-5.7,18.5H39v2.1h7.6v-2.1c0,0-1.9,0-2.7,0c-0.8,0-0.5-1-0.5-1l2.7-8.6h2.1l4,9.7h-2.1v2.1h7.3v-2.1
		C57.4,117.1,56.8,117.1,56.1,117.1 M27.7,101.1c0,0-6.4-0.2-6.8,7.8c-0.1,3.2,2.1,8.4,7.3,8.4c0,0,6.8,0,7.2-7.8
		C35.5,109.6,35.6,101.5,27.7,101.1 M28.1,119.5c-3.6,0-10.5-2.1-10.5-9.9c0,0,0-3.7,1.8-6c0,0,3.2-4.4,8.8-4.4s10.3,3.6,10.6,9.7
		C39,111.8,37.4,119.1,28.1,119.5 M102.7,99.5h7.9v2.1h-2.3l0,3.2h6.4v-3.2l-2.3,0l0-2.1h7.9v2h-2.3v15.2c0,0-0.2,0.6,0.8,0.6h1.8
		v1.8h-7.9v-1.8h2v-10.9h-6.4v10.3c0,0,0.2,0.6,0.8,0.6h1.9v1.8H103v-1.8h2.1v-15.8h-2.3V99.5z M0,101.6h2.3v15.8H0.3v1.8h7.9v-1.8
		H6.3c-0.6,0-0.8-0.6-0.8-0.6v-10.3H12v10.9h-2v1.8h7.9v-1.8h-1.8c-1,0-0.8-0.6-0.8-0.6v-15.2h2.3v-2H9.7l0,2.1l2.3,0v3.2H5.6l0-3.2
		h2.3v-2.1H0V101.6z M100.3,17.3h1.6c0.3,0,0.6,0,0.8-0.1c0.2-0.1,0.3-0.2,0.4-0.3c0.1-0.2,0.1-0.3,0.1-0.5c0-0.3-0.1-0.5-0.3-0.6
		c-0.2-0.2-0.5-0.3-0.9-0.3h-1.7V17.3z M99.5,20.4v-5.5h2.4c0.5,0,0.9,0.1,1.1,0.2c0.3,0.1,0.5,0.3,0.6,0.5c0.2,0.2,0.2,0.5,0.2,0.8
		c0,0.4-0.1,0.7-0.4,1c-0.3,0.3-0.6,0.4-1.2,0.5c0.2,0.1,0.3,0.2,0.4,0.3c0.2,0.2,0.4,0.4,0.6,0.7l1,1.5h-0.9l-0.7-1.2
		c-0.2-0.3-0.4-0.6-0.5-0.8c-0.1-0.2-0.3-0.3-0.4-0.4c-0.1-0.1-0.2-0.1-0.3-0.1c-0.1,0-0.2,0-0.4,0h-0.8v2.5H99.5z M106.6,17.7
		c0-2.6-2.1-4.6-4.6-4.6c-2.6,0-4.6,2.1-4.6,4.6c0,2.6,2.1,4.6,4.6,4.6C104.5,22.3,106.6,20.2,106.6,17.7 M107.4,17.7
		c0,3-2.4,5.4-5.4,5.4c-3,0-5.4-2.4-5.4-5.4c0-3,2.4-5.4,5.4-5.4C104.9,12.3,107.4,14.7,107.4,17.7 M101.1,73.7c0-0.2,0-0.3,0-0.5
		c0,0,0,0,0-0.1c0-0.2,0-0.4-0.1-0.7c0,0,0,0,0,0c0-0.2,0-0.4-0.1-0.6c0-0.2-0.1-0.4-0.1-0.6c0-0.1,0-0.1,0-0.2c0-0.1,0-0.3-0.1-0.4
		c0-0.2-0.1-0.5-0.2-0.7c0-0.2-0.1-0.3-0.1-0.5c0-0.2-0.1-0.3-0.1-0.5c0,0,0-0.1,0-0.1c0-0.1-0.1-0.3-0.1-0.4
		c-0.1-0.2-0.1-0.3-0.2-0.5c0-0.1-0.1-0.2-0.1-0.4c0-0.1,0-0.1-0.1-0.2c0-0.1-0.1-0.2-0.1-0.3c0-0.1-0.1-0.1-0.1-0.2
		c0-0.1-0.1-0.2-0.1-0.3c-0.1-0.3-0.3-0.7-0.4-1c-0.1-0.1-0.1-0.2-0.2-0.3c0,0,0-0.1-0.1-0.1c-0.1-0.1-0.1-0.2-0.2-0.4
		c0,0,0,0,0-0.1c-0.1-0.3-0.3-0.6-0.5-0.8c-0.1-0.1-0.2-0.3-0.3-0.4c-0.1-0.1-0.2-0.3-0.3-0.4c-0.1-0.1-0.2-0.3-0.3-0.4
		c-0.2-0.3-0.4-0.5-0.6-0.8c-0.1-0.1-0.2-0.3-0.3-0.4c-0.1-0.1-0.2-0.3-0.3-0.4c-0.2-0.3-0.4-0.5-0.7-0.7c-0.1-0.1-0.2-0.2-0.3-0.4
		c-0.1-0.1-0.2-0.2-0.4-0.3c-0.1-0.1-0.2-0.2-0.4-0.3c-0.2-0.1-0.3-0.3-0.5-0.4c-0.1-0.1-0.3-0.2-0.4-0.3c-0.1-0.1-0.2-0.1-0.2-0.2
		c-0.6-0.5-1.3-1-2-1.4c-3.2-1.9-6.9-3.1-10.9-3.1c-0.4,0-0.8,0-1.2,0v6.6l0,11.5c0.4-0.2,0.8-0.3,1.2-0.3c1.6,0,3,1.3,3,3
		c0,1.6-1.3,3-3,3c-1.6,0-2.9-1.3-3-2.9c0,0,0-0.1,0-0.1V38.9c0,0,0-0.1,0-0.1c0-1.6,1.4-2.9,3-2.9c1.6,0,3,1.3,3,3c0,1.6-1.3,3-3,3
		c-0.4,0-0.9-0.1-1.2-0.3l0,10.7c0.4,0,0.8,0,1.2,0c4.5,0,8.8,1.3,12.3,3.7c5.2-3.8,8.6-9.9,8.6-16.8c0-11.5-9.3-20.8-20.8-20.8
		c-11.4,0-20.6,9.1-20.8,20.4h0v36.1h0c0,0.9,0.1,1.8,0.2,2.6c0,0.3,0.1,0.7,0.2,1c0.1,0.3,0.1,0.7,0.2,1c0.1,0.6,0.3,1.1,0.5,1.7
		c0,0.1,0.1,0.2,0.1,0.3c0.2,0.5,0.3,0.9,0.5,1.4c0,0,0,0.1,0,0.1c0.1,0.1,0.1,0.3,0.2,0.4c0.1,0.3,0.3,0.6,0.4,0.9
		c0.1,0.2,0.2,0.3,0.2,0.4c0.1,0.1,0.2,0.3,0.2,0.4c0.2,0.3,0.3,0.5,0.5,0.8c0,0,0,0.1,0.1,0.1c0.2,0.3,0.3,0.5,0.5,0.8
		c0.2,0.3,0.4,0.5,0.6,0.8c0.4,0.5,0.8,1,1.3,1.5c0.1,0.1,0.2,0.2,0.3,0.4c0.1,0.1,0.2,0.2,0.4,0.3c0.2,0.2,0.5,0.5,0.7,0.7
		c0.3,0.2,0.5,0.4,0.8,0.6c0.1,0.1,0.3,0.2,0.4,0.3c0.1,0.1,0.3,0.2,0.4,0.3c0.3,0.2,0.5,0.4,0.8,0.6c0.3,0.2,0.5,0.3,0.8,0.5
		c0.4,0.3,0.9,0.5,1.4,0.7c0.2,0.1,0.3,0.1,0.5,0.2c0.2,0.1,0.3,0.1,0.5,0.2c0.4,0.2,0.8,0.3,1.2,0.5c0.1,0,0.1,0,0.2,0.1
		c0.3,0.1,0.6,0.2,1,0.3c0.2,0.1,0.4,0.1,0.6,0.2c0.3,0.1,0.6,0.1,0.9,0.2c0.2,0,0.5,0.1,0.7,0.1c0.3,0,0.5,0.1,0.8,0.1
		c0.9,0.1,1.8,0.2,2.7,0.2c11.5,0,20.8-9.3,20.8-20.8c0-0.2,0-0.4,0-0.6C101.1,73.9,101.1,73.8,101.1,73.7 M77.4,74.5L77.4,74.5
		L77.4,74.5C77.4,74.6,77.4,74.5,77.4,74.5 M77.4,38.8C77.4,38.8,77.4,38.9,77.4,38.8L77.4,38.8L77.4,38.8z M29.3,62.6
		c0,1.6,1.3,3,3,3s3-1.3,3-3c0-0.4-0.1-0.9-0.3-1.2h18c0,0.4,0,0.8,0,1.2c0,11.5-9.3,20.8-20.8,20.8c-11.5,0-20.8-9.3-20.8-20.8
		c0-11.4,9.1-20.6,20.5-20.8v0h25.9v17.9H32.2v0C30.6,59.7,29.3,61,29.3,62.6 M53.4,40.6V0c0,0-0.7,9.1-8.5,9.5c0,0-8.6-1-9.6,7.9
		v23.3H53.4z"/>
</g>
</svg>
