<?xml version="1.0" encoding="utf-8"?>
<!-- Generator: Adobe Illustrator 17.0.0, SVG Export Plug-In . SVG Version: 6.00 Build 0)  -->
<!DOCTYPE svg PUBLIC "-//W3C//DTD SVG 1.1//EN" "http://www.w3.org/Graphics/SVG/1.1/DTD/svg11.dtd">
<svg version="1.1" id="Layer_1" xmlns="http://www.w3.org/2000/svg" xmlns:xlink="http://www.w3.org/1999/xlink" x="0px" y="0px"
	 width="10104.52px" height="2899.192px" viewBox="0 0 10104.52 2899.192" enable-background="new 0 0 10104.52 2899.192"
	 xml:space="preserve">
<path fill="#FFFFFF" d="M2337.103,1843.67l-316.485-316.482l-67.187,67.187l249.296,249.295l-81.216,81.215l-356.365-356.365
	L2779.55,554.115l-209.403-209.404L1488.553,1426.303l67.189,67.19L2570.147,479.089l75.027,75.026L1630.769,1568.52
	l490.742,490.741L2337.103,1843.67z M1008.938,2337.104l316.484-316.483l-67.189-67.187l-249.295,249.294l-81.212-81.216
	l356.361-356.366l1014.407,1014.405l209.403-209.403L1426.303,1488.554l-67.188,67.19l1014.406,1014.404l-75.028,75.027
	L1284.086,1630.77l-490.738,490.742L1008.938,2337.104z M499.017,992.45l316.482,316.485l67.189-67.191L633.393,992.45
	l81.216-81.213l356.365,356.362L56.569,2282.006l209.404,209.404l1081.594-1081.594l-67.191-67.188L265.973,2357.032l-75.027-75.026
	L1205.35,1267.599l-490.742-490.74L499.017,992.45z M2042.771,714.609l-490.742,490.742L537.626,190.946l-75.027,75.027
	l1014.405,1014.405l-67.189,67.189L328.223,265.973L537.626,56.569l1014.404,1014.406l356.366-356.366l-81.216-81.216
	l-249.294,249.294l-67.188-67.188l316.482-316.482L2042.771,714.609z"/>
<g>
	<defs>
		<rect id="SVGID_1_" x="0" width="10104.52" height="2899.192"/>
	</defs>
	<clipPath id="SVGID_2_">
		<use xlink:href="#SVGID_1_"  overflow="visible"/>
	</clipPath>
	<path clip-path="url(#SVGID_2_)" fill="none" stroke="#FFFFFF" stroke-width="80" stroke-miterlimit="10" d="M2337.103,1843.67
		l-316.485-316.482l-67.187,67.187l249.296,249.295l-81.216,81.215l-356.365-356.365L2779.55,554.115l-209.403-209.404
		L1488.553,1426.303l67.189,67.19L2570.147,479.089l75.027,75.026L1630.769,1568.52l490.742,490.741L2337.103,1843.67z
		 M1008.938,2337.104l316.484-316.483l-67.189-67.187l-249.295,249.294l-81.212-81.216l356.361-356.366l1014.407,1014.405
		l209.403-209.403L1426.303,1488.554l-67.188,67.19l1014.406,1014.404l-75.028,75.027L1284.086,1630.77l-490.738,490.742
		L1008.938,2337.104z M499.017,992.45l316.482,316.485l67.189-67.191L633.393,992.45l81.216-81.213l356.365,356.362L56.569,2282.006
		l209.404,209.404l1081.594-1081.594l-67.191-67.188L265.973,2357.032l-75.027-75.026L1205.35,1267.599l-490.742-490.74
		L499.017,992.45z M2042.771,714.609l-490.742,490.742L537.626,190.946l-75.027,75.027l1014.405,1014.405l-67.189,67.189
		L328.223,265.973L537.626,56.569l1014.404,1014.406l356.366-356.366l-81.216-81.216l-249.294,249.294l-67.188-67.188
		l316.482-316.482L2042.771,714.609z"/>
</g>
<polygon fill="#FFFFFF" points="3955.138,2779.561 3850.484,2643.673 3809.927,2693.517 3809.927,2779.561 3778.489,2779.561 
	3778.489,2465.988 3809.927,2465.988 3809.927,2646.137 3810.74,2646.137 3954.324,2465.988 3994.434,2465.988 3870.358,2619.059 
	3994.434,2779.561 "/>
<g>
	<defs>
		<rect id="SVGID_3_" x="0" width="10104.52" height="2899.192"/>
	</defs>
	<clipPath id="SVGID_4_">
		<use xlink:href="#SVGID_3_"  overflow="visible"/>
	</clipPath>
	<polygon clip-path="url(#SVGID_4_)" fill="none" stroke="#FFFFFF" stroke-width="80" stroke-miterlimit="10" points="
		3955.138,2779.561 3850.484,2643.673 3809.927,2693.517 3809.927,2779.561 3778.489,2779.561 3778.489,2465.988 3809.927,2465.988 
		3809.927,2646.137 3810.74,2646.137 3954.324,2465.988 3994.434,2465.988 3870.358,2619.059 3994.434,2779.561 	"/>
</g>
<polygon fill="#FFFFFF" points="4220.314,2779.561 4220.314,2632.496 4058.162,2632.496 4058.162,2779.561 4026.724,2779.561 
	4026.724,2465.988 4058.162,2465.988 4058.162,2604.155 4220.314,2604.155 4220.314,2465.988 4251.546,2465.988 4251.546,2779.561 
	"/>
<g>
	<defs>
		<rect id="SVGID_5_" x="0" width="10104.52" height="2899.192"/>
	</defs>
	<clipPath id="SVGID_6_">
		<use xlink:href="#SVGID_5_"  overflow="visible"/>
	</clipPath>
	<polygon clip-path="url(#SVGID_6_)" fill="none" stroke="#FFFFFF" stroke-width="80" stroke-miterlimit="10" points="
		4220.314,2779.561 4220.314,2632.496 4058.162,2632.496 4058.162,2779.561 4026.724,2779.561 4026.724,2465.988 4058.162,2465.988 
		4058.162,2604.155 4220.314,2604.155 4220.314,2465.988 4251.546,2465.988 4251.546,2779.561 	"/>
	<path clip-path="url(#SVGID_6_)" fill="#FFFFFF" d="M4506.788,2408.489c-0.937,1.508-2.566,3.44-4.767,5.783l-2.686,2.89
		l-8.471,8.288c-1.628,1.933-3.258,3.988-4.721,6.208c-2.528,3.707-3.953,9.714-4.399,17.98h-26.225v-5.58
		c0-7.023,1.915-13.864,5.781-20.481c1.102-1.916,2.932-4.398,5.581-7.431c1.098-1.244,2.889-3.035,5.374-5.398l5.581-5.373
		c1.791-1.915,3.42-3.85,4.967-5.785c2.198-3.032,3.34-6.414,3.34-10.138c0-5.782-1.834-10.344-5.417-13.643
		c-3.992-3.726-8.185-5.598-12.583-5.598c-6.352,0-11.485,2.911-15.31,8.694c-1.386,2.077-2.283,4.418-2.688,7.024
		c-0.327,1.527-0.407,5.72-0.407,12.625h-26.714v-8.065c0-11.177,4.641-21.092,13.845-29.786
		c8.552-7.859,19.139-11.789,31.682-11.789c12.786,0,23.212,3.868,31.191,11.584c8.553,8.411,12.868,18.202,12.868,29.36
		C4512.61,2396.211,4510.656,2402.422,4506.788,2408.489 M4562.616,2528.452c-26.468-26.346-58.068-39.497-94.921-39.497
		c-37.22,0-68.942,13.294-95.167,39.906c-26.059,26.611-39.091,58.474-39.091,95.573c0,36.119,13.399,67.209,40.15,93.271
		c26.471,25.941,57.826,38.888,94.108,38.888c36.69,0,68.289-13.03,94.757-39.091c26.593-26.062,39.908-57.499,39.908-94.311
		C4602.36,2586.359,4589.125,2554.801,4562.616,2528.452 M4576.707,2500.742c2.605,2.198,5.172,4.541,7.654,7.026
		c32.987,31.722,49.437,70.06,49.437,114.995c0,44.957-16.532,83.378-49.64,115.221c-32.535,31.437-71.383,47.154-116.462,47.154
		c-44.385,0-83.031-15.575-115.852-46.747c-33.227-31.701-49.842-69.696-49.842-113.957c0-45.507,16.206-84.254,48.621-116.259
		c32.251-31.702,71.303-47.562,117.073-47.562c32.413,0,61.569,8.062,87.51,24.186c3.014-1.363,5.456-2.481,7.247-3.299
		c2.771-1.239,6.801-3.867,12.218-7.858c5.374-4.01,8.389-8.896,9.081-14.679h-13.479v-37.24h39.091v38.462
		c-0.935,6.758-2.687,12.378-5.129,16.857c-2.525,4.501-5.499,8.248-9.04,11.28c-3.505,3.035-6.558,5.376-9.204,7.024
		C4583.791,2496.875,4580.695,2498.667,4576.707,2500.742"/>
	<path clip-path="url(#SVGID_6_)" fill="none" stroke="#FFFFFF" stroke-width="80" stroke-miterlimit="10" d="M4506.788,2408.489
		c-0.937,1.508-2.566,3.44-4.767,5.783l-2.686,2.89l-8.471,8.288c-1.628,1.933-3.258,3.988-4.721,6.208
		c-2.528,3.707-3.953,9.714-4.399,17.98h-26.225v-5.58c0-7.023,1.915-13.864,5.781-20.481c1.102-1.916,2.932-4.398,5.581-7.431
		c1.098-1.244,2.889-3.035,5.374-5.398l5.581-5.373c1.791-1.915,3.42-3.85,4.967-5.785c2.198-3.032,3.34-6.414,3.34-10.138
		c0-5.782-1.834-10.344-5.417-13.643c-3.992-3.726-8.185-5.598-12.583-5.598c-6.352,0-11.485,2.911-15.31,8.694
		c-1.386,2.077-2.283,4.418-2.688,7.024c-0.327,1.527-0.407,5.72-0.407,12.625h-26.714v-8.065c0-11.177,4.641-21.092,13.845-29.786
		c8.552-7.859,19.139-11.789,31.682-11.789c12.786,0,23.212,3.868,31.191,11.584c8.553,8.411,12.868,18.202,12.868,29.36
		C4512.61,2396.211,4510.656,2402.422,4506.788,2408.489z M4562.616,2528.452c-26.468-26.346-58.068-39.497-94.921-39.497
		c-37.22,0-68.942,13.294-95.167,39.906c-26.059,26.611-39.091,58.474-39.091,95.573c0,36.119,13.399,67.209,40.15,93.271
		c26.471,25.941,57.826,38.888,94.108,38.888c36.69,0,68.289-13.03,94.757-39.091c26.593-26.062,39.908-57.499,39.908-94.311
		C4602.36,2586.359,4589.125,2554.801,4562.616,2528.452z M4576.707,2500.742c2.605,2.198,5.172,4.541,7.654,7.026
		c32.987,31.722,49.437,70.06,49.437,114.995c0,44.957-16.532,83.378-49.64,115.221c-32.535,31.437-71.383,47.154-116.462,47.154
		c-44.385,0-83.031-15.575-115.852-46.747c-33.227-31.701-49.842-69.696-49.842-113.957c0-45.507,16.206-84.254,48.621-116.259
		c32.251-31.702,71.303-47.562,117.073-47.562c32.413,0,61.569,8.062,87.51,24.186c3.014-1.363,5.456-2.481,7.247-3.299
		c2.771-1.239,6.801-3.867,12.218-7.858c5.374-4.01,8.389-8.896,9.081-14.679h-13.479v-37.24h39.091v38.462
		c-0.935,6.758-2.687,12.378-5.129,16.857c-2.525,4.501-5.499,8.248-9.04,11.28c-3.505,3.035-6.558,5.376-9.204,7.024
		C4583.791,2496.875,4580.695,2498.667,4576.707,2500.742z"/>
</g>
<rect x="4683.884" y="2465.988" fill="#FFFFFF" width="31.437" height="313.573"/>
<g>
	<defs>
		<rect id="SVGID_7_" x="0" width="10104.52" height="2899.192"/>
	</defs>
	<clipPath id="SVGID_8_">
		<use xlink:href="#SVGID_7_"  overflow="visible"/>
	</clipPath>
	
		<rect x="4683.884" y="2465.988" clip-path="url(#SVGID_8_)" fill="none" stroke="#FFFFFF" stroke-width="80" stroke-miterlimit="10" width="31.437" height="313.573"/>
</g>
<polygon fill="#FFFFFF" points="5114.469,2779.561 4928.536,2503.839 4927.722,2503.839 4927.722,2779.561 4896.285,2779.561 
	4896.285,2465.988 4938.676,2465.988 5113.657,2726.196 5114.469,2726.196 5114.469,2465.988 5145.742,2465.988 5145.742,2779.561 
	"/>
<g>
	<defs>
		<rect id="SVGID_9_" x="0" width="10104.52" height="2899.192"/>
	</defs>
	<clipPath id="SVGID_10_">
		<use xlink:href="#SVGID_9_"  overflow="visible"/>
	</clipPath>
	<polygon clip-path="url(#SVGID_10_)" fill="none" stroke="#FFFFFF" stroke-width="80" stroke-miterlimit="10" points="
		5114.469,2779.561 4928.536,2503.839 4927.722,2503.839 4927.722,2779.561 4896.285,2779.561 4896.285,2465.988 4938.676,2465.988 
		5113.657,2726.196 5114.469,2726.196 5114.469,2465.988 5145.742,2465.988 5145.742,2779.561 	"/>
	<path clip-path="url(#SVGID_10_)" fill="#FFFFFF" d="M5528.605,2635.591c-3.464,42.614-21.259,78.265-53.347,106.953
		c-31.883,28.403-69.307,42.594-112.348,42.594c-45.078,0-84.252-15.717-117.482-47.154
		c-33.798-31.986-50.657-70.388-50.657-115.221c0-45.22,16.738-83.682,50.252-115.403c32.819-31.172,71.993-46.747,117.478-46.747
		c51.715,0,94.392,19.158,128.03,57.497c9.08,10.201,15.838,20.687,20.278,31.436h-36.405c-10.75-18.609-26.672-33.513-47.768-44.67
		c-20.277-10.628-41.536-15.921-63.726-15.921c-37.342,0-69.432,13.03-96.184,39.093c-26.997,26.183-40.519,57.905-40.519,95.143
		c0,37.505,13.643,69.227,40.966,95.144c26.998,25.513,59.33,38.258,96.998,38.258c28.261,0,54.526-8.612,78.796-25.858
		c25.083-17.773,41.087-40.048,48.011-66.803h-175.019v-28.341H5528.605z"/>
	<path clip-path="url(#SVGID_10_)" fill="none" stroke="#FFFFFF" stroke-width="80" stroke-miterlimit="10" d="M5528.605,2635.591
		c-3.464,42.614-21.259,78.265-53.347,106.953c-31.883,28.403-69.307,42.594-112.348,42.594c-45.078,0-84.252-15.717-117.482-47.154
		c-33.798-31.986-50.657-70.388-50.657-115.221c0-45.22,16.738-83.682,50.252-115.403c32.819-31.172,71.993-46.747,117.478-46.747
		c51.715,0,94.392,19.158,128.03,57.497c9.08,10.201,15.838,20.687,20.278,31.436h-36.405c-10.75-18.609-26.672-33.513-47.768-44.67
		c-20.277-10.628-41.536-15.921-63.726-15.921c-37.342,0-69.432,13.03-96.184,39.093c-26.997,26.183-40.519,57.905-40.519,95.143
		c0,37.505,13.643,69.227,40.966,95.144c26.998,25.513,59.33,38.258,96.998,38.258c28.261,0,54.526-8.612,78.796-25.858
		c25.083-17.773,41.087-40.048,48.011-66.803h-175.019v-28.341H5528.605z"/>
	<path clip-path="url(#SVGID_10_)" fill="#FFFFFF" d="M5792.316,2661.448c0,11.73-0.814,22.827-2.443,33.31
		c-2.119,12.279-5.213,22.886-9.368,31.846c-18.163,39.031-49.843,58.535-94.921,58.535c-45.08,0-76.76-19.504-94.92-58.535
		c-4.155-8.96-7.168-19.567-9.121-31.846c-1.791-10.483-2.69-21.58-2.69-33.31v-195.46h31.438v195.46
		c0,10.204,0.691,19.853,2.076,28.952c1.791,11.587,4.602,20.832,8.51,27.733c14.008,25.634,35.591,38.461,64.707,38.461
		c29.117,0,50.699-12.827,64.748-38.461c3.867-6.901,6.717-16.146,8.509-27.733c1.467-9.099,2.239-18.748,2.239-28.952v-195.46
		h31.236V2661.448z"/>
	<path clip-path="url(#SVGID_10_)" fill="none" stroke="#FFFFFF" stroke-width="80" stroke-miterlimit="10" d="M5792.316,2661.448
		c0,11.73-0.814,22.827-2.443,33.31c-2.119,12.279-5.213,22.886-9.368,31.846c-18.163,39.031-49.843,58.535-94.921,58.535
		c-45.08,0-76.76-19.504-94.92-58.535c-4.155-8.96-7.168-19.567-9.121-31.846c-1.791-10.483-2.69-21.58-2.69-33.31v-195.46h31.438
		v195.46c0,10.204,0.691,19.853,2.076,28.952c1.791,11.587,4.602,20.832,8.51,27.733c14.008,25.634,35.591,38.461,64.707,38.461
		c29.117,0,50.699-12.827,64.748-38.461c3.867-6.901,6.717-16.146,8.509-27.733c1.467-9.099,2.239-18.748,2.239-28.952v-195.46
		h31.236V2661.448z"/>
	<path clip-path="url(#SVGID_10_)" fill="#FFFFFF" d="M6056.434,2394.216l-83.97-45.302l13.683-25.449l84.172,46.339
		L6056.434,2394.216z M6046.087,2439.925l-36.404-31.03l-37.22,31.03h-38.684l61.449-52.956h28.138l60.389,52.956H6046.087z
		 M6103.423,2528.453c-26.468-26.347-58.15-39.498-94.962-39.498c-37.219,0-68.94,13.295-95.124,39.907
		c-26.062,26.611-39.093,58.473-39.093,95.573c0,36.119,13.359,67.209,40.111,93.27c26.468,25.941,57.865,38.889,94.106,38.889
		c36.691,0,68.248-13.03,94.72-39.092c26.631-26.062,39.945-57.498,39.945-94.31
		C6143.126,2586.36,6129.895,2554.801,6103.423,2528.453 M6124.926,2737.985c-32.578,31.436-71.346,47.154-116.464,47.154
		c-44.386,0-82.989-15.575-115.809-46.747c-33.231-31.701-49.844-69.697-49.844-113.957c0-45.508,16.209-84.254,48.58-116.26
		c32.293-31.701,71.303-47.561,117.073-47.561c45.243,0,84.13,15.718,116.664,47.155c32.946,31.722,49.439,70.06,49.439,114.994
		C6174.564,2667.72,6157.99,2706.142,6124.926,2737.985"/>
	<path clip-path="url(#SVGID_10_)" fill="none" stroke="#FFFFFF" stroke-width="80" stroke-miterlimit="10" d="M6056.434,2394.216
		l-83.97-45.302l13.683-25.449l84.172,46.339L6056.434,2394.216z M6046.087,2439.925l-36.404-31.03l-37.22,31.03h-38.684
		l61.449-52.956h28.138l60.389,52.956H6046.087z M6103.423,2528.453c-26.468-26.347-58.15-39.498-94.962-39.498
		c-37.219,0-68.94,13.295-95.124,39.907c-26.062,26.611-39.093,58.473-39.093,95.573c0,36.119,13.359,67.209,40.111,93.27
		c26.468,25.941,57.865,38.889,94.106,38.889c36.691,0,68.248-13.03,94.72-39.092c26.631-26.062,39.945-57.498,39.945-94.31
		C6143.126,2586.36,6129.895,2554.801,6103.423,2528.453z M6124.926,2737.985c-32.578,31.436-71.346,47.154-116.464,47.154
		c-44.386,0-82.989-15.575-115.809-46.747c-33.231-31.701-49.844-69.697-49.844-113.957c0-45.508,16.209-84.254,48.58-116.26
		c32.293-31.701,71.303-47.561,117.073-47.561c45.243,0,84.13,15.718,116.664,47.155c32.946,31.722,49.439,70.06,49.439,114.994
		C6174.564,2667.72,6157.99,2706.142,6124.926,2737.985z"/>
</g>
<polygon fill="#FFFFFF" points="6442.428,2779.561 6256.454,2503.839 6255.641,2503.839 6255.641,2779.561 6224.204,2779.561 
	6224.204,2465.988 6266.633,2465.988 6441.574,2726.196 6442.428,2726.196 6442.428,2465.988 6473.661,2465.988 6473.661,2779.561 
	"/>
<g>
	<defs>
		<rect id="SVGID_11_" x="0" width="10104.52" height="2899.192"/>
	</defs>
	<clipPath id="SVGID_12_">
		<use xlink:href="#SVGID_11_"  overflow="visible"/>
	</clipPath>
	<polygon clip-path="url(#SVGID_12_)" fill="none" stroke="#FFFFFF" stroke-width="80" stroke-miterlimit="10" points="
		6442.428,2779.561 6256.454,2503.839 6255.641,2503.839 6255.641,2779.561 6224.204,2779.561 6224.204,2465.988 6266.633,2465.988 
		6441.574,2726.196 6442.428,2726.196 6442.428,2465.988 6473.661,2465.988 6473.661,2779.561 	"/>
</g>
<polygon fill="#FFFFFF" points="6848.865,2779.561 6848.865,2632.496 6686.717,2632.496 6686.717,2779.561 6655.277,2779.561 
	6655.277,2465.988 6686.717,2465.988 6686.717,2604.155 6848.865,2604.155 6848.865,2465.988 6880.138,2465.988 6880.138,2779.561 
	"/>
<g>
	<defs>
		<rect id="SVGID_13_" x="0" width="10104.52" height="2899.192"/>
	</defs>
	<clipPath id="SVGID_14_">
		<use xlink:href="#SVGID_13_"  overflow="visible"/>
	</clipPath>
	<polygon clip-path="url(#SVGID_14_)" fill="none" stroke="#FFFFFF" stroke-width="80" stroke-miterlimit="10" points="
		6848.865,2779.561 6848.865,2632.496 6686.717,2632.496 6686.717,2779.561 6655.277,2779.561 6655.277,2465.988 6686.717,2465.988 
		6686.717,2604.155 6848.865,2604.155 6848.865,2465.988 6880.138,2465.988 6880.138,2779.561 	"/>
</g>
<path fill="#FFFFFF" d="M7053.451,2805.624h31.436v53.568h-31.436V2805.624z M7068.963,2501.76l-61.447,143.97h121.675
	L7068.963,2501.76z M7186.852,2779.561l-45.484-105.488h-145.62l-45.728,105.488h-32.66l133.807-313.573h35.187l134.625,313.573
	H7186.852z"/>
<g>
	<defs>
		<rect id="SVGID_15_" x="0" width="10104.52" height="2899.192"/>
	</defs>
	<clipPath id="SVGID_16_">
		<use xlink:href="#SVGID_15_"  overflow="visible"/>
	</clipPath>
	<path clip-path="url(#SVGID_16_)" fill="none" stroke="#FFFFFF" stroke-width="80" stroke-miterlimit="10" d="M7053.451,2805.624
		h31.436v53.568h-31.436V2805.624z M7068.963,2501.76l-61.447,143.97h121.675L7068.963,2501.76z M7186.852,2779.561l-45.484-105.488
		h-145.62l-45.728,105.488h-32.66l133.807-313.573h35.187l134.625,313.573H7186.852z"/>
</g>
<polygon fill="#FFFFFF" points="7475.607,2779.561 7289.63,2503.839 7288.818,2503.839 7288.818,2779.561 7257.38,2779.561 
	7257.38,2465.988 7299.81,2465.988 7474.75,2726.196 7475.607,2726.196 7475.607,2465.988 7506.838,2465.988 7506.838,2779.561 "/>
<g>
	<defs>
		<rect id="SVGID_17_" x="0" width="10104.52" height="2899.192"/>
	</defs>
	<clipPath id="SVGID_18_">
		<use xlink:href="#SVGID_17_"  overflow="visible"/>
	</clipPath>
	<polygon clip-path="url(#SVGID_18_)" fill="none" stroke="#FFFFFF" stroke-width="80" stroke-miterlimit="10" points="
		7475.607,2779.561 7289.63,2503.839 7288.818,2503.839 7288.818,2779.561 7257.38,2779.561 7257.38,2465.988 7299.81,2465.988 
		7474.75,2726.196 7475.607,2726.196 7475.607,2465.988 7506.838,2465.988 7506.838,2779.561 	"/>
</g>
<polygon fill="#FFFFFF" points="7764.768,2779.561 7764.768,2632.496 7602.615,2632.496 7602.615,2779.561 7571.177,2779.561 
	7571.177,2465.988 7602.615,2465.988 7602.615,2604.155 7764.768,2604.155 7764.768,2465.988 7796.042,2465.988 7796.042,2779.561 
	"/>
<g>
	<defs>
		<rect id="SVGID_19_" x="0" width="10104.52" height="2899.192"/>
	</defs>
	<clipPath id="SVGID_20_">
		<use xlink:href="#SVGID_19_"  overflow="visible"/>
	</clipPath>
	<polygon clip-path="url(#SVGID_20_)" fill="none" stroke="#FFFFFF" stroke-width="80" stroke-miterlimit="10" points="
		7764.768,2779.561 7764.768,2632.496 7602.615,2632.496 7602.615,2779.561 7571.177,2779.561 7571.177,2465.988 7602.615,2465.988 
		7602.615,2604.155 7764.768,2604.155 7764.768,2465.988 7796.042,2465.988 7796.042,2779.561 	"/>
	<path clip-path="url(#SVGID_20_)" fill="#FFFFFF" d="M8116.639,2502.596c-7.859-3.846-16.654-6.272-26.267-7.249l-13.436-0.814
		h-68.248v130.308h68.248l13.436-0.835c9.613-0.957,18.408-3.298,26.267-7.025c24.229-11.584,36.403-30.683,36.403-57.294
		C8153.042,2533.077,8140.867,2514.038,8116.639,2502.596 M8145.389,2635.185c-10.791,7.31-23.742,12.337-38.892,15.107
		c-6.35,1.1-13.313,1.935-20.887,2.484c-6.068,0.408-13.115,0.611-21.135,0.611h-55.787v126.174h-31.48v-313.573h87.267
		c8.02,0,15.067,0.204,21.135,0.611c7.574,0.57,14.537,1.385,20.887,2.483c15.15,2.912,28.101,8.002,38.892,15.312
		c25.937,17.653,38.889,42.757,38.889,75.293C8184.277,2592.224,8171.325,2617.39,8145.389,2635.185"/>
	<path clip-path="url(#SVGID_20_)" fill="none" stroke="#FFFFFF" stroke-width="80" stroke-miterlimit="10" d="M8116.639,2502.596
		c-7.859-3.846-16.654-6.272-26.267-7.249l-13.436-0.814h-68.248v130.308h68.248l13.436-0.835
		c9.613-0.957,18.408-3.298,26.267-7.025c24.229-11.584,36.403-30.683,36.403-57.294
		C8153.042,2533.077,8140.867,2514.038,8116.639,2502.596z M8145.389,2635.185c-10.791,7.31-23.742,12.337-38.892,15.107
		c-6.35,1.1-13.313,1.935-20.887,2.484c-6.068,0.408-13.115,0.611-21.135,0.611h-55.787v126.174h-31.48v-313.573h87.267
		c8.02,0,15.067,0.204,21.135,0.611c7.574,0.57,14.537,1.385,20.887,2.483c15.15,2.912,28.101,8.002,38.892,15.312
		c25.937,17.653,38.889,42.757,38.889,75.293C8184.277,2592.224,8171.325,2617.39,8145.389,2635.185z"/>
</g>
<polygon fill="#FFFFFF" points="8421.928,2779.561 8421.928,2632.496 8259.773,2632.496 8259.773,2779.561 8228.334,2779.561 
	8228.334,2465.988 8259.773,2465.988 8259.773,2604.155 8421.928,2604.155 8421.928,2465.988 8453.198,2465.988 8453.198,2779.561 
	"/>
<g>
	<defs>
		<rect id="SVGID_21_" x="0" width="10104.52" height="2899.192"/>
	</defs>
	<clipPath id="SVGID_22_">
		<use xlink:href="#SVGID_21_"  overflow="visible"/>
	</clipPath>
	<polygon clip-path="url(#SVGID_22_)" fill="none" stroke="#FFFFFF" stroke-width="80" stroke-miterlimit="10" points="
		8421.928,2779.561 8421.928,2632.496 8259.773,2632.496 8259.773,2779.561 8228.334,2779.561 8228.334,2465.988 8259.773,2465.988 
		8259.773,2604.155 8421.928,2604.155 8421.928,2465.988 8453.198,2465.988 8453.198,2779.561 	"/>
	<path clip-path="url(#SVGID_22_)" fill="#FFFFFF" d="M8600.039,2448.191l-13.885-24.412l84.168-46.32l13.682,25.43
		L8600.039,2448.191z M8730.51,2661.448c0,11.73-0.814,22.827-2.443,33.31c-2.076,12.279-5.17,22.886-9.326,31.846
		c-18.201,39.031-49.842,58.535-94.919,58.535c-45.122,0-76.759-19.504-94.962-58.535c-4.156-8.96-7.166-19.567-9.121-31.846
		c-1.793-10.483-2.689-21.58-2.689-33.31v-195.46h31.479v195.46c0,10.204,0.691,19.853,2.078,28.952
		c1.791,11.587,4.6,20.832,8.469,27.733c14.049,25.634,35.627,38.461,64.747,38.461c29.075,0,50.657-12.827,64.745-38.461
		c3.828-6.901,6.678-16.146,8.469-27.733c1.506-9.099,2.283-18.748,2.283-28.952v-195.46h31.191V2661.448z"/>
	<path clip-path="url(#SVGID_22_)" fill="none" stroke="#FFFFFF" stroke-width="80" stroke-miterlimit="10" d="M8600.039,2448.191
		l-13.885-24.412l84.168-46.32l13.682,25.43L8600.039,2448.191z M8730.51,2661.448c0,11.73-0.814,22.827-2.443,33.31
		c-2.076,12.279-5.17,22.886-9.326,31.846c-18.201,39.031-49.842,58.535-94.919,58.535c-45.122,0-76.759-19.504-94.962-58.535
		c-4.156-8.96-7.166-19.567-9.121-31.846c-1.793-10.483-2.689-21.58-2.689-33.31v-195.46h31.479v195.46
		c0,10.204,0.691,19.853,2.078,28.952c1.791,11.587,4.6,20.832,8.469,27.733c14.049,25.634,35.627,38.461,64.747,38.461
		c29.075,0,50.657-12.827,64.745-38.461c3.828-6.901,6.678-16.146,8.469-27.733c1.506-9.099,2.283-18.748,2.283-28.952v-195.46
		h31.191V2661.448z"/>
	<path clip-path="url(#SVGID_22_)" fill="#FFFFFF" d="M9089.428,2697.446c-31.848,58.476-79.979,87.693-144.396,87.693
		c-45.203,0-83.848-15.636-115.816-46.951c-32.168-31.578-48.211-69.918-48.211-114.996c0-45.649,15.879-84.11,47.563-115.423
		c31.6-31.153,70.285-46.75,116.057-46.75c49.518,0,90.727,18.609,123.709,55.849c9.08,10.202,15.721,20.137,19.83,29.789h-35.141
		c-25.656-38.198-61.98-57.296-109.051-57.296c-35.674,0-66.619,13.521-92.846,40.539c-25.814,26.61-38.684,57.844-38.684,93.697
		c0,35.307,13.191,66.255,39.5,92.866c26.467,26.774,57.375,40.131,92.682,40.131c21.908,0,42.514-5.376,61.814-16.125
		c17.959-10.202,33.881-24.535,47.805-43.023H9089.428z"/>
	<path clip-path="url(#SVGID_22_)" fill="none" stroke="#FFFFFF" stroke-width="80" stroke-miterlimit="10" d="M9089.428,2697.446
		c-31.848,58.476-79.979,87.693-144.396,87.693c-45.203,0-83.848-15.636-115.816-46.951
		c-32.168-31.578-48.211-69.918-48.211-114.996c0-45.649,15.879-84.11,47.563-115.423c31.6-31.153,70.285-46.75,116.057-46.75
		c49.518,0,90.727,18.609,123.709,55.849c9.08,10.202,15.721,20.137,19.83,29.789h-35.141
		c-25.656-38.198-61.98-57.296-109.051-57.296c-35.674,0-66.619,13.521-92.846,40.539c-25.814,26.61-38.684,57.844-38.684,93.697
		c0,35.307,13.191,66.255,39.5,92.866c26.467,26.774,57.375,40.131,92.682,40.131c21.908,0,42.514-5.376,61.814-16.125
		c17.959-10.202,33.881-24.535,47.805-43.023H9089.428z"/>
</g>
<polygon fill="#FFFFFF" points="2815.093,2141.139 2815.093,1107.378 3022.094,1107.378 3022.094,1965.44 3235.101,1965.44 
	3235.101,2141.139 "/>
<polygon fill="none" stroke="#FFFFFF" stroke-width="80" stroke-miterlimit="10" points="2815.093,2141.139 2815.093,1107.378 
	3022.094,1107.378 3022.094,1965.44 3235.101,1965.44 3235.101,2141.139 "/>
<polygon fill="#FFFFFF" points="3292.855,2141.139 3292.855,1107.378 3706.855,1107.378 3706.855,1307.147 3503.471,1307.147 
	3503.471,1508.129 3698.439,1508.129 3698.439,1703.083 3503.471,1703.083 3503.471,1940.166 3720.092,1940.166 3720.092,2141.139 
	"/>
<polygon fill="none" stroke="#FFFFFF" stroke-width="80" stroke-miterlimit="10" points="3292.855,2141.139 3292.855,1107.378 
	3706.855,1107.378 3706.855,1307.147 3503.471,1307.147 3503.471,1508.129 3698.439,1508.129 3698.439,1703.083 3503.471,1703.083 
	3503.471,1940.166 3720.092,1940.166 3720.092,2141.139 "/>
<g>
	<defs>
		<rect id="SVGID_23_" x="0" width="10104.52" height="2899.192"/>
	</defs>
	<clipPath id="SVGID_24_">
		<use xlink:href="#SVGID_23_"  overflow="visible"/>
	</clipPath>
	<path clip-path="url(#SVGID_24_)" fill="#FFFFFF" d="M3835.004,2071.942c-36.528-52.536-54.763-132.173-54.763-238.892v-445.276
		c0-95.462,21.248-167.673,63.784-216.623c42.516-48.921,105.91-73.408,190.146-73.408c68.175,0,121.132,13.65,158.865,40.924
		c37.694,27.284,63.783,66.991,78.208,119.139c14.444,52.159,21.675,119.138,21.675,200.972h-202.178v-92.661
		c0-24.864-3.422-44.118-10.245-57.767c-6.823-13.636-19.052-20.46-36.704-20.46c-39.308,0-58.961,25.689-58.961,77.02v500.636
		c0,31.287,4.003,54.967,12.033,71.005c8.01,16.057,22.065,24.065,42.127,24.065c20.043,0,34.078-8.008,42.107-24.065
		c8.011-16.038,12.033-39.718,12.033-71.005v-148.019h-55.346v-178.109h252.721v601.72h-83.046l-34.895-86.643
		c-36.919,64.192-93.857,96.267-170.878,96.267C3927.073,2150.762,3871.494,2124.5,3835.004,2071.942"/>
	<path clip-path="url(#SVGID_24_)" fill="none" stroke="#FFFFFF" stroke-width="80" stroke-miterlimit="10" d="M3835.004,2071.942
		c-36.528-52.536-54.763-132.173-54.763-238.892v-445.276c0-95.462,21.248-167.673,63.784-216.623
		c42.516-48.921,105.91-73.408,190.146-73.408c68.175,0,121.132,13.65,158.865,40.924c37.694,27.284,63.783,66.991,78.208,119.139
		c14.444,52.159,21.675,119.138,21.675,200.972h-202.178v-92.661c0-24.864-3.422-44.118-10.245-57.767
		c-6.823-13.636-19.052-20.46-36.704-20.46c-39.308,0-58.961,25.689-58.961,77.02v500.636c0,31.287,4.003,54.967,12.033,71.005
		c8.01,16.057,22.065,24.065,42.127,24.065c20.043,0,34.078-8.008,42.107-24.065c8.011-16.038,12.033-39.718,12.033-71.005v-148.019
		h-55.346v-178.109h252.721v601.72h-83.046l-34.895-86.643c-36.919,64.192-93.857,96.267-170.878,96.267
		C3927.073,2150.762,3871.494,2124.5,3835.004,2071.942z"/>
</g>
<path fill="#FFFFFF" d="M4573.304,1808.985h93.857l-45.722-525.906h-9.622L4573.304,1808.985z M4344.65,2141.139l99.881-1033.761
	h350.196l98.68,1033.761h-196.151l-14.444-167.281h-125.156l-12.033,167.281H4344.65z"/>
<path fill="none" stroke="#FFFFFF" stroke-width="80" stroke-miterlimit="10" d="M4573.304,1808.985h93.857l-45.722-525.906h-9.622
	L4573.304,1808.985z M4344.65,2141.139l99.881-1033.761h350.196l98.68,1033.761h-196.151l-14.444-167.281h-125.156l-12.033,167.281
	H4344.65z"/>
<g>
	<defs>
		<rect id="SVGID_25_" x="0" width="10104.52" height="2899.192"/>
	</defs>
	<clipPath id="SVGID_26_">
		<use xlink:href="#SVGID_25_"  overflow="visible"/>
	</clipPath>
	<path clip-path="url(#SVGID_26_)" fill="#FFFFFF" d="M5015.548,2079.767c-45.333-47.336-68-112.317-68-194.965v-476.568
		c0-102.682,20.45-180.102,61.372-232.263c40.922-52.147,105.093-78.227,192.556-78.227c76.205,0,137.597,20.87,184.137,62.58
		c46.521,41.728,69.79,101.896,69.79,180.523v178.108h-205.794v-152.837c0-29.676-3.596-50.139-10.828-61.382
		c-7.212-11.22-19.672-16.846-37.305-16.846c-18.469,0-31.106,6.434-37.908,19.256c-6.825,12.84-10.227,31.707-10.227,56.56v518.696
		c0,27.283,4.006,47.141,12.034,59.562c8.009,12.452,20.043,18.653,36.101,18.653c32.076,0,48.133-26.058,48.133-78.215V1695.86
		h208.205v194.958c0,173.299-87.073,259.944-261.159,259.944C5121.246,2150.762,5060.865,2127.113,5015.548,2079.767"/>
	<path clip-path="url(#SVGID_26_)" fill="none" stroke="#FFFFFF" stroke-width="80" stroke-miterlimit="10" d="M5015.548,2079.767
		c-45.333-47.336-68-112.317-68-194.965v-476.568c0-102.682,20.45-180.102,61.372-232.263
		c40.922-52.147,105.093-78.227,192.556-78.227c76.205,0,137.597,20.87,184.137,62.58c46.521,41.728,69.79,101.896,69.79,180.523
		v178.108h-205.794v-152.837c0-29.676-3.596-50.139-10.828-61.382c-7.212-11.22-19.672-16.846-37.305-16.846
		c-18.469,0-31.106,6.434-37.908,19.256c-6.825,12.84-10.227,31.707-10.227,56.56v518.696c0,27.283,4.006,47.141,12.034,59.562
		c8.009,12.452,20.043,18.653,36.101,18.653c32.076,0,48.133-26.058,48.133-78.215V1695.86h208.205v194.958
		c0,173.299-87.073,259.944-261.159,259.944C5121.246,2150.762,5060.865,2127.113,5015.548,2079.767z"/>
</g>
<polygon fill="#FFFFFF" points="5651.572,2141.139 5651.572,1800.567 5486.701,1107.378 5691.27,1107.378 5749.047,1457.574 
	5806.804,1107.378 6011.392,1107.378 5846.521,1800.567 5846.521,2141.139 "/>
<polygon fill="none" stroke="#FFFFFF" stroke-width="80" stroke-miterlimit="10" points="5651.572,2141.139 5651.572,1800.567 
	5486.701,1107.378 5691.27,1107.378 5749.047,1457.574 5806.804,1107.378 6011.392,1107.378 5846.521,1800.567 5846.521,2141.139 
	"/>
<g>
	<defs>
		<rect id="SVGID_27_" x="0" width="10104.52" height="2899.192"/>
	</defs>
	<clipPath id="SVGID_28_">
		<use xlink:href="#SVGID_27_"  overflow="visible"/>
	</clipPath>
	<path clip-path="url(#SVGID_28_)" fill="#FFFFFF" d="M6404.316,2079.767c-45.335-47.336-67.998-112.317-67.998-194.965v-476.568
		c0-102.682,20.448-180.102,61.37-232.263c40.921-52.147,105.095-78.227,192.556-78.227c76.205,0,137.596,20.87,184.136,62.58
		c46.522,41.728,69.791,101.896,69.791,180.523v178.108h-205.794v-152.837c0-29.676-3.598-50.139-10.828-61.382
		c-7.212-11.22-19.672-16.846-37.305-16.846c-18.47,0-31.106,6.434-37.91,19.256c-6.822,12.84-10.223,31.707-10.223,56.56v518.696
		c0,27.283,4.002,47.141,12.032,59.562c8.011,12.452,20.043,18.653,36.101,18.653c32.078,0,48.133-26.058,48.133-78.215V1695.86
		h208.205v194.958c0,173.299-87.073,259.944-261.161,259.944C6510.015,2150.762,6449.633,2127.113,6404.316,2079.767"/>
	<path clip-path="url(#SVGID_28_)" fill="none" stroke="#FFFFFF" stroke-width="80" stroke-miterlimit="10" d="M6404.316,2079.767
		c-45.335-47.336-67.998-112.317-67.998-194.965v-476.568c0-102.682,20.448-180.102,61.37-232.263
		c40.921-52.147,105.095-78.227,192.556-78.227c76.205,0,137.596,20.87,184.136,62.58c46.522,41.728,69.791,101.896,69.791,180.523
		v178.108h-205.794v-152.837c0-29.676-3.598-50.139-10.828-61.382c-7.212-11.22-19.672-16.846-37.305-16.846
		c-18.47,0-31.106,6.434-37.91,19.256c-6.822,12.84-10.223,31.707-10.223,56.56v518.696c0,27.283,4.002,47.141,12.032,59.562
		c8.011,12.452,20.043,18.653,36.101,18.653c32.078,0,48.133-26.058,48.133-78.215V1695.86h208.205v194.958
		c0,173.299-87.073,259.944-261.161,259.944C6510.015,2150.762,6449.633,2127.113,6404.316,2079.767z"/>
</g>
<polygon fill="#FFFFFF" points="6915.168,2141.139 6915.168,1107.378 7329.166,1107.378 7329.166,1307.147 7125.783,1307.147 
	7125.783,1508.129 7320.747,1508.129 7320.747,1703.083 7125.783,1703.083 7125.783,1940.166 7342.404,1940.166 7342.404,2141.139 
	"/>
<polygon fill="none" stroke="#FFFFFF" stroke-width="80" stroke-miterlimit="10" points="6915.168,2141.139 6915.168,1107.378 
	7329.166,1107.378 7329.166,1307.147 7125.783,1307.147 7125.783,1508.129 7320.747,1508.129 7320.747,1703.083 7125.783,1703.083 
	7125.783,1940.166 7342.404,1940.166 7342.404,2141.139 "/>
<polygon fill="#FFFFFF" points="7410.969,2141.139 7410.969,1107.378 7623.994,1107.378 7719.056,1601.996 7719.056,1107.378 
	7918.826,1107.378 7918.826,2141.139 7716.646,2141.139 7613.167,1623.651 7613.167,2141.139 "/>
<polygon fill="none" stroke="#FFFFFF" stroke-width="80" stroke-miterlimit="10" points="7410.969,2141.139 7410.969,1107.378 
	7623.994,1107.378 7719.056,1601.996 7719.056,1107.378 7918.826,1107.378 7918.826,2141.139 7716.646,2141.139 7613.167,1623.651 
	7613.167,2141.139 "/>
<polygon fill="#FFFFFF" points="8099.33,2141.139 8099.33,1305.939 7976.582,1305.939 7976.582,1107.378 8429.07,1107.378 
	8429.07,1305.939 8306.324,1305.939 8306.324,2141.139 "/>
<polygon fill="none" stroke="#FFFFFF" stroke-width="80" stroke-miterlimit="10" points="8099.33,2141.139 8099.33,1305.939 
	7976.582,1305.939 7976.582,1107.378 8429.07,1107.378 8429.07,1305.939 8306.324,1305.939 8306.324,2141.139 "/>
<g>
	<defs>
		<rect id="SVGID_29_" x="0" width="10104.52" height="2899.192"/>
	</defs>
	<clipPath id="SVGID_30_">
		<use xlink:href="#SVGID_29_"  overflow="visible"/>
	</clipPath>
	<path clip-path="url(#SVGID_30_)" fill="#FFFFFF" d="M8746.781,1490.07c28.891,0,43.332-31.291,43.332-93.869
		c0-27.265-1.205-47.724-3.613-61.372c-2.41-13.636-6.824-23.057-13.24-28.286c-6.436-5.208-15.65-7.826-27.684-7.826h-48.135
		v191.353H8746.781z M8486.83,1107.378h317.709c50.545,0,89.656,11.432,117.344,34.292c27.678,22.872,46.343,54.967,55.968,96.278
		c9.622,41.33,14.444,94.081,14.444,158.253c0,58.573-7.643,104.307-22.885,137.199c-15.238,32.902-41.717,55.766-79.41,68.596
		c31.277,6.424,53.945,22.073,67.98,46.927c14.035,24.884,21.074,58.574,21.074,101.092l-2.413,391.124h-202.175v-404.354
		c0-28.89-5.617-47.338-16.857-55.366c-11.232-8.01-31.707-12.034-61.373-12.034v471.754H8486.83V1107.378z"/>
	<path clip-path="url(#SVGID_30_)" fill="none" stroke="#FFFFFF" stroke-width="80" stroke-miterlimit="10" d="M8746.781,1490.07
		c28.891,0,43.332-31.291,43.332-93.869c0-27.265-1.205-47.724-3.613-61.372c-2.41-13.636-6.824-23.057-13.24-28.286
		c-6.436-5.208-15.65-7.826-27.684-7.826h-48.135v191.353H8746.781z M8486.83,1107.378h317.709
		c50.545,0,89.656,11.432,117.344,34.292c27.678,22.872,46.343,54.967,55.968,96.278c9.622,41.33,14.444,94.081,14.444,158.253
		c0,58.573-7.643,104.307-22.885,137.199c-15.238,32.902-41.717,55.766-79.41,68.596c31.277,6.424,53.945,22.073,67.98,46.927
		c14.035,24.884,21.074,58.574,21.074,101.092l-2.413,391.124h-202.175v-404.354c0-28.89-5.617-47.338-16.857-55.366
		c-11.232-8.01-31.707-12.034-61.373-12.034v471.754H8486.83V1107.378z"/>
	<path clip-path="url(#SVGID_30_)" fill="#FFFFFF" d="M9261.85,1808.985h93.859l-45.725-525.906h-9.623L9261.85,1808.985z
		 M9033.197,2141.139l99.883-1033.761h350.191l98.684,1033.761h-196.154l-14.443-167.281h-125.156l-12.031,167.281H9033.197z"/>
	<path clip-path="url(#SVGID_30_)" fill="none" stroke="#FFFFFF" stroke-width="80" stroke-miterlimit="10" d="M9261.85,1808.985
		h93.859l-45.725-525.906h-9.623L9261.85,1808.985z M9033.197,2141.139l99.883-1033.761h350.191l98.684,1033.761h-196.154
		l-14.443-167.281h-125.156l-12.031,167.281H9033.197z"/>
	<polygon clip-path="url(#SVGID_30_)" fill="#FFFFFF" points="9644.51,2141.139 9644.51,1107.378 9851.512,1107.378 
		9851.512,1965.44 10064.52,1965.44 10064.52,2141.139 	"/>
	<polygon clip-path="url(#SVGID_30_)" fill="none" stroke="#FFFFFF" stroke-width="80" stroke-miterlimit="10" points="
		9644.51,2141.139 9644.51,1107.378 9851.512,1107.378 9851.512,1965.44 10064.52,1965.44 10064.52,2141.139 	"/>
	<path clip-path="url(#SVGID_30_)" fill="#B1812C" d="M2337.103,1843.67l-316.485-316.482l-67.187,67.187l249.296,249.295
		l-81.216,81.215l-356.365-356.365L2779.55,554.115l-209.403-209.404L1488.553,1426.303l67.189,67.19L2570.147,479.089
		l75.027,75.026L1630.769,1568.52l490.742,490.741L2337.103,1843.67z M1008.938,2337.104l316.484-316.483l-67.189-67.187
		l-249.295,249.294l-81.212-81.216l356.361-356.366l1014.407,1014.405l209.403-209.403L1426.303,1488.554l-67.188,67.19
		l1014.406,1014.404l-75.028,75.027L1284.086,1630.77l-490.738,490.742L1008.938,2337.104z M499.017,992.45l316.482,316.485
		l67.189-67.191L633.393,992.45l81.216-81.213l356.365,356.362L56.569,2282.006l209.404,209.404l1081.594-1081.594l-67.191-67.188
		L265.973,2357.032l-75.027-75.026L1205.35,1267.599l-490.742-490.74L499.017,992.45z M2042.771,714.609l-490.742,490.742
		L537.626,190.946l-75.027,75.027l1014.405,1014.405l-67.189,67.189L328.223,265.973L537.626,56.569l1014.404,1014.406
		l356.366-356.366l-81.216-81.216l-249.294,249.294l-67.188-67.188l316.482-316.482L2042.771,714.609z"/>
	<polygon clip-path="url(#SVGID_30_)" fill="#B1812C" points="3955.138,2779.561 3850.484,2643.673 3809.927,2693.517 
		3809.927,2779.561 3778.489,2779.561 3778.489,2465.988 3809.927,2465.988 3809.927,2646.137 3810.74,2646.137 3954.324,2465.988 
		3994.434,2465.988 3870.358,2619.059 3994.434,2779.561 	"/>
	<polygon clip-path="url(#SVGID_30_)" fill="#B1812C" points="4220.314,2779.561 4220.314,2632.496 4058.162,2632.496 
		4058.162,2779.561 4026.724,2779.561 4026.724,2465.988 4058.162,2465.988 4058.162,2604.155 4220.314,2604.155 4220.314,2465.988 
		4251.546,2465.988 4251.546,2779.561 	"/>
	<rect x="4683.884" y="2465.988" clip-path="url(#SVGID_30_)" fill="#B1812C" width="31.437" height="313.573"/>
	<polygon clip-path="url(#SVGID_30_)" fill="#B1812C" points="5114.469,2779.561 4928.536,2503.839 4927.722,2503.839 
		4927.722,2779.561 4896.285,2779.561 4896.285,2465.988 4938.676,2465.988 5113.657,2726.196 5114.469,2726.196 5114.469,2465.988 
		5145.742,2465.988 5145.742,2779.561 	"/>
	<polygon clip-path="url(#SVGID_30_)" fill="#B1812C" points="6442.428,2779.561 6256.454,2503.839 6255.641,2503.839 
		6255.641,2779.561 6224.204,2779.561 6224.204,2465.988 6266.633,2465.988 6441.574,2726.196 6442.428,2726.196 6442.428,2465.988 
		6473.661,2465.988 6473.661,2779.561 	"/>
	<polygon clip-path="url(#SVGID_30_)" fill="#B1812C" points="6848.865,2779.561 6848.865,2632.496 6686.717,2632.496 
		6686.717,2779.561 6655.277,2779.561 6655.277,2465.988 6686.717,2465.988 6686.717,2604.155 6848.865,2604.155 6848.865,2465.988 
		6880.138,2465.988 6880.138,2779.561 	"/>
	<path clip-path="url(#SVGID_30_)" fill="#B1812C" d="M7053.451,2805.624h31.436v53.568h-31.436V2805.624z M7068.963,2501.76
		l-61.447,143.97h121.675L7068.963,2501.76z M7186.852,2779.561l-45.484-105.488h-145.62l-45.728,105.488h-32.66l133.807-313.573
		h35.187l134.625,313.573H7186.852z"/>
	<polygon clip-path="url(#SVGID_30_)" fill="#B1812C" points="7475.607,2779.561 7289.63,2503.839 7288.818,2503.839 
		7288.818,2779.561 7257.38,2779.561 7257.38,2465.988 7299.81,2465.988 7474.75,2726.196 7475.607,2726.196 7475.607,2465.988 
		7506.838,2465.988 7506.838,2779.561 	"/>
	<polygon clip-path="url(#SVGID_30_)" fill="#B1812C" points="7764.768,2779.561 7764.768,2632.496 7602.615,2632.496 
		7602.615,2779.561 7571.177,2779.561 7571.177,2465.988 7602.615,2465.988 7602.615,2604.155 7764.768,2604.155 7764.768,2465.988 
		7796.042,2465.988 7796.042,2779.561 	"/>
	<polygon clip-path="url(#SVGID_30_)" fill="#B1812C" points="8421.928,2779.561 8421.928,2632.496 8259.773,2632.496 
		8259.773,2779.561 8228.334,2779.561 8228.334,2465.988 8259.773,2465.988 8259.773,2604.155 8421.928,2604.155 8421.928,2465.988 
		8453.198,2465.988 8453.198,2779.561 	"/>
	<polygon clip-path="url(#SVGID_30_)" fill="#B1812C" points="2815.093,2141.139 2815.093,1107.378 3022.094,1107.378 
		3022.094,1965.44 3235.101,1965.44 3235.101,2141.139 	"/>
	<polygon clip-path="url(#SVGID_30_)" fill="#B1812C" points="3292.855,2141.139 3292.855,1107.378 3706.855,1107.378 
		3706.855,1307.147 3503.471,1307.147 3503.471,1508.129 3698.439,1508.129 3698.439,1703.083 3503.471,1703.083 3503.471,1940.166 
		3720.092,1940.166 3720.092,2141.139 	"/>
	<path clip-path="url(#SVGID_30_)" fill="#B1812C" d="M4573.304,1808.985h93.857l-45.722-525.906h-9.622L4573.304,1808.985z
		 M4344.65,2141.139l99.881-1033.761h350.196l98.68,1033.761h-196.151l-14.444-167.281h-125.156l-12.033,167.281H4344.65z"/>
	<polygon clip-path="url(#SVGID_30_)" fill="#B1812C" points="5651.572,2141.139 5651.572,1800.567 5486.701,1107.378 
		5691.27,1107.378 5749.047,1457.574 5806.804,1107.378 6011.392,1107.378 5846.521,1800.567 5846.521,2141.139 	"/>
	<polygon clip-path="url(#SVGID_30_)" fill="#B1812C" points="6915.168,2141.139 6915.168,1107.378 7329.166,1107.378 
		7329.166,1307.147 7125.783,1307.147 7125.783,1508.129 7320.747,1508.129 7320.747,1703.083 7125.783,1703.083 7125.783,1940.166 
		7342.404,1940.166 7342.404,2141.139 	"/>
	<polygon clip-path="url(#SVGID_30_)" fill="#B1812C" points="7410.969,2141.139 7410.969,1107.378 7623.994,1107.378 
		7719.056,1601.996 7719.056,1107.378 7918.826,1107.378 7918.826,2141.139 7716.646,2141.139 7613.167,1623.651 7613.167,2141.139 
			"/>
	<polygon clip-path="url(#SVGID_30_)" fill="#B1812C" points="8099.33,2141.139 8099.33,1305.939 7976.582,1305.939 
		7976.582,1107.378 8429.07,1107.378 8429.07,1305.939 8306.324,1305.939 8306.324,2141.139 	"/>
	<path clip-path="url(#SVGID_30_)" fill="#B1812C" d="M9261.85,1808.985h93.859l-45.725-525.906h-9.623L9261.85,1808.985z
		 M9033.197,2141.139l99.883-1033.761h350.191l98.684,1033.761h-196.154l-14.443-167.281h-125.156l-12.031,167.281H9033.197z"/>
	<polygon clip-path="url(#SVGID_30_)" fill="#B1812C" points="9644.51,2141.139 9644.51,1107.378 9851.512,1107.378 
		9851.512,1965.44 10064.52,1965.44 10064.52,2141.139 	"/>
	<path clip-path="url(#SVGID_30_)" fill="#B1812C" d="M5015.548,2079.767c-45.333-47.336-68-112.317-68-194.965v-476.568
		c0-102.682,20.45-180.102,61.372-232.263c40.922-52.147,105.093-78.227,192.556-78.227c76.205,0,137.597,20.87,184.137,62.58
		c46.521,41.728,69.79,101.896,69.79,180.523v178.108h-205.794v-152.837c0-29.676-3.596-50.139-10.828-61.382
		c-7.212-11.22-19.672-16.846-37.305-16.846c-18.469,0-31.106,6.434-37.908,19.256c-6.825,12.84-10.227,31.707-10.227,56.56v518.696
		c0,27.283,4.006,47.141,12.034,59.562c8.009,12.452,20.043,18.653,36.101,18.653c32.076,0,48.133-26.058,48.133-78.215V1695.86
		h208.205v194.958c0,173.299-87.073,259.944-261.159,259.944C5121.246,2150.762,5060.865,2127.113,5015.548,2079.767"/>
	<path clip-path="url(#SVGID_30_)" fill="#B1812C" d="M3835.004,2071.942c-36.528-52.536-54.763-132.173-54.763-238.892v-445.276
		c0-95.462,21.248-167.673,63.784-216.623c42.516-48.921,105.91-73.408,190.146-73.408c68.175,0,121.132,13.65,158.865,40.924
		c37.694,27.284,63.783,66.991,78.208,119.139c14.444,52.159,21.675,119.138,21.675,200.972h-202.178v-92.661
		c0-24.864-3.422-44.118-10.245-57.767c-6.823-13.636-19.052-20.46-36.704-20.46c-39.308,0-58.961,25.689-58.961,77.02v500.636
		c0,31.287,4.003,54.967,12.033,71.005c8.01,16.057,22.065,24.065,42.127,24.065c20.043,0,34.078-8.008,42.107-24.065
		c8.011-16.038,12.033-39.718,12.033-71.005v-148.019h-55.346v-178.109h252.721v601.72h-83.046l-34.895-86.643
		c-36.919,64.192-93.857,96.267-170.878,96.267C3927.073,2150.762,3871.494,2124.5,3835.004,2071.942"/>
	<path clip-path="url(#SVGID_30_)" fill="#B1812C" d="M6404.316,2079.767c-45.335-47.336-67.998-112.317-67.998-194.965v-476.568
		c0-102.682,20.448-180.102,61.37-232.263c40.921-52.147,105.095-78.227,192.556-78.227c76.205,0,137.596,20.87,184.136,62.58
		c46.522,41.728,69.791,101.896,69.791,180.523v178.108h-205.794v-152.837c0-29.676-3.598-50.139-10.828-61.382
		c-7.212-11.22-19.672-16.846-37.305-16.846c-18.47,0-31.106,6.434-37.91,19.256c-6.822,12.84-10.223,31.707-10.223,56.56v518.696
		c0,27.283,4.002,47.141,12.032,59.562c8.011,12.452,20.043,18.653,36.101,18.653c32.078,0,48.133-26.058,48.133-78.215V1695.86
		h208.205v194.958c0,173.299-87.073,259.944-261.161,259.944C6510.015,2150.762,6449.633,2127.113,6404.316,2079.767"/>
	<path clip-path="url(#SVGID_30_)" fill="#B1812C" d="M8746.781,1490.07c28.891,0,43.332-31.291,43.332-93.869
		c0-27.265-1.205-47.724-3.613-61.372c-2.41-13.636-6.824-23.057-13.24-28.286c-6.436-5.208-15.65-7.826-27.684-7.826h-48.135
		v191.353H8746.781z M8486.83,1107.378h317.709c50.545,0,89.656,11.432,117.344,34.292c27.678,22.872,46.343,54.967,55.968,96.278
		c9.622,41.33,14.444,94.081,14.444,158.253c0,58.573-7.643,104.307-22.885,137.199c-15.238,32.902-41.717,55.766-79.41,68.596
		c31.277,6.424,53.945,22.073,67.98,46.927c14.035,24.884,21.074,58.574,21.074,101.092l-2.413,391.124h-202.175v-404.354
		c0-28.89-5.617-47.338-16.857-55.366c-11.232-8.01-31.707-12.034-61.373-12.034v471.754H8486.83V1107.378z"/>
	<path clip-path="url(#SVGID_30_)" fill="#B1812C" d="M8600.039,2448.191l-13.885-24.412l84.168-46.32l13.682,25.43
		L8600.039,2448.191z M8730.51,2661.448c0,11.73-0.814,22.827-2.443,33.31c-2.076,12.279-5.17,22.886-9.326,31.846
		c-18.201,39.031-49.842,58.535-94.919,58.535c-45.122,0-76.759-19.504-94.962-58.535c-4.156-8.96-7.166-19.567-9.121-31.846
		c-1.793-10.483-2.689-21.58-2.689-33.31v-195.46h31.479v195.46c0,10.204,0.691,19.853,2.078,28.952
		c1.791,11.587,4.6,20.832,8.469,27.733c14.049,25.634,35.627,38.461,64.747,38.461c29.075,0,50.657-12.827,64.745-38.461
		c3.828-6.901,6.678-16.146,8.469-27.733c1.506-9.099,2.283-18.748,2.283-28.952v-195.46h31.191V2661.448z"/>
	<path clip-path="url(#SVGID_30_)" fill="#B1812C" d="M9089.428,2697.446c-31.848,58.476-79.979,87.693-144.396,87.693
		c-45.203,0-83.848-15.636-115.816-46.951c-32.168-31.578-48.211-69.918-48.211-114.996c0-45.649,15.879-84.11,47.563-115.423
		c31.6-31.153,70.285-46.75,116.057-46.75c49.518,0,90.727,18.609,123.709,55.849c9.08,10.202,15.721,20.137,19.83,29.789h-35.141
		c-25.656-38.198-61.98-57.296-109.051-57.296c-35.674,0-66.619,13.521-92.846,40.539c-25.814,26.61-38.684,57.844-38.684,93.697
		c0,35.307,13.191,66.255,39.5,92.866c26.467,26.774,57.375,40.131,92.682,40.131c21.908,0,42.514-5.376,61.814-16.125
		c17.959-10.202,33.881-24.535,47.805-43.023H9089.428z"/>
	<path clip-path="url(#SVGID_30_)" fill="#B1812C" d="M8116.639,2502.596c-7.859-3.846-16.654-6.272-26.267-7.249l-13.436-0.814
		h-68.248v130.308h68.248l13.436-0.835c9.613-0.957,18.408-3.298,26.267-7.025c24.229-11.584,36.403-30.683,36.403-57.294
		C8153.042,2533.077,8140.867,2514.038,8116.639,2502.596 M8145.389,2635.185c-10.791,7.31-23.742,12.337-38.892,15.107
		c-6.35,1.1-13.313,1.935-20.887,2.484c-6.068,0.408-13.115,0.611-21.135,0.611h-55.787v126.174h-31.48v-313.573h87.267
		c8.02,0,15.067,0.204,21.135,0.611c7.574,0.57,14.537,1.385,20.887,2.483c15.15,2.912,28.101,8.002,38.892,15.312
		c25.937,17.653,38.889,42.757,38.889,75.293C8184.277,2592.224,8171.325,2617.39,8145.389,2635.185"/>
	<path clip-path="url(#SVGID_30_)" fill="#B1812C" d="M5528.605,2635.591c-3.464,42.614-21.259,78.265-53.347,106.953
		c-31.883,28.403-69.307,42.594-112.348,42.594c-45.078,0-84.252-15.717-117.482-47.154
		c-33.798-31.986-50.657-70.388-50.657-115.221c0-45.22,16.738-83.682,50.252-115.403c32.819-31.172,71.993-46.747,117.478-46.747
		c51.715,0,94.392,19.158,128.03,57.497c9.08,10.201,15.838,20.687,20.278,31.436h-36.405c-10.75-18.609-26.672-33.513-47.768-44.67
		c-20.277-10.628-41.536-15.921-63.726-15.921c-37.342,0-69.432,13.03-96.184,39.093c-26.997,26.183-40.519,57.905-40.519,95.143
		c0,37.505,13.643,69.227,40.966,95.144c26.998,25.513,59.33,38.258,96.998,38.258c28.261,0,54.526-8.612,78.796-25.858
		c25.083-17.773,41.087-40.048,48.011-66.803h-175.019v-28.341H5528.605z"/>
	<path clip-path="url(#SVGID_30_)" fill="#B1812C" d="M5792.316,2661.448c0,11.73-0.814,22.827-2.443,33.31
		c-2.119,12.279-5.213,22.886-9.368,31.846c-18.163,39.031-49.843,58.535-94.921,58.535c-45.08,0-76.76-19.504-94.92-58.535
		c-4.155-8.96-7.168-19.567-9.121-31.846c-1.791-10.483-2.69-21.58-2.69-33.31v-195.46h31.438v195.46
		c0,10.204,0.691,19.853,2.076,28.952c1.791,11.587,4.602,20.832,8.51,27.733c14.008,25.634,35.591,38.461,64.707,38.461
		c29.117,0,50.699-12.827,64.748-38.461c3.867-6.901,6.717-16.146,8.509-27.733c1.467-9.099,2.239-18.748,2.239-28.952v-195.46
		h31.236V2661.448z"/>
	<path clip-path="url(#SVGID_30_)" fill="#B1812C" d="M6056.434,2394.216l-83.97-45.302l13.683-25.449l84.172,46.339
		L6056.434,2394.216z M6046.087,2439.925l-36.404-31.03l-37.22,31.03h-38.684l61.449-52.956h28.138l60.389,52.956H6046.087z
		 M6103.423,2528.453c-26.468-26.347-58.15-39.498-94.962-39.498c-37.219,0-68.94,13.295-95.124,39.907
		c-26.062,26.611-39.093,58.473-39.093,95.573c0,36.119,13.359,67.209,40.111,93.27c26.468,25.941,57.865,38.889,94.106,38.889
		c36.691,0,68.248-13.03,94.72-39.092c26.631-26.062,39.945-57.498,39.945-94.31
		C6143.126,2586.36,6129.895,2554.801,6103.423,2528.453 M6124.926,2737.985c-32.578,31.436-71.346,47.154-116.464,47.154
		c-44.386,0-82.989-15.575-115.809-46.747c-33.231-31.701-49.844-69.697-49.844-113.957c0-45.508,16.209-84.254,48.58-116.26
		c32.293-31.701,71.303-47.561,117.073-47.561c45.243,0,84.13,15.718,116.664,47.155c32.946,31.722,49.439,70.06,49.439,114.994
		C6174.564,2667.72,6157.99,2706.142,6124.926,2737.985"/>
	<path clip-path="url(#SVGID_30_)" fill="#B1812C" d="M4506.788,2408.489c-0.937,1.508-2.566,3.44-4.767,5.783l-2.686,2.89
		l-8.471,8.288c-1.628,1.933-3.258,3.988-4.721,6.208c-2.528,3.707-3.953,9.714-4.399,17.98h-26.225v-5.58
		c0-7.023,1.915-13.864,5.781-20.481c1.102-1.916,2.932-4.398,5.581-7.431c1.098-1.244,2.889-3.035,5.374-5.398l5.581-5.373
		c1.791-1.915,3.42-3.85,4.967-5.785c2.198-3.032,3.34-6.414,3.34-10.138c0-5.782-1.834-10.344-5.417-13.643
		c-3.992-3.726-8.185-5.598-12.583-5.598c-6.352,0-11.485,2.911-15.31,8.694c-1.386,2.077-2.283,4.418-2.688,7.024
		c-0.327,1.527-0.407,5.72-0.407,12.625h-26.714v-8.065c0-11.177,4.641-21.092,13.845-29.786
		c8.552-7.859,19.139-11.789,31.682-11.789c12.786,0,23.212,3.868,31.191,11.584c8.553,8.411,12.868,18.202,12.868,29.36
		C4512.61,2396.211,4510.656,2402.422,4506.788,2408.489 M4562.616,2528.452c-26.468-26.346-58.068-39.497-94.921-39.497
		c-37.22,0-68.942,13.294-95.167,39.906c-26.059,26.611-39.091,58.474-39.091,95.573c0,36.119,13.399,67.209,40.15,93.271
		c26.471,25.941,57.826,38.888,94.108,38.888c36.69,0,68.289-13.03,94.757-39.091c26.593-26.062,39.908-57.499,39.908-94.311
		C4602.36,2586.359,4589.125,2554.801,4562.616,2528.452 M4576.707,2500.742c2.605,2.198,5.172,4.541,7.654,7.026
		c32.987,31.722,49.437,70.06,49.437,114.995c0,44.957-16.532,83.378-49.64,115.221c-32.535,31.437-71.383,47.154-116.462,47.154
		c-44.385,0-83.031-15.575-115.852-46.747c-33.227-31.701-49.842-69.696-49.842-113.957c0-45.507,16.206-84.254,48.621-116.259
		c32.251-31.702,71.303-47.562,117.073-47.562c32.413,0,61.569,8.062,87.51,24.186c3.014-1.363,5.456-2.481,7.247-3.299
		c2.771-1.239,6.801-3.867,12.218-7.858c5.374-4.01,8.389-8.896,9.081-14.679h-13.479v-37.24h39.091v38.462
		c-0.935,6.758-2.687,12.378-5.129,16.857c-2.525,4.501-5.499,8.248-9.04,11.28c-3.505,3.035-6.558,5.376-9.204,7.024
		C4583.791,2496.875,4580.695,2498.667,4576.707,2500.742"/>
</g>
</svg>
