<?xml version="1.0" encoding="utf-8"?>
<!-- Generator: Adobe Illustrator 23.0.1, SVG Export Plug-In . SVG Version: 6.00 Build 0)  -->
<svg version="1.1" id="Layer_1" xmlns="http://www.w3.org/2000/svg" xmlns:xlink="http://www.w3.org/1999/xlink" x="0px" y="0px"
	 viewBox="0 0 107.7 114.4" style="enable-background:new 0 0 107.7 114.4;" xml:space="preserve">
<style type="text/css">
	.st0{clip-path:url(#SVGID_2_);fill:#FFFFFF;}
	.st1{clip-path:url(#SVGID_2_);fill:#126BAB;}
	.st2{clip-path:url(#SVGID_2_);fill:#E2222A;}
</style>
<g>
	<defs>
		<rect id="SVGID_1_" y="0" width="107.7" height="114.3"/>
	</defs>
	<clipPath id="SVGID_2_">
		<use xlink:href="#SVGID_1_"  style="overflow:visible;"/>
	</clipPath>
	<path class="st0" d="M53.8,106.5c-29,0-52.6-23.6-52.6-52.6c0-29,23.6-52.6,52.6-52.6c29,0,52.6,23.6,52.6,52.6
		C106.4,82.8,82.8,106.5,53.8,106.5"/>
	<path class="st1" d="M53.8,2.4c13.7,0,26.6,5.3,36.4,15.1c9.7,9.7,15.1,22.6,15.1,36.4c0,13.7-5.3,26.6-15.1,36.4
		c-9.7,9.7-22.6,15.1-36.4,15.1c-13.7,0-26.6-5.3-36.4-15.1C7.8,80.5,2.4,67.6,2.4,53.8c0-13.7,5.3-26.6,15.1-36.4
		C27.2,7.8,40.1,2.4,53.8,2.4 M53.8,0C24.1,0,0,24.1,0,53.8c0,29.7,24.1,53.8,53.8,53.8s53.8-24.1,53.8-53.8
		C107.7,24.1,83.6,0,53.8,0"/>
	<rect x="8.6" y="91.7" class="st0" width="90.4" height="21.4"/>
	<path class="st1" d="M97.8,111.9h-88v-19h88V111.9z M100.2,90.5H7.4v23.8h92.8V90.5z"/>
	<path class="st2" d="M54,13.7c11.7,11.2,23.3,22.2,35,33.4H71.6v20.5h16.6v17.6h-0.6c-5.2,0-10.4,0-15.6,0
		c-5.8,0-11.6,0.1-17.4,0.1c-0.2,0-0.4,0-0.7,0V13.7z"/>
	<path class="st2" d="M34.1,47.1H16.7c11.7-11.2,23.3-22.3,35-33.4v71.6H34.1V47.1z"/>
	<polygon class="st2" points="21.5,96.1 21.5,99.1 18.6,99.1 18.6,105.4 14.8,105.4 14.8,99.1 11.8,99.1 11.8,96.1 	"/>
	<polygon class="st2" points="25.6,96.1 25.6,99.2 28.6,99.2 28.6,96.1 32.1,96.1 32.1,105.3 28.6,105.3 28.6,102.2 25.6,102.2 
		25.6,105.3 22.2,105.3 22.2,96.1 	"/>
	<path class="st2" d="M36.9,96.1v5.4c0,0.4,0.2,0.8,0.5,1c0.3,0.2,0.6,0.4,1.1,0.4s0.8-0.1,1-0.3c0.3-0.3,0.5-0.6,0.5-1.1v-5.4h3.4
		v5.8c0,1.2-0.4,2.1-1.3,2.7c-0.9,0.6-2.1,0.9-3.6,0.9c-1.5,0-2.7-0.3-3.5-1c-0.8-0.7-1.3-1.6-1.3-2.9v-5.6H36.9z"/>
	<path class="st2" d="M52.6,96.1l3.6,9.2h-3.8l-0.4-1.2h-3.7l-0.4,1.2h-3.8l3.6-9.2H52.6z M50.9,101.4l-0.7-2.1l-0.7,2.1H50.9z"/>
	<polygon class="st2" points="61.3,96.2 63.7,101 63.6,99.5 63.6,96.2 67,96.2 67,105.4 62.4,105.4 60,100.5 60.1,102 60.1,105.4 
		56.8,105.4 56.8,96.2 	"/>
	<polygon class="st2" points="74.8,96.1 74.8,102.7 79.7,102.7 79.7,105.3 71.3,105.3 71.3,96.1 	"/>
	<path class="st2" d="M89.9,97.4c0.9,0.9,1.4,2,1.4,3.3c0,1.3-0.4,2.5-1.3,3.4c-1,1-2.3,1.5-4.1,1.5c-1.7,0-3.1-0.5-4.1-1.5
		c-0.9-0.9-1.3-2-1.3-3.3c0-1.3,0.4-2.4,1.3-3.4c1-1,2.3-1.6,4-1.6C87.6,95.9,88.9,96.4,89.9,97.4 M84.8,99.2
		c-0.3,0.4-0.5,0.9-0.5,1.6c0,0.7,0.1,1.2,0.4,1.6c0.3,0.4,0.7,0.6,1.2,0.6c0.5,0,0.9-0.2,1.2-0.6c0.3-0.4,0.4-0.9,0.4-1.7
		c0-0.7-0.2-1.2-0.5-1.5c-0.3-0.3-0.7-0.5-1.1-0.5C85.5,98.7,85.1,98.8,84.8,99.2"/>
	<rect x="92.3" y="96.1" class="st2" width="3.6" height="9.2"/>
	<path class="st2" d="M14.4,107.6c0.3,0,0.6-0.1,1.1-0.1c0.5,0,0.9,0.1,1.1,0.3c0.2,0.2,0.3,0.4,0.3,0.7c0,0.4-0.3,0.7-0.6,0.8v0
		c0.2,0.1,0.4,0.3,0.5,0.6c0.1,0.4,0.2,0.8,0.3,0.9h-0.8c-0.1-0.1-0.1-0.3-0.2-0.7c-0.1-0.4-0.2-0.5-0.6-0.5h-0.2v1.3h-0.8V107.6z
		 M15.2,109h0.3c0.4,0,0.6-0.2,0.6-0.5c0-0.3-0.2-0.4-0.6-0.4c-0.2,0-0.3,0-0.4,0V109z"/>
	<polygon class="st2" points="24.4,109.4 23.1,109.4 23.1,110.2 24.6,110.2 24.6,110.8 22.3,110.8 22.3,107.5 24.5,107.5 
		24.5,108.1 23.1,108.1 23.1,108.8 24.4,108.8 	"/>
	<path class="st2" d="M31.2,109.9l-0.2,0.8h-0.8l1.1-3.2h1l1.1,3.2h-0.9l-0.3-0.8H31.2z M32.1,109.4l-0.2-0.7
		c-0.1-0.2-0.1-0.4-0.2-0.6h0c-0.1,0.2-0.1,0.4-0.2,0.6l-0.2,0.7H32.1z"/>
	<polygon class="st2" points="39.1,107.5 39.9,107.5 39.9,110.1 41.3,110.1 41.3,110.8 39.1,110.8 	"/>
	<polygon class="st2" points="55.5,109.4 54.2,109.4 54.2,110.2 55.6,110.2 55.6,110.8 53.4,110.8 53.4,107.5 55.6,107.5 
		55.6,108.1 54.2,108.1 54.2,108.8 55.5,108.8 	"/>
	<path class="st2" d="M61.5,110c0.2,0.1,0.5,0.2,0.9,0.2c0.4,0,0.6-0.1,0.6-0.3c0-0.2-0.2-0.3-0.6-0.4c-0.6-0.2-1-0.5-1-0.9
		c0-0.6,0.5-1,1.3-1c0.4,0,0.7,0.1,0.9,0.2l-0.2,0.6c-0.1-0.1-0.4-0.2-0.7-0.2c-0.3,0-0.5,0.1-0.5,0.3c0,0.2,0.2,0.3,0.6,0.5
		c0.6,0.2,0.9,0.5,0.9,1c0,0.5-0.4,1-1.4,1c-0.4,0-0.8-0.1-1-0.2L61.5,110z"/>
	<polygon class="st2" points="70.3,108.2 69.3,108.2 69.3,107.5 72,107.5 72,108.2 71.1,108.2 71.1,110.8 70.3,110.8 	"/>
	<path class="st2" d="M78.2,109.9l-0.2,0.8h-0.8l1.1-3.2h1l1.1,3.2h-0.9l-0.3-0.8H78.2z M79.1,109.4l-0.2-0.7
		c-0.1-0.2-0.1-0.4-0.2-0.6h0c0,0.2-0.1,0.4-0.2,0.6l-0.2,0.7H79.1z"/>
	<polygon class="st2" points="85.9,108.2 84.9,108.2 84.9,107.5 87.6,107.5 87.6,108.2 86.7,108.2 86.7,110.8 85.9,110.8 	"/>
	<polygon class="st2" points="95.4,109.4 94.1,109.4 94.1,110.2 95.6,110.2 95.6,110.8 93.4,110.8 93.4,107.5 95.5,107.5 
		95.5,108.1 94.1,108.1 94.1,108.8 95.4,108.8 	"/>
</g>
</svg>
