<?xml version="1.0" encoding="utf-8"?>
<!-- Generator: Adobe Illustrator 17.0.0, SVG Export Plug-In . SVG Version: 6.00 Build 0)  -->
<!DOCTYPE svg PUBLIC "-//W3C//DTD SVG 1.1//EN" "http://www.w3.org/Graphics/SVG/1.1/DTD/svg11.dtd">
<svg version="1.1" id="Layer_1" xmlns="http://www.w3.org/2000/svg" xmlns:xlink="http://www.w3.org/1999/xlink" x="0px" y="0px"
	 width="337.96px" height="118.862px" viewBox="0 0 337.96 118.862" enable-background="new 0 0 337.96 118.862"
	 xml:space="preserve">
<path fill="#008C44" d="M153.131,74.183c-12.252,0-22.221-11.127-22.221-24.807c0-13.678,9.969-24.804,22.221-24.804
	c12.25,0,22.22,11.126,22.22,24.804C175.351,63.056,165.381,74.183,153.131,74.183 M153.131,10.463
	c-23.37,0-42.38,17.456-42.38,38.913s19.01,38.918,42.38,38.918c23.372,0,42.38-17.461,42.38-38.918S176.503,10.463,153.131,10.463"
	/>
<path fill="#008C44" d="M303.029,23.838c9.165,0,12.299,1.891,12.299,8.784c0,5.871-3.592,8.299-11.993,8.299l-4.951-0.008
	l-5.062,13.855h10.718c9.206,0,13.999,3.04,13.999,10.096c0,7.34-5.154,10.055-14.392,10.055l-12.256-0.025V23.831L303.029,23.838z
	 M337.932,65.012c-0.133-2.869-0.828-5.599-2.067-8.115c-1.257-2.561-3.197-4.799-5.777-6.634c-1.339-0.95-2.881-1.767-4.589-2.424
	c2.816-1.377,5.032-3.216,6.607-5.46c2.381-3.406,3.48-7.45,3.263-12.023c-0.259-5.512-2.244-9.939-5.908-13.153
	c-3.639-3.201-9.108-4.912-16.236-4.926l-41.788,0.014v74.107l36.635,0.039c6.438,0,11.96-0.785,16.414-2.396
	c4.629-1.669,8.122-4.166,10.376-7.417C337.111,73.374,338.141,69.468,337.932,65.012"/>
<path fill="#008C44" d="M263.668,68.258c-4.685,3.753-10.781,6.024-17.444,6.024c-14.78,0-26.758-11.156-26.758-24.912
	c0-13.754,11.978-24.906,26.758-24.906c6.663,0,12.759,2.271,17.444,6.02V15.388c-6.242-3.143-13.44-4.937-21.102-4.937
	c-23.894,0-43.264,17.427-43.264,38.92c0,21.496,19.37,38.925,43.264,38.925c7.662,0,14.86-1.795,21.102-4.94V68.258z"/>
<path fill="#008C44" d="M122.967,109.757c-0.021-1.231-0.03-2.48-0.037-3.722c-0.005-1.121-0.003-2.231,0.007-3.382
	c0.005-0.933,0.023-2.197,0.057-3.699l0.005-0.253h-2.988l0.003,0.253c0.018,0.738,0.035,1.682,0.059,3.145
	c0.021,1.175,0.039,2.581,0.053,4.3l0.008,0.806c0.005,0.689,0.012,1.294,0.015,1.804c-0.306-0.571-0.644-1.188-1.011-1.843
	c-0.585-1.061-1.142-2.062-1.701-3.06c-0.563-1.008-1.044-1.879-1.468-2.65l-0.072-0.132c-0.507-0.937-0.927-1.729-1.322-2.49
	l-0.068-0.133h-3.727l0.007,0.254c0.04,1.244,0.067,2.501,0.095,3.842c0.017,1.141,0.024,2.333,0.024,3.539
	c0.005,1.272-0.003,2.438-0.017,3.566c-0.02,1.295-0.045,2.464-0.082,3.568l-0.005,0.257h3.065l-0.008-0.257
	c-0.044-1.397-0.069-2.424-0.084-3.334c-0.017-1.067-0.032-2.443-0.055-3.875l-0.015-1.272c-0.007-0.535-0.009-1.01-0.017-1.431
	l5.764,10.169h3.59l-0.007-0.255C123.008,112.326,122.985,111.113,122.967,109.757"/>
<path fill="#008C44" d="M131.772,108.648c-0.096,0.804-0.335,1.452-0.718,1.917c-0.364,0.452-0.793,0.67-1.305,0.67
	c-0.569,0-1.043-0.195-1.453-0.597c-0.408-0.396-0.635-1.075-0.674-2.01c-0.03-0.938,0.099-1.701,0.386-2.269
	c0.276-0.557,0.646-0.956,1.099-1.185c0.463-0.242,0.978-0.365,1.535-0.365c0.508,0,0.903,0.038,1.176,0.107
	C131.845,106.793,131.834,108.048,131.772,108.648 M130.654,102.14c-0.82,0-1.607,0.132-2.334,0.387
	c-0.737,0.258-1.38,0.654-1.972,1.217c-0.565,0.546-1.007,1.262-1.314,2.12c-0.307,0.854-0.442,1.862-0.4,2.993
	c0.05,1.131,0.287,2.086,0.707,2.836c0.423,0.752,0.967,1.312,1.617,1.654c0.649,0.339,1.343,0.512,2.067,0.512
	c0.682,0,1.312-0.171,1.881-0.497c0.364-0.214,0.684-0.496,0.96-0.843v0.084c0.023,0.935-0.04,1.683-0.176,2.217
	c-0.14,0.514-0.365,0.876-0.683,1.098c-0.323,0.229-0.783,0.343-1.368,0.343c-0.987,0-2.159-0.28-3.473-0.829l-0.379-0.162
	l0.283,2.946l0.151,0.049c0.552,0.179,1.22,0.327,1.978,0.435c0.747,0.106,1.488,0.162,2.208,0.162c1.429,0,2.546-0.343,3.314-1.023
	c0.779-0.686,1.15-1.868,1.092-3.514c-0.101-4.133-0.099-7.956,0.01-11.365l0.006-0.201l-0.199-0.049
	C132.953,102.326,131.652,102.14,130.654,102.14"/>
<polygon fill="#008C44" points="140.696,100.125 141.451,101.067 143.507,101.067 142.337,98.695 138.942,98.695 137.882,101.067 
	139.969,101.067 "/>
<path fill="#008C44" d="M145.243,110.895c-0.002-1.076-0.002-2.127,0-3.217c0.012-1.172,0.015-2.059,0.015-2.436v-0.011
	c-0.093-2.054-1.42-3.093-3.948-3.093c-1.204,0-2.533,0.224-3.942,0.663l-0.161,0.054l-0.214,2.644l0.401-0.216
	c0.417-0.226,0.946-0.428,1.569-0.6c0.631-0.173,1.233-0.267,1.794-0.267c1.282,0,1.453,0.521,1.471,0.913
	c0.024,0.538-0.209,0.703-0.388,0.779c-0.368,0.17-1.158,0.443-2.271,0.798c-1.205,0.384-2.071,0.828-2.65,1.352
	c-0.599,0.552-0.885,1.371-0.837,2.426c0.038,0.982,0.369,1.788,0.979,2.396c0.614,0.604,1.51,0.909,2.666,0.909
	c0.349,0,0.896-0.059,1.665-0.178l0.171-0.029l0.505-2.637l-0.485,0.3c-0.176,0.111-0.554,0.254-1.34,0.305
	c-1.083-0.066-1.235-0.626-1.249-1.044c-0.025-0.483,0.12-0.814,0.439-1.02c0.387-0.251,0.971-0.516,1.737-0.789
	c0.506-0.182,0.892-0.351,1.172-0.521c0.008,2.259-0.01,3.972-0.049,5.094l-0.006,0.257h3.032l-0.012-0.261
	C145.272,112.652,145.246,111.811,145.243,110.895"/>
<path fill="#008C44" d="M156.972,111.858c-0.002-0.427-0.007-1.154-0.01-2.287c0-0.945,0-1.783-0.002-2.358
	c-0.008-0.433-0.018-0.944-0.041-1.446c-0.029-0.684-0.166-1.299-0.407-1.831c-0.256-0.548-0.669-0.99-1.227-1.313
	c-0.547-0.322-1.263-0.483-2.116-0.483c-1.394,0-2.45,0.478-3.153,1.428l0.002-1.169h-3.042l0.01,0.259
	c0.119,3.486,0.107,7.127-0.035,10.808l-0.007,0.261h3.139l-0.004-0.257c-0.005-0.295-0.015-0.65-0.028-1.074l-0.015-0.499
	c-0.018-0.759-0.024-1.268-0.027-1.702c0-0.54,0.009-0.984,0.019-1.365c0.021-0.434,0.048-0.809,0.088-1.151
	c0.233-1.723,0.93-2.561,2.129-2.561c1.122,0,1.674,0.651,1.739,2.046c0.08,1.825,0.027,3.941-0.154,6.298l-0.02,0.265h3.22
	l-0.01-0.261C156.997,112.837,156.977,112.292,156.972,111.858"/>
<path fill="#008C44" d="M176.453,98.955l0.002-0.255h-3.341l0.013,0.259c0.053,1.181,0.084,3.022,0.101,5.483h-5.549
	c0.003-0.605,0.013-1.401,0.015-2.378c0.003-1.141,0.01-2.214,0.02-3.113l0.002-0.251h-3.34l0.015,0.259
	c0.101,2.304,0.158,4.712,0.166,7.168c0.009,2.455-0.018,4.928-0.075,7.346l-0.007,0.254h3.358l-0.015-0.46
	c-0.01-0.326-0.02-0.709-0.029-1.153c-0.007-0.244-0.016-0.507-0.025-0.788c-0.008-0.339-0.016-0.704-0.022-1.092l-0.008-0.238
	c-0.012-0.594-0.023-1.105-0.025-1.508c-0.005-0.452-0.008-0.846-0.005-1.221h5.53c0.03,1.071,0.049,2.126,0.052,3.139
	c0.006,1.137-0.008,2.139-0.047,3.061l-0.011,0.26h3.381l-0.011-0.26C176.427,109.562,176.376,104.68,176.453,98.955"/>
<polygon fill="#008C44" points="184.356,101.331 183.183,98.693 179.695,98.693 181.894,101.331 "/>
<path fill="#008C44" d="M187.049,110.895c-0.01-0.922-0.007-2.005,0-3.217c0.003-0.664,0.006-1.199,0.011-1.609
	c0.005-0.385,0.005-0.662,0.005-0.827v-0.011c-0.1-2.054-1.424-3.093-3.949-3.093c-1.212,0-2.541,0.224-3.946,0.663l-0.161,0.054
	l-0.211,2.644l0.401-0.219c0.412-0.221,0.94-0.424,1.573-0.597c0.623-0.173,1.223-0.267,1.785-0.267
	c1.286,0,1.455,0.521,1.474,0.917c0.022,0.531-0.209,0.696-0.388,0.775c-0.378,0.173-1.161,0.445-2.268,0.798
	c-1.205,0.384-2.073,0.828-2.649,1.352c-0.603,0.555-0.886,1.371-0.841,2.428c0.039,0.984,0.375,1.788,0.982,2.394
	c0.611,0.604,1.507,0.909,2.662,0.909c0.353,0,0.895-0.059,1.664-0.178l0.173-0.029l0.506-2.637l-0.482,0.3
	c-0.182,0.111-0.56,0.254-1.341,0.305c-1.088-0.066-1.237-0.63-1.257-1.044c-0.02-0.483,0.127-0.814,0.453-1.02
	c0.378-0.251,0.962-0.516,1.73-0.789c0.507-0.182,0.889-0.348,1.171-0.521c0.005,2.36-0.01,4.026-0.048,5.094l-0.012,0.257h3.038
	l-0.013-0.261C187.074,112.646,187.052,111.78,187.049,110.895"/>
<path fill="#008C44" d="M198.781,111.854c-0.005-0.313-0.013-1.029-0.013-2.283c0-0.847-0.003-1.51-0.007-2v-0.356
	c-0.004-0.48-0.018-0.969-0.038-1.448c-0.031-0.677-0.171-1.294-0.411-1.831c-0.248-0.545-0.663-0.988-1.223-1.315
	c-0.552-0.32-1.266-0.481-2.115-0.481c-1.396,0-2.456,0.478-3.159,1.424l0.011-1.165h-3.046l0.007,0.259
	c0.125,3.392,0.113,7.032-0.028,10.812l-0.009,0.257h3.14l-0.005-0.257c-0.007-0.153-0.01-0.324-0.015-0.516
	c-0.007-0.308-0.019-0.663-0.028-1.057c-0.016-0.675-0.027-1.231-0.027-1.705c-0.002-0.458,0.003-0.915,0.02-1.362
	c0.016-0.456,0.043-0.825,0.08-1.151c0.238-1.723,0.937-2.561,2.135-2.561c1.124,0,1.675,0.651,1.736,2.046
	c0.082,1.825,0.029,3.941-0.157,6.297l-0.022,0.266h3.23l-0.008-0.261C198.8,112.839,198.785,112.298,198.781,111.854"/>
<path fill="#008C44" d="M207.148,108.648c-0.092,0.804-0.33,1.452-0.717,1.917c-0.364,0.452-0.788,0.67-1.307,0.67
	c-0.57,0-1.043-0.195-1.448-0.597c-0.409-0.396-0.637-1.075-0.676-2.01c-0.025-0.938,0.101-1.701,0.382-2.268
	c0.284-0.558,0.652-0.959,1.097-1.186c0.471-0.241,0.984-0.365,1.535-0.365c0.512,0,0.907,0.038,1.177,0.107
	C207.223,106.744,207.209,108.036,207.148,108.648 M206.031,102.14c-0.823,0-1.607,0.132-2.338,0.387
	c-0.731,0.258-1.392,0.666-1.968,1.217c-0.564,0.545-1.006,1.256-1.313,2.117c-0.307,0.851-0.441,1.855-0.402,2.996
	c0.051,1.131,0.29,2.084,0.705,2.836c0.427,0.752,0.973,1.31,1.615,1.654c0.654,0.339,1.353,0.512,2.074,0.512
	c0.682,0,1.314-0.171,1.879-0.497c0.363-0.214,0.686-0.5,0.96-0.843v0.084c0.025,0.926-0.036,1.674-0.182,2.217
	c-0.132,0.509-0.365,0.877-0.678,1.102c-0.319,0.225-0.785,0.339-1.367,0.339c-0.989,0-2.156-0.28-3.473-0.829l-0.382-0.162
	l0.283,2.946l0.154,0.049c0.552,0.179,1.217,0.327,1.979,0.435c0.75,0.106,1.489,0.162,2.203,0.162c1.432,0,2.55-0.343,3.317-1.023
	c0.779-0.689,1.149-1.87,1.096-3.514c-0.106-4.155-0.101-7.978,0.012-11.365l0.004-0.201l-0.199-0.049
	C208.353,102.331,207.014,102.14,206.031,102.14"/>
<path fill="#008C44" d="M238.428,111.259c-0.007-0.858-0.012-1.807-0.007-2.906c0.002-1.113,0.002-1.963,0-2.53v-0.01
	c-0.059-1.233-0.438-2.167-1.127-2.774c-0.688-0.596-1.586-0.899-2.667-0.899c-0.933,0-1.705,0.18-2.286,0.541
	c-0.362,0.227-0.682,0.529-0.946,0.906c0-1.626,0.013-3.15,0.036-4.633v-0.253h-3.08l0.007,0.255
	c0.149,5.053,0.164,9.94,0.06,14.518l-0.008,0.253h3.145l-0.014-0.259c-0.089-2.004-0.089-3.698-0.005-5.025
	c0.046-1.141,0.267-1.997,0.651-2.545c0.367-0.525,0.85-0.781,1.484-0.781c0.575,0,0.998,0.154,1.284,0.461
	c0.293,0.317,0.458,0.862,0.493,1.623c0.077,1.851,0.023,3.956-0.16,6.26l-0.021,0.266h3.226l-0.009-0.259
	C238.454,112.729,238.436,111.986,238.428,111.259"/>
<path fill="#008C44" d="M272.711,111.858c-0.005-0.448-0.008-1.22-0.008-2.287c-0.003-1.201-0.004-1.911-0.01-2.358
	c-0.007-0.593-0.017-1.04-0.031-1.45c-0.034-0.677-0.175-1.295-0.416-1.827c-0.254-0.548-0.665-0.99-1.226-1.315
	c-0.561-0.326-1.249-0.481-2.116-0.481c-1.392,0-2.448,0.478-3.151,1.424l0.008-1.165h-3.041l0.009,0.259
	c0.113,3.455,0.103,7.095-0.039,10.808l-0.01,0.261h3.145l-0.008-0.257c-0.002-0.188-0.011-0.404-0.014-0.637
	c-0.01-0.281-0.018-0.593-0.028-0.933c-0.014-0.669-0.025-1.229-0.027-1.705c0-0.558,0.007-0.989,0.023-1.365
	c0.014-0.416,0.039-0.794,0.081-1.151c0.237-1.723,0.936-2.561,2.134-2.561c1.122,0,1.675,0.651,1.738,2.046
	c0.074,1.812,0.025,3.929-0.155,6.298l-0.02,0.265h3.222l-0.012-0.261C272.738,112.881,272.716,112.32,272.711,111.858"/>
<path fill="#008C44" d="M281.083,108.648c-0.097,0.814-0.339,1.46-0.714,1.917c-0.367,0.448-0.797,0.67-1.308,0.67
	c-0.569,0-1.043-0.195-1.453-0.597c-0.406-0.396-0.634-1.075-0.675-2.01c-0.031-0.935,0.098-1.697,0.381-2.269
	c0.281-0.557,0.652-0.956,1.1-1.185c0.47-0.242,0.986-0.365,1.537-0.365c0.51,0,0.904,0.038,1.179,0.107
	C281.157,106.796,281.143,108.052,281.083,108.648 M279.966,102.14c-0.821,0-1.604,0.132-2.339,0.387
	c-0.728,0.258-1.39,0.666-1.973,1.217c-0.554,0.542-0.997,1.253-1.313,2.12c-0.303,0.85-0.436,1.855-0.397,2.995
	c0.051,1.129,0.289,2.082,0.709,2.834c0.416,0.748,0.957,1.305,1.614,1.654c0.646,0.339,1.343,0.512,2.072,0.512
	c0.682,0,1.314-0.171,1.876-0.497c0.367-0.216,0.692-0.5,0.966-0.846v0.087c0.019,0.928-0.04,1.677-0.182,2.217
	c-0.137,0.509-0.367,0.88-0.679,1.098c-0.327,0.228-0.787,0.343-1.37,0.343c-0.989,0-2.151-0.28-3.47-0.829l-0.385-0.162
	l0.286,2.946l0.155,0.049c0.549,0.179,1.216,0.327,1.975,0.435c0.744,0.106,1.492,0.162,2.208,0.162
	c1.427,0,2.544-0.343,3.312-1.023c0.781-0.689,1.15-1.87,1.097-3.514c-0.106-4.269-0.105-7.989,0.013-11.365l0.004-0.201
	l-0.201-0.049C282.292,102.331,280.949,102.14,279.966,102.14"/>
<path fill="#008C44" d="M300.594,108.261c-0.252,0.804-0.689,1.44-1.337,1.942c-0.634,0.495-1.51,0.744-2.592,0.744h-1.698
	l-0.042-3.507h0.707c0.89,0,1.576,0.015,2.035,0.045l0.26,0.013l0.059-2.685h-3.089l-0.017-3.291h2.834
	c0.73,0,1.335,0.191,1.795,0.562c0.48,0.395,0.818,0.873,1.025,1.467c0.22,0.618,0.343,1.293,0.378,1.998
	C300.954,106.545,300.853,107.431,300.594,108.261 M302.17,100.386c-1.11-1.117-2.55-1.685-4.266-1.685h-6.173l0.011,0.258
	c0.103,2.291,0.145,4.209,0.13,5.854h-1.624l-0.113,2.627h1.757c0.009,2.182-0.018,4.206-0.089,6.028l-0.005,0.259h5.49
	c1.569,0,2.88-0.354,3.903-1.054c1.022-0.694,1.774-1.675,2.226-2.913c0.443-1.21,0.638-2.617,0.569-4.186
	C303.885,103.248,303.276,101.501,302.17,100.386"/>
<path fill="#008C44" d="M311.775,110.375c-0.348,0.664-0.874,0.986-1.607,0.986c-0.666,0-1.192-0.261-1.608-0.795
	c-0.421-0.553-0.661-1.273-0.693-2.139c-0.037-1.215,0.151-2.146,0.555-2.768c0.386-0.6,0.925-0.894,1.649-0.894
	c0.704,0,1.216,0.271,1.572,0.822c0.378,0.583,0.59,1.34,0.632,2.249C312.315,108.822,312.147,109.679,311.775,110.375
	 M314.58,104.906c-0.432-0.877-1.044-1.564-1.821-2.036c-0.778-0.484-1.71-0.732-2.78-0.732c-1.108,0-2.07,0.274-2.856,0.807
	c-0.794,0.54-1.388,1.295-1.764,2.243c-0.378,0.93-0.545,1.995-0.495,3.169c0.034,0.732,0.167,1.446,0.402,2.115
	c0.235,0.67,0.574,1.279,1.016,1.806c0.445,0.524,1.001,0.948,1.665,1.255c0.656,0.302,1.409,0.456,2.243,0.456
	c1.204,0,2.215-0.298,3.015-0.884c0.784-0.594,1.352-1.362,1.693-2.285c0.33-0.918,0.478-1.9,0.432-2.926
	C315.25,106.763,314.997,105.758,314.58,104.906"/>
<polygon fill="#008C44" points="309.815,100.125 310.573,101.067 312.629,101.067 311.46,98.695 308.064,98.695 307.006,101.067 
	309.09,101.067 "/>
<path fill="#008C44" d="M326.529,111.854c-0.006-0.415-0.008-1.117-0.008-2.283l-0.002-0.455c-0.004-0.846-0.01-1.482-0.01-1.901
	c-0.002-0.493-0.019-0.969-0.034-1.428v-0.02c-0.031-0.688-0.168-1.304-0.412-1.829c-0.25-0.541-0.658-0.986-1.223-1.317
	c-0.556-0.32-1.267-0.481-2.117-0.481c-1.395,0-2.454,0.478-3.155,1.424l0.011-1.165h-3.048l0.013,0.259
	c0.115,3.465,0.101,7.104-0.036,10.808l-0.012,0.261h3.141l-0.004-0.257c-0.007-0.407-0.023-0.934-0.043-1.573
	c-0.011-0.613-0.026-1.199-0.026-1.702c0-0.489,0.006-0.948,0.021-1.365c0.015-0.439,0.045-0.814,0.087-1.151
	c0.235-1.723,0.928-2.561,2.125-2.561c1.127,0,1.68,0.651,1.743,2.046c0.078,1.796,0.023,3.915-0.159,6.297l-0.021,0.266h3.231
	l-0.01-0.261C326.549,112.82,326.533,112.291,326.529,111.854"/>
<path fill="#008C44" d="M334.899,108.648c-0.09,0.81-0.332,1.454-0.713,1.917c-0.371,0.448-0.798,0.67-1.313,0.67
	c-0.565,0-1.04-0.195-1.447-0.597c-0.407-0.397-0.637-1.075-0.678-2.01c-0.029-0.935,0.099-1.697,0.384-2.268
	c0.282-0.558,0.652-0.957,1.099-1.186c0.465-0.242,0.985-0.365,1.534-0.365c0.508,0,0.906,0.038,1.18,0.11
	C334.976,106.786,334.957,108.041,334.899,108.648 M337.96,102.759l-0.199-0.049c-1.656-0.379-2.995-0.57-3.978-0.57
	c-0.82,0-1.607,0.132-2.338,0.387c-0.735,0.258-1.395,0.666-1.97,1.216c-0.559,0.54-1.001,1.251-1.317,2.12
	c-0.302,0.859-0.437,1.866-0.395,2.996c0.048,1.125,0.283,2.076,0.704,2.834c0.42,0.752,0.968,1.31,1.615,1.654
	c0.65,0.339,1.348,0.512,2.072,0.512c0.685,0,1.319-0.171,1.878-0.497c0.365-0.216,0.689-0.5,0.962-0.843v0.084
	c0.027,0.924-0.037,1.667-0.18,2.217c-0.135,0.506-0.364,0.876-0.683,1.098c-0.322,0.229-0.782,0.343-1.366,0.343
	c-0.981,0-2.154-0.28-3.472-0.829l-0.384-0.162l0.287,2.946l0.152,0.049c0.556,0.179,1.219,0.327,1.974,0.434
	c0.752,0.107,1.495,0.163,2.213,0.163c1.426,0,2.544-0.343,3.316-1.023c0.781-0.689,1.148-1.87,1.092-3.515
	c-0.104-4.144-0.103-7.967,0.014-11.364L337.96,102.759z"/>
<path fill="#008C44" d="M249.573,104.642c0.708-0.227,1.744-0.885,2.088-1.685c0.328-0.764,0-1.777-0.735-2.246
	c-0.374-0.243-0.744-0.361-1.124-0.361c-0.517,0-0.981,0.212-1.511,0.524l-0.179,0.107l0.431,1.142l0.254-0.152
	c0.184-0.111,0.396-0.176,0.571-0.176c0.102,0,0.189,0.02,0.24,0.06l0.01,0.005c0.275,0.182,0.348,0.596,0.226,0.848l-0.009,0.021
	c0,0.005-0.029,0.079-0.235,0.255c0.003-0.054,0.004-0.11,0.008-0.161l0.005-0.256h-3.056l0.006,0.258
	c0.049,1.358,0.148,4.668,0.012,5.999c-0.114,1.047-0.55,2.295-1.958,2.295c-1.087,0-1.648-0.665-1.719-2.025
	c-0.057-1.194,0.003-5.347,0.037-6.271l0.005-0.256h-3.099l0.007,0.262c0.099,2.134,0.084,3.78,0.073,5.1
	c-0.008,0.971-0.018,1.809,0.021,2.568c0.11,2.246,1.476,3.53,3.742,3.53c1.401,0,2.41-0.442,3.063-1.357l0.053,1.099h2.898
	l-0.013-0.258C249.581,110.731,249.543,107.828,249.573,104.642"/>
<path fill="#008C44" d="M257.697,110.872c-0.345,0.362-0.801,0.548-1.345,0.548c-1.57,0-2.209-1.575-2.278-2.927
	c-0.066-1.355,0.203-2.432,0.773-3.023c0.345-0.366,0.816-0.555,1.39-0.555c1.889,0,2.2,2.111,2.242,3.015
	C258.542,109.209,258.257,110.281,257.697,110.872 M260.148,104.081c0.365-0.242,0.881-0.662,1.098-1.191
	c0.331-0.766,0-1.772-0.734-2.242c-0.378-0.244-0.745-0.362-1.128-0.362c-0.514,0-0.974,0.212-1.51,0.529l-0.177,0.11l0.433,1.139
	l0.257-0.159c0.182-0.107,0.391-0.171,0.57-0.171c0.099,0,0.188,0.02,0.25,0.064c0.295,0.192,0.324,0.625,0.222,0.846l-0.01,0.018
	c-0.02,0.056-0.134,0.196-0.433,0.413c-0.806-0.503-1.778-0.765-2.835-0.765c-1.478,0-2.737,0.503-3.649,1.456
	c-1.049,1.104-1.551,2.723-1.455,4.681c0.131,2.577,1.61,5.583,5.37,5.583c1.52,0,2.732-0.472,3.614-1.395
	c1.505-1.585,1.508-3.968,1.472-4.657C261.427,106.404,260.961,105.065,260.148,104.081"/>
<path fill="#008C44" d="M227.177,102.766c-0.034-0.746-0.192-1.436-0.475-2.04c-0.284-0.617-0.689-1.115-1.207-1.474
	c-0.517-0.367-1.13-0.55-1.815-0.55h-5.956l0.01,0.257c0.055,1.371,0.094,2.666,0.122,3.854c0.027,1.314,0.048,2.415,0.059,3.469
	c0.009,1.069,0.014,2.255,0.003,3.74c-0.007,1.289-0.022,2.45-0.048,3.452l-0.006,0.253h3.141l-0.013-0.259
	c-0.041-1.023-0.24-10.006-0.252-10.881l-0.01-1.154c0.551-0.065,1.124-0.103,1.696-0.103c0.577,0,1.004,0.11,1.273,0.324
	c0.253,0.203,0.398,0.616,0.425,1.22c0.032,0.648-0.104,1.179-0.429,1.603c-0.756,0.994-2.116,0.692-2.626,0.551l0.55,2.621
	c0,0,2.123,0.472,3.703-0.637c0.676-0.475,1.173-1.098,1.47-1.857C227.082,104.412,227.215,103.607,227.177,102.766"/>
<path fill="#E39717" d="M0.175,54.651c1.292,11.601,6.612,21.986,14.533,29.72c-0.928-2.375-1.159-4.878-0.597-7.39
	c1.545-6.946,8.59-11.818,18.542-13.184V30.259C6.931,25.942-1.353,42.203,0.175,54.651"/>
<path fill="#E39717" d="M97.944,43.734c-1.291-11.6-6.612-21.985-14.533-29.719c0.927,2.371,1.16,4.875,0.599,7.389
	c-1.546,6.946-8.592,11.819-18.543,13.184v33.538C91.188,72.442,99.472,56.183,97.944,43.734"/>
<path fill="#E39717" d="M1.103,38.261c6.707-9.148,18.706-14.409,40.852-8.174c38.9,10.956,51.399-14.451,29.228-24.84
	C64.531,1.891,57.018,0,49.061,0C25.655,0,6.066,16.355,1.103,38.261"/>
<path fill="#E39717" d="M97.011,60.116c-6.707,9.149-18.708,14.409-40.854,8.174C17.26,57.338,4.764,82.745,26.932,93.131
	c6.65,3.354,14.162,5.245,22.121,5.245C72.461,98.376,92.046,82.024,97.011,60.116"/>
</svg>
