<?xml version="1.0" encoding="utf-8"?>
<!-- Generator: Adobe Illustrator 23.0.1, SVG Export Plug-In . SVG Version: 6.00 Build 0)  -->
<svg version="1.1" id="Layer_1" xmlns="http://www.w3.org/2000/svg" xmlns:xlink="http://www.w3.org/1999/xlink" x="0px" y="0px"
	 viewBox="0 0 272.1 41.8" style="enable-background:new 0 0 272.1 41.8;" xml:space="preserve">
<style type="text/css">
	.st0{clip-path:url(#SVGID_2_);fill:#1EB0A1;}
	.st1{clip-path:url(#SVGID_2_);fill:#F79433;}
</style>
<g>
	<defs>
		<rect id="SVGID_1_" y="0" width="272.1" height="41.8"/>
	</defs>
	<clipPath id="SVGID_2_">
		<use xlink:href="#SVGID_1_"  style="overflow:visible;"/>
	</clipPath>
	<path class="st0" d="M262.1,10.6V2.7h4c0.9,0,1.6,0.3,2,0.8c0.3,0.4,0.5,0.9,0.5,1.4c0,0.4-0.1,0.8-0.3,1.2
		c-0.2,0.3-0.5,0.6-0.9,0.7c0.4,0.2,0.6,0.3,0.7,0.5c0.2,0.3,0.3,0.8,0.3,1.4c0,0.5,0,0.9,0,1.1c0,0.2,0.1,0.4,0.3,0.4v0.2h-1.8
		c-0.1-0.2-0.1-0.4-0.1-0.6c0-0.2,0-0.5,0-1c0-0.6-0.1-1-0.2-1.1c-0.2-0.2-0.5-0.3-1.1-0.3h-1.7v3.1H262.1z M263.7,6.2h1.9
		c0.4,0,0.8-0.1,1-0.3c0.2-0.2,0.3-0.4,0.3-0.8c0-0.3-0.1-0.5-0.2-0.7c-0.2-0.2-0.5-0.4-0.9-0.4h-2V6.2z"/>
	<path class="st0" d="M265.2,13.6c-3.8,0-6.8-3.1-6.8-6.8c0-3.8,3.1-6.8,6.8-6.8c3.8,0,6.8,3.1,6.8,6.8
		C272.1,10.6,269,13.6,265.2,13.6 M265.2,1.2c-3.1,0-5.6,2.5-5.6,5.6c0,3.1,2.5,5.6,5.6,5.6c3.1,0,5.6-2.5,5.6-5.6
		C270.8,3.7,268.3,1.2,265.2,1.2"/>
	<path class="st0" d="M78.7,35.7H57l-2.8,5.6H42.8L60.2,8.4h15.5l17.2,32.9H81.6L78.7,35.7z M68.9,16.1h-2l-6.3,12.4h14.6L68.9,16.1
		z"/>
	<rect x="132.5" y="8.4" class="st1" width="10.5" height="32.9"/>
	<path class="st1" d="M156.1,30.4c0,1.6,0.3,2.7,1,3.2c0.5,0.3,1.1,0.4,1.9,0.6c0.7,0,3.2,0,7.2,0c4.2,0.1,6.8,0,7.6-0.1
		c0.8-0.1,1.5-0.2,2-0.4c0.7-0.3,1.1-1.1,1.2-2.5c0-1-0.3-1.6-0.9-1.9c-0.5-0.3-1.5-0.5-3.2-0.6c-1.2,0-3.8-0.1-7.8-0.3
		c-4.1-0.2-6.7-0.3-8-0.3c-2.4,0-4.3-0.2-5.6-0.6c-1.3-0.4-2.3-1-3-1.9c-1.2-1.4-1.9-3.8-1.8-7c0-3.7,0.6-6.3,2.1-7.9
		c1.1-1.2,2.7-1.9,5-2.3c2.2-0.3,6.7-0.5,13.6-0.5c4.8,0,8.2,0.2,10.1,0.4c3,0.4,5.1,1.2,6.2,2.5c1.1,1.2,1.7,3.4,1.7,6.4v1.5h-9.7
		c0-0.9-0.1-1.5-0.3-1.9c-0.1-0.4-0.3-0.6-0.7-0.9c-0.5-0.2-1.2-0.3-2.3-0.4c-1.1-0.1-3.4-0.1-6.9-0.1c-4.2,0-6.8,0.1-7.8,0.3
		c-0.9,0.2-1.3,1-1.4,2.2c0,1.1,0.5,1.9,1.4,2.1c0.8,0.3,4.3,0.4,10.6,0.6c5.3,0.2,8.8,0.3,10.6,0.6c1.8,0.2,3.1,0.6,4.2,1.2
		c1.2,0.7,2.1,1.7,2.6,3c0.5,1.3,0.7,3.1,0.7,5.4c0,3.1-0.4,5.4-1.2,6.9c-0.6,1.1-1.5,1.9-2.6,2.5c-1.1,0.5-2.7,0.9-4.7,1.1
		c-2.2,0.2-6.2,0.3-12.1,0.3c-4.9,0-8.6-0.1-10.9-0.4c-2.4-0.2-4.1-0.7-5.3-1.4c-1.2-0.7-2.1-1.6-2.6-2.8c-0.5-1.1-0.7-2.9-0.7-5.2
		v-1.6H156.1z"/>
	<path class="st0" d="M9.7,30.4c0,1.6,0.3,2.7,1,3.2c0.5,0.3,1.1,0.4,1.9,0.6c0.7,0,3.1,0,7.2,0c4.2,0.1,6.8,0,7.6-0.1
		c0.8-0.1,1.5-0.2,2-0.4c0.7-0.3,1.1-1.1,1.2-2.5c0-1-0.3-1.6-0.9-1.9c-0.5-0.3-1.5-0.5-3.1-0.6c-1.2,0-3.8-0.1-7.8-0.3
		c-4.1-0.2-6.7-0.3-8-0.3c-2.4,0-4.3-0.2-5.6-0.6c-1.3-0.4-2.3-1-3-1.9c-1.2-1.4-1.9-3.8-1.8-7c-0.1-3.7,0.6-6.3,2.1-7.9
		c1.1-1.2,2.7-1.9,5-2.3C9.6,8.1,14.1,7.9,21,7.9c4.8,0,8.2,0.2,10.1,0.4c3,0.4,5.1,1.2,6.2,2.5c1.1,1.2,1.7,3.4,1.7,6.4v1.5h-9.7
		c0-0.9-0.1-1.5-0.2-1.9c-0.1-0.4-0.3-0.6-0.7-0.9c-0.4-0.2-1.2-0.3-2.3-0.4c-1.1-0.1-3.4-0.1-6.9-0.1c-4.2,0-6.8,0.1-7.8,0.3
		c-0.9,0.2-1.3,1-1.4,2.2c0,1.1,0.4,1.9,1.4,2.1c0.8,0.3,4.3,0.4,10.6,0.6c5.3,0.2,8.8,0.3,10.6,0.6c1.8,0.2,3.1,0.6,4.2,1.2
		c1.2,0.7,2.1,1.7,2.6,3c0.5,1.3,0.7,3.1,0.7,5.4c0,3.1-0.4,5.4-1.2,6.9c-0.6,1.1-1.5,1.9-2.6,2.5c-1.1,0.5-2.6,0.9-4.7,1.1
		c-2.2,0.2-6.2,0.3-12.1,0.3c-4.9,0-8.6-0.1-10.9-0.4c-2.4-0.2-4.1-0.7-5.3-1.4c-1.2-0.7-2.1-1.6-2.6-2.8C0.3,36.1,0,34.3,0,32v-1.6
		H9.7z"/>
	<polygon class="st1" points="227.4,8.4 227.4,16.8 212.8,16.8 212.8,41.3 202.3,41.3 202.3,16.8 187.7,16.8 187.7,8.4 	"/>
	<path class="st1" d="M256.6,35.7h-21.7l-2.8,5.6h-11.4l17.4-32.9h15.5l17.2,32.9h-11.3L256.6,35.7z M246.8,16.1h-2l-6.3,12.4h14.6
		L246.8,16.1z"/>
	<path class="st1" d="M118.1,8.7v22.4c-11.6-2-20.8-10.9-23.1-22.4h-9.6C88,26.4,102.8,40.1,120.9,41c0.6,0,1.3,0,1.9,0
		c1.6,0,3.2-0.1,4.7-0.3v-32H118.1z"/>
</g>
</svg>
