<?xml version="1.0" encoding="utf-8"?>
<!-- Generator: Adobe Illustrator 21.0.0, SVG Export Plug-In . SVG Version: 6.00 Build 0)  -->
<svg version="1.1" id="Layer_1" xmlns="http://www.w3.org/2000/svg" xmlns:xlink="http://www.w3.org/1999/xlink" x="0px" y="0px"
	 viewBox="0 0 131.7 120.2" style="enable-background:new 0 0 131.7 120.2;" xml:space="preserve">
<style type="text/css">
	.st0{fill:#FFFFFF;}
</style>
<g>
	<g>
		<path class="st0" d="M129.2,55.1l-55.5,48.6c-3.5,3-7,4.5-10.3,4.3c-4.9-0.3-8.2-4.1-8.2-4.1L2.5,54.2l-2.3,1.9l52.4,49.4
			c0.5,0.6,4.4,4.7,10.5,5.1c0.3,0,0.6,0,0.9,0c4,0,8-1.7,11.9-5.1L131.4,57L129.2,55.1z"/>
		<circle class="st0" cx="95.8" cy="45.7" r="9.9"/>
		<path class="st0" d="M57.7,95.7c0.8,1.1,1.9,2,3.1,2.7c0.4,0.3,0.8,0.5,1.3,0.6c2.9,1.1,6.3,0.9,9.3-1.6
			c8.9-7.7,17.7-15.3,26.5-23c0.5-0.4,0.9-0.8,1.2-1.3c6-5.4,12-10.8,18-16.1c4.6-4.1-2.2-10.8-6.7-6.7c-4.3,3.9-8.7,7.8-13,11.7
			c-3.2-2.7-8.1-3.5-12.2-0.1c-2.7,2.3-5.4,4.7-8.1,7c-0.8-2.6-1.5-5.3-2.1-8l1-0.6L76,60l1.6-1.5l-11-18.7L63,45.5l0.2,0.4l0,0
			l5.8,9.8c-2.1,0.7-3.9,2.8-3.3,5.6c1,4.8,2.3,9.6,3.9,14.2c-2,1.7-4,3.5-6,5.2c-1.8-6.2-3.7-12.5-5.5-18.7c-0.6-2-2.4-3.5-4.6-3.5
			C46.2,58.8,39,59,31.8,59.2c-0.2,0-0.4,0-0.7,0.1c-1.9-1.7-3.7-3.3-5.6-5c-4.5-4.1-11.3,2.6-6.7,6.7
			C31.8,72.5,44.8,84.1,57.7,95.7z M66.6,43.9l-2.2,1.3l2.2-3.4l9.7,16.6l-0.8,0.8L66.6,43.9z M49.9,68.2c1,3.5,2.1,7.1,3.1,10.6
			c-3.9-3.5-7.7-6.9-11.6-10.4C44.2,68.3,47.1,68.2,49.9,68.2z"/>
	</g>
</g>
<g>
	<g>
		<g>
			<path class="st0" d="M34.9,36.3c-1.3,1.2-3.2,1.5-4.8,0.7c-0.6-0.3-1.1-0.7-1.5-1.2l-2.2,4.9c-0.1,0.2,0,0.4,0.1,0.5
				c0.1,0.1,0.2,0.2,0.4,0.1l1.6-0.5c0.2-0.1,0.4-0.1,0.6-0.1c0.8,0,1.5,0.4,1.9,1.2l0.7,1.5c0.1,0.2,0.3,0.2,0.4,0.2
				c0.1,0,0.3,0,0.4-0.3l3.5-7.8C35.6,35.8,35.2,36,34.9,36.3z"/>
		</g>
	</g>
	<g>
		<g>
			<path class="st0" d="M47.3,40.8l-2.2-4.9c-0.4,0.5-0.9,0.9-1.5,1.2c-1.6,0.8-3.5,0.5-4.8-0.7c-0.3-0.3-0.7-0.5-1.1-0.6l3.5,7.8
				c0.1,0.2,0.3,0.3,0.4,0.3c0.1,0,0.3,0,0.4-0.2l0.7-1.5c0.4-0.7,1.1-1.2,1.9-1.2c0.2,0,0.4,0,0.6,0.1l1.6,0.5
				c0.2,0.1,0.4-0.1,0.4-0.1C47.3,41.2,47.4,41,47.3,40.8z"/>
		</g>
	</g>
	<g>
		<g>
			<path class="st0" d="M49.1,23.4c-1.9-1.3-2.4-3.8-1.3-5.7c0.7-1.2,0.3-2.3-0.2-3c-0.6-0.7-1.6-1.3-2.9-0.9
				c-2.1,0.7-4.5-0.5-5.3-2.6c-0.5-1.3-1.6-1.7-2.5-1.7s-2,0.4-2.5,1.7c-0.8,2.1-3.2,3.2-5.3,2.6c-1.3-0.4-2.3,0.2-2.9,0.9
				c-0.6,0.7-0.9,1.8-0.2,3c1.1,1.9,0.5,4.5-1.3,5.7c-1.1,0.8-1.3,2-1.1,2.8c0.2,0.9,0.9,1.9,2.2,2.1c2.2,0.3,3.8,2.4,3.7,4.6
				c-0.1,1.3,0.7,2.2,1.5,2.6c0.8,0.4,2,0.5,3-0.4c0.8-0.8,1.9-1.1,2.9-1.1c1.1,0,2.1,0.4,2.9,1.1c1,0.9,2.2,0.8,3,0.4
				c0.8-0.4,1.6-1.3,1.5-2.6c-0.2-2.2,1.4-4.3,3.7-4.6c1.3-0.2,2-1.2,2.2-2.1C50.4,25.4,50.2,24.2,49.1,23.4z M36.8,32
				c-4.9,0-8.8-4-8.8-8.8s4-8.8,8.8-8.8s8.8,4,8.8,8.8C45.7,28.1,41.7,32,36.8,32z"/>
		</g>
	</g>
	<g>
		<g>
			<path class="st0" d="M36.8,16c-4,0-7.2,3.2-7.2,7.2s3.2,7.2,7.2,7.2s7.2-3.2,7.2-7.2S40.8,16,36.8,16z M40.5,22.5l-4.5,3.3
				c-0.1,0.1-0.3,0.2-0.5,0.2c0,0-0.1,0-0.1,0c-0.2,0-0.4-0.2-0.5-0.3l-1.3-1.9c-0.3-0.4-0.2-0.9,0.2-1.1c0.4-0.3,0.9-0.2,1.1,0.2
				l0.9,1.2l3.8-2.8c0.4-0.3,0.9-0.2,1.1,0.2C41,21.7,40.9,22.2,40.5,22.5z"/>
		</g>
	</g>
</g>
</svg>
