<?xml version="1.0" encoding="utf-8"?>
<!-- Generator: Adobe Illustrator 21.0.0, SVG Export Plug-In . SVG Version: 6.00 Build 0)  -->
<svg version="1.1" id="Layer_1" xmlns="http://www.w3.org/2000/svg" xmlns:xlink="http://www.w3.org/1999/xlink" x="0px" y="0px"
	 viewBox="0 0 131.7 120.2" style="enable-background:new 0 0 131.7 120.2;" xml:space="preserve">
<style type="text/css">
	.st0{fill:#FFFFFF;}
</style>
<g>
	<path class="st0" d="M87.2,20.4c0.2,0.3,0.2,0.5,0,0.8c-0.9,1.3-1.7,2.6-2.5,3.9c-0.8,1.3-0.3,2.7,1.1,3.3c1.4,0.6,2.9,1.1,4.3,1.6
		c0.3,0.1,0.4,0.3,0.4,0.6c0.1,1.5,0.2,2.9,0.2,4.4c0,1.5,1.3,2.8,3.1,2.2c1.4-0.4,2.8-0.8,4.3-1.2c0.3-0.1,0.4,0,0.6,0.2
		c0.9,1.2,1.9,2.4,2.9,3.5c1.1,1.3,2.6,1.3,3.6,0c1-1.2,1.9-2.3,2.8-3.5c0.2-0.2,0.3-0.3,0.6-0.2c1.5,0.4,2.9,0.8,4.4,1.2
		c1.5,0.4,2.8-0.5,2.9-2.1c0.1-1.5,0.2-3,0.2-4.6c0-0.4,0.2-0.5,0.5-0.6c1.4-0.5,2.8-1.1,4.2-1.6c1.5-0.6,2-2,1.1-3.4
		c-0.8-1.3-1.6-2.5-2.5-3.8c-0.2-0.3-0.2-0.5,0-0.8c0.8-1.2,1.6-2.5,2.4-3.7c0.9-1.5,0.4-2.9-1.2-3.5c-1.4-0.5-2.8-1.1-4.1-1.6
		c-0.3-0.1-0.4-0.3-0.4-0.6c-0.1-1.5-0.2-3-0.2-4.5c-0.1-1.6-1.3-2.5-2.9-2.1c-1.5,0.4-2.9,0.8-4.4,1.2c-0.3,0.1-0.5,0-0.7-0.2
		C107,4.2,106,3,105.1,1.9c-1-1.3-2.6-1.3-3.6,0c-0.9,1.1-1.9,2.3-2.8,3.5c-0.3,0.3-0.5,0.4-0.8,0.3C96.5,5.2,95,4.8,94,4.5
		c-2-0.5-3.2,0.3-3.3,2c-0.1,1.5-0.2,3-0.2,4.6c0,0.3-0.1,0.5-0.4,0.6c-1.4,0.5-2.9,1.1-4.3,1.6c-1.5,0.6-1.9,2-1.1,3.4
		C85.6,17.9,86.4,19.2,87.2,20.4z M97.9,26.9c0.1-0.5,0.3-1,0.4-1.5c0.2-0.6,0.3-0.7,0.9-0.4c0.9,0.5,1.9,0.7,2.9,0.9
		c0.7,0.1,1.3,0,1.9-0.3c1.1-0.5,1.3-1.8,0.4-2.6c-0.3-0.3-0.7-0.5-1.1-0.6c-1-0.4-2-0.8-3-1.3c-1.5-0.9-2.5-2.2-2.4-4
		c0.1-2.1,1.3-3.4,3.2-4.1c0.8-0.3,0.8-0.3,0.8-1.1c0-0.3,0-0.6,0-0.8c0-0.6,0.1-0.7,0.7-0.7c0.2,0,0.4,0,0.6,0c1.3,0,1.3,0,1.3,1.3
		c0,0.9,0,0.9,0.9,1.1c0.7,0.1,1.4,0.3,2.1,0.6c0.4,0.2,0.5,0.4,0.4,0.8c-0.2,0.6-0.3,1.1-0.5,1.7c-0.2,0.5-0.4,0.6-0.9,0.4
		c-1-0.5-2.1-0.7-3.3-0.6c-0.3,0-0.6,0.1-0.9,0.2c-1,0.4-1.1,1.5-0.3,2.2c0.4,0.3,0.9,0.6,1.4,0.8c0.9,0.4,1.8,0.7,2.6,1.2
		c2.6,1.5,3.3,4.8,1.5,7c-0.7,0.8-1.5,1.4-2.6,1.7c-0.4,0.1-0.6,0.4-0.6,0.8c0,0.4,0,0.9,0,1.4c0,0.4-0.2,0.6-0.6,0.6
		c-0.5,0-1,0-1.5,0c-0.4,0-0.6-0.3-0.6-0.7c0-0.3,0-0.7,0-1c0-0.7,0-0.8-0.7-0.9c-0.9-0.1-1.8-0.4-2.6-0.7
		C97.8,27.7,97.8,27.6,97.9,26.9z"/>
	<g>
		<g>
			<path class="st0" d="M96,34.6c-0.5-0.8-1.7-0.9-2.5-0.3L76.1,48.2l-22.4-9.3c-0.5-0.2-1.2-0.1-1.6,0.2l-24,17.2
				c-0.8,0.5-1,1.6-0.4,2.4c0.3,0.5,0.9,0.8,1.4,0.8c0.3,0,0.6-0.1,1-0.3l23.3-16.6l22.5,9.3c0.5,0.2,1.3,0.1,1.7-0.2l18.1-14.4
				C96.4,36.6,96.5,35.4,96,34.6z"/>
		</g>
	</g>
	<g>
		<g>
			<path class="st0" d="M121.1,93.8h-7.9V44.2c0-1-0.8-1.7-1.7-1.7H95.7c-1,0-1.7,0.8-1.7,1.7v49.7h-5.8V61.3c0-1-0.8-1.7-1.7-1.7
				H70.6c-1,0-1.7,0.8-1.7,1.7v32.5h-5.8V58.7c0-1-0.8-1.7-1.7-1.7H45.6c-1,0-1.7,0.8-1.7,1.7v35.1h-5.8v-25c0-1-0.8-1.7-1.7-1.7
				H20.5c-1,0-1.7,0.8-1.7,1.7v25h-8c-1,0-1.7,0.8-1.7,1.7s0.8,1.7,1.7,1.7h9.7h15.8h9.4h15.8h9.2h15.8h9.2h15.8h9.7
				c1,0,1.7-0.8,1.7-1.7C122.8,94.6,122.1,93.8,121.1,93.8z M34.5,93.8H22.2V70.6h12.3V93.8z M59.6,93.8H47.3V60.5h12.3V93.8z
				 M84.6,93.8H72.3V63h12.3V93.8z M109.7,93.8H97.4v-48h12.3V93.8z"/>
		</g>
	</g>
</g>
</svg>
