<?xml version="1.0" encoding="utf-8"?>
<!-- Generator: Adobe Illustrator 21.0.0, SVG Export Plug-In . SVG Version: 6.00 Build 0)  -->
<svg version="1.1" id="Layer_1" xmlns="http://www.w3.org/2000/svg" xmlns:xlink="http://www.w3.org/1999/xlink" x="0px" y="0px"
	 viewBox="0 0 131.7 120.2" style="enable-background:new 0 0 131.7 120.2;" xml:space="preserve">
<style type="text/css">
	.st0{fill:#FFFFFF;}
</style>
<g>
	<path class="st0" d="M118.1,47.7c-1.7,0-3.6,1.6-4.7,6.3c-2,9.1-10,16.5-16.4,17.9c-0.5,0.1-0.8,0.1-1,0.1c-2.4,0,9.6-5.8,8.5-8.4
		c-0.5-1.2-1.4-1.6-2.5-1.6c-2,0-4.8,1.4-8,2.6c-5.1,2-10.1,6.1-13.8,10.3c-4.2,4.7-9.3,11.2-11.1,26.7h17.9c0.3-4.3,2-6.5,3.3-7.8
		c3-2.8,20.5-10.9,24.5-16.9c4-6,6.1-21.5,6.2-26.2C120.9,49.1,119.6,47.7,118.1,47.7z"/>
	<path class="st0" d="M62.8,101.6c-1.9-15.5-7-22-11.1-26.7c-3.7-4.2-8.7-8.3-13.8-10.3c-3.2-1.2-6-2.6-8-2.6c-1.1,0-2,0.4-2.5,1.6
		c-1.1,2.6,10.9,8.4,8.5,8.4c-0.2,0-0.6,0-1-0.1c-6.4-1.4-14.4-8.7-16.4-17.9c-1-4.7-3-6.3-4.7-6.3c-1.6,0-2.8,1.4-2.8,3
		c0.1,4.7,2.2,20.2,6.2,26.2c4,6,21.5,14.1,24.5,16.9c1.4,1.3,3,3.4,3.3,7.8H62.8z"/>
</g>
<g>
	<g>
		<g>
			<path class="st0" d="M108.7,30.8L67.2,0.4c-0.8-0.6-1.9-0.6-2.7,0L23,30.8c-1,0.7-1.2,2.2-0.5,3.2s2.2,1.2,3.2,0.5L65.9,5.1
				L106,34.5c0.4,0.3,0.9,0.4,1.3,0.4c0.7,0,1.4-0.3,1.8-0.9C110,33,109.7,31.6,108.7,30.8z"/>
		</g>
	</g>
	<g>
		<g>
			<path class="st0" d="M42.7,75.8c0,0.1,0,0.1,0,0.2c0.1,1.2,1.1,2.1,2.3,2.1h52.8c1.3,0,2.3-1,2.3-2.3V37.3c0-1.3-1-2.3-2.3-2.3
				c-1.3,0-2.3,1-2.3,2.3v36.2H47.2"/>
			<path class="st0" d="M54.5,73.6H36.3V37.3c0-1.3-1-2.3-2.3-2.3s-2.3,1-2.3,2.3v38.5c0,1.3,1,2.3,2.3,2.3h22.8
				c1.2,0,2.2-0.9,2.3-2.1c0-0.1,0-0.1,0-0.2"/>
		</g>
	</g>
</g>
<g>
	<g>
		<path class="st0" d="M83.5,33.8c-1.3-1.3-3.5-1.3-4.8,0L62.1,50.3L55,43.2c-1.3-1.3-3.5-1.3-4.8,0c-1.3,1.3-1.3,3.5,0,4.8l9.6,9.6
			c0.6,0.6,1.5,1,2.4,1s1.8-0.4,2.4-1l19-19C84.8,37.2,84.8,35.1,83.5,33.8z"/>
	</g>
</g>
</svg>
