<?xml version="1.0" encoding="utf-8"?>
<!-- Generator: Adobe Illustrator 21.0.0, SVG Export Plug-In . SVG Version: 6.00 Build 0)  -->
<svg version="1.1" id="Layer_1" xmlns="http://www.w3.org/2000/svg" xmlns:xlink="http://www.w3.org/1999/xlink" x="0px" y="0px"
	 viewBox="0 0 131.7 120.2" style="enable-background:new 0 0 131.7 120.2;" xml:space="preserve">
<style type="text/css">
	.st0{fill:#FFFFFF;}
	.st1{fill:none;stroke:#FFFFFF;stroke-width:3;stroke-linecap:round;stroke-linejoin:round;stroke-miterlimit:10;}
</style>
<g>
	<path class="st0" d="M17.4,59.8h9.7c2.6,0,4.7,2.1,4.7,4.7v28.8c0,2.6-2.1,4.7-4.7,4.7h-9.7c-2.6,0-4.7-2.1-4.7-4.7V64.5
		C12.7,61.9,14.8,59.8,17.4,59.8z"/>
	<path class="st0" d="M45.1,66.9c-1,0.3-2,0.5-3,0.5h-6.5v24.9h2.9c0.8,0,1.6,0.1,2.4,0.3L54.4,96c0.5,0.1,0.9,0.2,1.4,0.2h16.2
		c1,0,2-0.2,2.9-0.7l41.4-23.9c1.8-1.1,2.9-2.9,2.9-5c0-2-1.1-3.9-2.9-5c-1.8-1.1-4-1.1-5.7,0L87.8,73.1c1.1,3.4,0.2,7-2.1,9.6
		c-2.5,2.5-6.1,3.6-9.4,2.6l-16.2-3.8c-0.5-0.1-0.9-0.4-1.2-0.9c-0.2-0.4-0.3-1-0.2-1.5c0.2-1.1,1.3-1.6,2.3-1.4l16.3,3.9
		c1.6,0.5,3.4,0.2,4.8-0.9c1.4-1,2.3-2.6,2.4-4.3c0.1-2.8-1.7-5.3-4.5-6l-23.5-6.3c-1.1-0.3-2.2-0.2-3.3,0.1L45.1,66.9z"/>
	<g>
		<g>
			<g>
				<path class="st0" d="M68.6,27.3h-9V17.1c0-3.1-2.5-5.6-5.6-5.6s-5.6,2.5-5.6,5.6v1.1c0,0.7,0.5,1.1,1.1,1.1s1.1-0.5,1.1-1.1
					v-1.1c0-1.9,1.6-3.4,3.4-3.4c1.9,0,3.4,1.6,3.4,3.4v10.1H55v-3.4c0-0.7-0.5-1.1-1.1-1.1H33.6c-0.7,0-1.1,0.5-1.1,1.1v3.4h-4.5
					c-0.7,0-1.1,0.5-1.1,1.1v24.9c0,0.7,0.5,1.1,1.1,1.1h6.8v4.5c0,0.7,0.5,1.1,1.1,1.1h54.3c0.7,0,1.1-0.5,1.1-1.1v-4.5h6.8
					c0.7,0,1.1-0.5,1.1-1.1V28.4c0-0.7-0.5-1.1-1.1-1.1h-5.6 M90.1,27.3H70.9 M34.7,25.1h18.1v2.3H34.7V25.1z M29,52.1V29.6h32.8
					v22.6H29z M89,57.9h-52v-3.4h52V57.9z M96.9,52.1H64.1V29.6h32.8V52.1z"/>
				<line class="st1" x1="66.4" y1="37.6" x2="66.4" y2="43.1"/>
				<line class="st1" x1="59.3" y1="37.6" x2="59.3" y2="43.1"/>
			</g>
		</g>
	</g>
	<g>
		<polygon class="st0" points="71.8,2.8 67.7,9.1 75.8,9.1 		"/>
		<polygon class="st0" points="81.4,2.1 73.3,2.1 77.4,8.4 		"/>
		<polygon class="st0" points="68,10.8 81.3,25.9 76.8,10.8 		"/>
		<polygon class="st0" points="92.7,2.1 84.6,2.1 88.6,8.4 		"/>
		<polygon class="st0" points="87.1,9.1 83.1,2.9 79,9.1 		"/>
		<polygon class="st0" points="90.3,9.1 98.4,9.1 94.3,2.8 		"/>
		<polygon class="st0" points="78.6,10.8 83.1,25.3 87.5,10.8 		"/>
		<polygon class="st0" points="84.7,25.9 98,10.8 89.3,10.8 		"/>
	</g>
</g>
</svg>
