<?xml version="1.0" encoding="utf-8"?>
<!-- Generator: Adobe Illustrator 21.0.0, SVG Export Plug-In . SVG Version: 6.00 Build 0)  -->
<svg version="1.1" id="Layer_1" xmlns="http://www.w3.org/2000/svg" xmlns:xlink="http://www.w3.org/1999/xlink" x="0px" y="0px"
	 viewBox="0 0 131.7 120.2" style="enable-background:new 0 0 131.7 120.2;" xml:space="preserve">
<style type="text/css">
	.st0{fill:#FFFFFF;}
</style>
<g>
	<path class="st0" d="M85.3,80.1l21.1-36.8c7.2-12.5,2.9-28.5-9.6-35.7s-28.5-2.9-35.7,9.6c-4.7,8.3-4.5,18.2,0,26l21.1,36.8
		C82.9,81.3,84.6,81.3,85.3,80.1z"/>
</g>
<path class="st0" d="M123,100.8l-13.2-67.4c-0.2-1-1-1.6-1.9-1.6H93.5h-3.7h-66c-1,0-1.8,0.7-1.9,1.6L8.6,100.8
	c-0.1,0.6,0,1.2,0.4,1.7c0.4,0.4,1,0.7,1.6,0.7h110.6c0.6,0,1.1-0.3,1.6-0.7C123,102,123.2,101.4,123,100.8z M42.7,35.9h45.6l0,0
	h16.2L87.4,68.4C86.2,68.2,85,68,83.8,68c-7,0-12.8,4.5-12.8,10c0,0.2,0,0.4,0,0.4H40.9L42.7,35.9z M87.7,72.6
	c3,1.1,4.9,3.2,4.9,5.3c0,1.6-0.9,2.7-1.7,3.5C89.3,83,86.6,84,83.8,84c-3.9,0-7.4-1.8-8.5-4.4l0,0c-0.3-0.5-0.4-1.1-0.4-1.7
	c0-3.2,4-6,8.8-6C85.2,72,86.5,72.2,87.7,72.6L87.7,72.6z M36.1,99.3H13l0.8-3.9l23-11.7L36.1,99.3z M36.9,79.2L14.7,90.5l10.8-54.6
	h13.3L36.9,79.2z M40,99.3l0.7-16.8h31.5c2.1,3.3,6.6,5.5,11.5,5.5c3.2,0,6.3-1,8.7-2.6l21.8,13.8L40,99.3L40,99.3z M95.2,82.4
	c0.9-1.4,1.3-2.9,1.3-4.5c0-3.3-2.1-6.3-5.4-8.1L107,39.8l11.3,57.3L95.2,82.4z"/>
</svg>
